<?xml version="1.0" encoding="UTF-8" standalone="no"?><!DOCTYPE svg PUBLIC "-//W3C//DTD SVG 1.1//EN" "http://www.w3.org/Graphics/SVG/1.1/DTD/svg11.dtd"><svg width="100%" height="100%" viewBox="0 0 12500 17188" version="1.1" xmlns="http://www.w3.org/2000/svg" xmlns:xlink="http://www.w3.org/1999/xlink" xml:space="preserve" xmlns:serif="http://www.serif.com/" style="fill-rule:evenodd;clip-rule:evenodd;stroke-linejoin:round;stroke-miterlimit:2;"><g><g><path d="M7596.06,3227.28c-22.265,61.138 -45.461,120.866 -51.541,132.723c-58.742,136.75 -142.953,242.683 -230.458,354c-50.482,65.847 -45.209,60.17 -126.064,135.878c-95.552,89.472 -91.251,84.553 -91.251,103.967c0,10.595 1.967,18.187 5.803,22.44c3.291,3.633 5.816,11.641 5.816,18.477c-0,12.301 15.955,35.534 24.393,35.534c3.824,-0 22.049,20.842 22.049,25.204c-0,4.453 88.008,92.639 101.406,101.606c7.392,4.944 18.491,16.146 24.636,24.888c6.154,8.729 17.531,22.782 25.278,31.22c7.744,8.438 18.642,24.357 24.206,35.382c5.564,11.025 16.094,28.585 23.412,39.028c7.317,10.443 16.197,26.628 19.739,35.964c7.192,18.958 41.147,91.689 58.278,124.802c6.132,11.87 14.379,33.515 18.316,48.121c3.936,14.596 8.389,31.02 9.901,36.506c1.514,5.473 14.773,41.537 29.466,80.136c25.013,65.759 26.666,71.661 26.05,93.446c-0.556,20.03 0.39,24.358 6.771,31.181c5.942,6.346 8.073,14.228 10.673,39.293c4.049,39.015 25.53,237.675 29.579,273.587c2.99,26.553 3.003,26.541 -7.895,36.506c-5.98,5.474 -15.022,17.808 -20.083,27.422c-5.056,9.61 -13.888,23.043 -19.627,29.87c-40.364,47.895 -49.306,76.428 -47.643,151.772c1.185,53.33 12.487,80.943 46.242,113.034c11.961,11.377 17.812,21.95 20.803,37.653c1.185,6.232 6.054,16.45 10.82,22.691c14.154,18.556 -62.652,248.965 -86.745,260.189c-3.672,1.705 -9.055,7.14 -11.971,12.062c-2.912,4.917 -11.767,19.41 -19.678,32.179c-22.011,35.569 -44.793,78.308 -49.559,92.978c-2.373,7.265 -28.091,60.834 -57.179,119.05c-36.91,73.881 -53.737,111.116 -55.717,123.326c-6.862,42.118 -53.659,87.414 -99.249,96.043c-6.242,1.188 -24.623,8.124 -40.843,15.429c-16.22,7.301 -39.709,16.75 -52.196,21.003c-12.488,4.249 -32.9,13.872 -45.361,21.393c-12.461,7.505 -28.355,14.567 -35.317,15.678c-10.156,1.627 -32.951,18.215 -115.031,83.707c-56.307,44.931 -109.615,87.314 -118.482,94.189c-14.393,11.163 -49.849,27.929 -145.527,68.821c-35.421,15.138 -65.708,31.345 -71.385,38.185c-2.244,2.709 -9.08,4.931 -15.174,4.931c-6.093,-0 -18.719,3.003 -28.042,6.671c-18.451,7.279 -18.316,7.305 -38.786,-9.258c-21.193,-17.166 -14.809,-70.419 8.451,-70.419c1.476,0 14.87,-12.025 29.805,-26.709c14.923,-14.683 32.267,-28.849 38.551,-31.471c15.122,-6.32 15.377,-7.04 9.926,-28.043c-2.573,-9.948 -4.692,-25.213 -4.692,-33.906c0,-8.703 -3.733,-28.708 -8.299,-44.45c-4.556,-15.742 -8.328,-33.315 -8.363,-39.041c-0.052,-5.728 -3.029,-16.914 -6.637,-24.874c-9.474,-20.877 -7.113,-43.546 8.868,-85.196c2.373,-6.181 -18.694,-28.256 -57.218,-59.953c-49.584,-40.769 -56.95,-51.909 -60.986,-91.997c-2.5,-24.822 -4.896,-31.345 -28.269,-76.945c-43.959,-85.739 -47.214,-89.167 -86.862,-91.589c-18.403,-1.124 -38.737,-3.03 -45.157,-4.241c-9.927,-1.866 -16.463,0.317 -43.178,14.38c-17.318,9.11 -40.985,20.147 -52.6,24.523c-11.618,4.366 -30.538,14.027 -42.057,21.47c-29.618,19.146 -48.803,24.51 -102.323,28.595c-34.701,2.648 -48.551,4.996 -53.095,8.98c-3.368,2.964 -10.078,7.444 -14.896,9.953c-11.732,6.106 -31.685,30.551 -34.22,41.892c-2.399,10.747 -29.253,40.655 -36.518,40.655c-2.765,0 -8.968,5.968 -13.802,13.27c-4.831,7.304 -10.04,13.271 -11.554,13.271c-4.592,0 -29.037,34.336 -39.293,55.161c-9.636,19.588 -23.738,34.233 -60.799,63.108c-28.608,22.289 -40.036,49.572 -26.073,62.211c3.433,3.103 7.153,11.315 8.251,18.242c1.107,6.923 8.754,25.807 16.989,41.953c8.237,16.146 14.986,31.95 14.986,35.144c0,3.177 2.8,6.684 6.246,7.769c3.429,1.098 14.809,12.743 25.278,25.889c10.469,13.139 24.835,28.339 31.914,33.786c7.088,5.439 12.878,11.671 12.878,13.854c-0,2.166 10.821,14.983 24.054,28.469c21.923,22.352 39.432,45.004 57.244,74.093c3.646,5.968 12.929,18.833 20.622,28.598c26.527,33.667 29.188,37.436 41.653,58.716c21.303,36.406 16.059,76.845 -9.991,76.845c-2.965,0 -8.49,2.852 -12.249,6.333c-7.782,7.178 -64.771,33.49 -72.569,33.49c-2.813,-0 -9.333,3.519 -14.493,7.821c-13.32,11.115 -29.214,18.719 -39.141,18.719c-4.692,0 -16.914,4.48 -27.183,9.953c-10.256,5.473 -20.461,9.952 -22.656,9.952c-8.299,0 -87.188,41.198 -107.888,56.346c-11.857,8.68 -28.277,19.957 -36.489,25.052c-19.895,12.336 -52.526,40.821 -102.883,89.788c-22.804,22.188 -46.697,42.952 -53.077,46.129c-16.489,8.212 -25.812,17.596 -29.948,30.122c-4.692,14.228 -21.242,26.541 -39.797,29.592c-9.006,1.489 -20.108,6.649 -28.155,13.069c-7.301,5.842 -18.177,12.6 -24.18,15.009c-5.99,2.422 -12.4,7.192 -14.215,10.585c-1.818,3.394 -9.588,9.31 -17.296,13.169c-32.066,16.059 -39.606,27.522 -60.105,91.515c-25.291,78.912 -28.924,97.203 -41.714,210.098c-1.967,17.344 -4.15,60.638 -4.844,96.233c-1.263,64.71 -1.263,64.71 -25.114,174.212c-26.818,123.178 -32.786,173.924 -24.877,211.715c3.155,15.049 3.407,24.571 0.923,35.548c-2.309,10.23 -2.273,34.384 0.087,76.124c2.852,50.318 2.635,62.705 -1.084,69.919c-2.497,4.818 -4.415,13.863 -4.263,20.095c0.365,15.287 -8.047,36.138 -23.816,58.855c-7.191,10.356 -20.663,33.025 -29.947,50.369c-9.271,17.332 -19.033,35.257 -21.671,39.81c-2.635,4.566 -9.297,18.012 -14.783,29.87c-5.474,11.857 -14.367,28.281 -19.766,36.506c-5.386,8.212 -16.763,28.369 -25.278,44.792c-8.516,16.424 -17.144,30.903 -19.162,32.179c-2.018,1.272 -4.628,11.719 -5.813,23.221c-1.175,11.506 -4.592,29.127 -7.595,39.167c-3.003,10.04 -7.088,26.463 -9.071,36.506c-1.966,10.039 -7.162,25.191 -11.554,33.664c-4.388,8.49 -7.982,20.551 -7.982,26.832c-0,6.268 -1.111,12.513 -2.487,13.888c-1.362,1.363 -4.249,9.449 -6.406,17.974c-7.392,29.089 -30.261,90.443 -42.209,113.186c-6.572,12.501 -11.945,25.934 -11.945,29.87c-0,3.937 -2.092,11.177 -4.64,16.108c-12.426,24.08 -22.505,62.226 -20.677,78.169c1.376,11.883 0.255,19.288 -4.224,28.207c-3.342,6.645 -7.065,17.647 -8.302,24.432c-1.259,6.952 -5.348,14.518 -9.345,17.318c-9.358,6.575 -22.201,36.745 -22.378,52.626c-0.24,22.669 -12.562,39.267 -28.317,38.121c-18.507,-1.337 -34.701,34.31 -44.779,98.59c-1.731,10.95 -6.171,31.737 -9.879,46.194c-7.782,30.312 -8.363,28.607 20.548,60.46c9.7,10.695 23.146,26.35 29.883,34.775c27.929,34.966 70.738,46.307 96.976,25.669c6.913,-5.435 16.032,-7.075 51.215,-9.206c46.975,-2.852 67.522,-10.699 102.01,-38.954c47.73,-39.115 39.709,-159.742 -11.48,-172.597c-33.29,-8.351 -46.684,-40.982 -26.047,-63.447c7.895,-8.593 16.434,-20.816 18.972,-27.148c2.535,-6.342 14.531,-21.632 26.65,-33.981c24.158,-24.584 50.786,-66.528 61.168,-96.359c3.658,-10.495 10.846,-24.371 15.994,-30.829c16.763,-21.003 28.798,-47.479 28.798,-63.399c-0,-16.433 6.142,-30.574 20.395,-46.936c5.235,-6.003 13.941,-19.676 19.34,-30.361c15.135,-29.996 31.975,-51.932 68.113,-88.716c57.344,-58.39 84.314,-92.9 89.714,-114.749c1.233,-5.044 6.332,-12.058 11.302,-15.591c28.317,-20.169 44.324,-105.023 28.772,-152.566c-7.379,-22.578 -6.94,-26.579 5.777,-50.973c6.129,-11.77 12.097,-25.129 13.243,-29.708c1.15,-4.567 5.829,-10.76 10.407,-13.76c9.133,-5.981 10.634,-15.013 4.202,-25.356c-3.481,-5.612 -3.016,-8.651 2.912,-19.032c3.885,-6.801 32.774,-69.845 64.207,-140.105c31.433,-70.274 59.853,-130.744 63.159,-134.39c3.317,-3.658 7.024,-14.102 8.235,-23.237c1.211,-9.119 4.214,-24.054 6.688,-33.186c2.483,-9.12 7.556,-32.266 11.276,-51.429c3.707,-19.158 8.286,-40.061 10.165,-46.432c1.88,-6.381 3.42,-21.012 3.42,-32.518c0,-28.885 8.49,-43.82 24.9,-43.82c11.315,0 15.539,43.633 8.325,85.913c-8.337,48.918 -8.312,53.837 0.265,70.638c5.234,10.269 6.432,16.953 4.882,27.248c-6.497,42.813 -6.697,40.894 4.376,46.62c9.662,4.996 20.308,20.031 20.308,28.711c0,2.17 9.701,25.92 21.572,52.791c21.557,48.828 21.557,48.828 21.557,137.631c0,88.803 0,88.79 11.212,107.484c13.737,22.93 15.694,29.275 28.42,91.689c7.796,38.273 9.436,52.3 7.04,60.638c-3.897,13.572 -1.414,95.652 3.242,107.128c2.826,6.953 1.728,12.375 -6.029,29.861c-5.212,11.754 -15.868,41.537 -23.689,66.172c-17.925,56.421 -16.185,53.369 -34.449,59.511c-15.465,5.199 -58.746,43.468 -58.746,51.958c0,6.562 -12.965,33.441 -18.225,37.817c-2.764,2.283 -4.996,5.729 -4.996,7.644c0,1.905 -2.044,5.828 -4.53,8.718c-2.471,2.874 -6.116,10.066 -8.096,15.969c-4.266,12.713 -63.121,105.591 -80.478,126.971c-6.662,8.225 -36.015,53.017 -65.265,99.55c-29.241,46.545 -80,127.175 -112.796,179.198c-79.719,126.403 -84.363,134.767 -128.069,230.609c-20.813,45.625 -60.748,132.975 -88.751,194.117c-55.049,120.248 -57.18,127.466 -43.282,146.246c10.066,13.624 8.012,37.64 -4.866,57.106c-9.374,14.163 -77.465,81.902 -82.409,81.976c-4.401,0.064 -31.849,29.934 -31.849,34.652c-0,2.231 -3.62,7.453 -8.038,11.593c-4.414,4.149 -11.06,14.632 -14.796,23.295c-3.72,8.667 -9.181,17.761 -12.132,20.209c-2.955,2.447 -9.006,11.631 -13.459,20.421c-4.453,8.78 -9.462,15.972 -11.128,15.972c-1.676,-0 -4.036,3.077 -5.235,6.849c-1.198,3.772 -6.471,11.744 -11.718,17.721c-16.02,18.252 -16.776,36.532 -1.867,45.322c13.524,7.986 18.025,19.427 12.439,31.688c-2.057,4.502 -5.386,18.959 -7.405,32.115c-2.031,13.155 -5.082,26.515 -6.761,29.692c-1.689,3.181 -3.23,11.393 -3.443,18.255c-0.19,6.862 -3.103,19.943 -6.445,29.063c-5.69,15.512 -15.972,60.747 -49.058,215.687c-7.405,34.675 -16.359,75.747 -19.879,91.26c-3.52,15.503 -9.688,43.872 -13.724,63.034c-4.037,19.172 -11.632,52.019 -16.892,73.009c-5.26,20.989 -12.41,53.233 -15.881,71.649c-3.481,18.429 -10.166,46.797 -14.861,63.056c-4.692,16.246 -22.84,81.06 -40.323,144.029c-17.483,62.969 -36.935,132.7 -43.203,154.975c-6.284,22.275 -11.415,43 -11.415,46.055c-0,3.052 -5.377,11.502 -11.948,18.768c-6.559,7.266 -14.164,18.645 -16.863,25.291c-2.713,6.636 -10.611,24.762 -17.561,40.278c-6.962,15.516 -19.74,44.249 -28.368,63.863c-11.78,26.741 -20.651,41.25 -35.521,58.065c-10.912,12.335 -29.67,37.171 -41.689,55.196c-25.695,38.537 -72.266,78.095 -106.047,90.066c-30.273,10.721 -43.29,39.167 -28.194,61.658c47.101,70.196 48.038,65.126 -16.85,92.119c-14.279,5.942 -30.703,13.698 -36.506,17.231c-5.79,3.546 -13.52,6.458 -17.166,6.458c-3.659,0.026 -11.128,2.752 -16.601,6.081c-10.092,6.155 -22.414,13.081 -78.373,44.024c-47.414,26.224 -53.821,29.527 -57.557,29.592c-1.892,0.026 -16.133,9.219 -31.636,20.421c-15.513,11.215 -37.159,25.191 -48.109,31.094c-32.695,17.596 -57.014,32.066 -111.116,66.186c-28.256,17.812 -57.293,34.487 -64.545,37.035c-7.244,2.561 -16.008,7.227 -19.492,10.369c-8.88,8.034 -41.563,27.423 -78.608,46.607c-48.186,24.952 -70.855,37.365 -76.328,41.815c-2.739,2.222 -16.915,11.141 -31.524,19.805c-14.593,8.667 -28.217,16.778 -30.261,18.012c-69.376,41.98 -102.097,70.603 -85.044,74.41c11.089,2.487 32.431,-1.776 48.06,-9.597c11.428,-5.728 23.993,-8.451 46.104,-10.03c26.489,-1.879 32.76,-3.581 48.806,-13.243c10.126,-6.093 21.48,-11.176 25.239,-11.315c53.269,-1.844 83.655,-11.909 105.226,-34.865c47.947,-50.999 52.588,-57.244 52.588,-70.652c-0,-17.673 5.803,-21.71 27.387,-18.997c64.319,8.099 69.011,7.379 92.761,-14.267c25.469,-23.195 33.416,-26.311 73.655,-28.911c19.462,-1.262 36.164,-3.555 37.123,-5.108c0.959,-1.55 5.764,-2.852 10.672,-2.852c4.905,0 12.662,-1.915 17.218,-4.236c4.566,-2.322 23.977,-9.133 43.139,-15.152c19.172,-6.003 43.807,-15.174 54.757,-20.357c10.951,-5.186 24.71,-11.215 30.578,-13.397c5.877,-2.183 12.4,-6.042 14.518,-8.577c2.106,-2.548 7.166,-4.618 11.251,-4.618c4.101,0 11.024,-2.722 15.377,-6.042c4.353,-3.316 13.13,-8.034 19.527,-10.495c6.381,-2.46 13.963,-6.471 16.84,-8.906c2.887,-2.435 14.089,-8.086 24.888,-12.536c10.808,-4.453 25.581,-11.163 32.808,-14.925c7.227,-3.759 16.056,-6.836 19.627,-6.836c3.581,0 8.868,-2.018 11.745,-4.502c5.108,-4.391 25.049,-10.798 45.07,-14.495c5.486,-1.008 13.863,-5.096 18.642,-9.081c4.769,-3.985 13.737,-9.093 19.904,-11.354c10.608,-3.884 19.188,-7.869 34.462,-16.02c3.646,-1.953 17.509,-6.871 30.804,-10.96c13.294,-4.075 32.86,-13.004 43.442,-19.856c10.573,-6.836 32.266,-18.794 48.212,-26.576c15.93,-7.795 31.281,-17.686 34.097,-21.997c2.822,-4.305 6.836,-7.834 8.899,-7.834c2.074,-0 17.206,-6.572 33.633,-14.622c25.607,-12.549 130.43,-55.071 135.764,-55.071c1.011,0 10.699,-4.288 21.52,-9.526c10.824,-5.247 25.013,-10.53 31.523,-11.754c6.523,-1.224 18.216,-5.122 25.999,-8.654c7.782,-3.533 17.292,-6.446 21.141,-6.485c3.846,-0.035 15.791,-4.54 26.541,-9.988c26.524,-13.459 33.26,-12.59 12.248,1.563c-18.455,12.439 -41.905,23.651 -69.948,33.465c-9.635,3.38 -27.561,14.014 -39.822,23.65c-12.248,9.639 -31.142,22.165 -41.967,27.852c-10.82,5.703 -32.947,19.101 -49.18,29.77c-29.618,19.475 -53.485,30.225 -81.841,36.858c-32.027,7.495 -56.223,17.344 -89.029,36.293c-38.146,22.036 -58.793,30.839 -79.987,34.106c-27.625,4.263 -43.62,18.885 -43.62,39.887c0,8.755 -14.302,18.869 -70.764,50.076c-29.718,16.436 -65.288,40.745 -65.288,44.63c0,1.589 -6.826,6.207 -15.164,10.243c-21.936,10.621 -33.161,21.164 -46.255,43.517c-11.78,20.121 -14.457,28.216 -7.986,24.219c1.983,-1.224 8.58,0.455 14.67,3.733c13.802,7.443 42.839,1.44 74.64,-15.413c6.394,-3.381 18.338,-9.575 26.55,-13.763c8.212,-4.175 20.157,-10.834 26.541,-14.796c10.721,-6.633 52.93,-24.268 260.492,-108.86c41.967,-17.114 118.873,-48.46 170.883,-69.679c52.019,-21.203 116.971,-47.605 144.342,-58.655c27.386,-11.037 61.719,-25.101 76.328,-31.246c131.186,-55.174 192.198,-78.256 202.012,-76.402c32.847,6.232 34.678,6.193 46.18,-0.921c6.272,-3.872 16.098,-7.039 21.836,-7.039c5.751,-0 19.011,-2.119 29.48,-4.705c10.468,-2.584 28.746,-6.446 40.616,-8.577c11.858,-2.118 26.047,-6.546 31.524,-9.827c5.473,-3.267 15.917,-7.821 23.221,-10.104c7.304,-2.283 21.48,-9.106 31.523,-15.148c19.879,-11.97 65.834,-23.059 135.058,-32.569c30.312,-4.163 41.653,-7.405 61.38,-17.496c18.252,-9.336 29.945,-12.904 47.453,-14.493c23.716,-2.17 139.889,-47.443 295.333,-115.104c95.755,-41.676 145.92,-60.713 159.922,-60.687c4.024,0 17.913,-5.512 30.865,-12.274c18.468,-9.649 28.32,-12.6 45.738,-13.711c12.213,-0.781 25.569,-3.633 29.696,-6.332c4.123,-2.713 17.608,-7.618 29.931,-10.925c12.313,-3.303 30.225,-9.862 39.797,-14.567c11.14,-5.463 22.972,-8.541 32.86,-8.541c10.282,0 22.517,-3.329 36.532,-9.952c11.589,-5.474 24.571,-9.953 28.846,-9.953c7.656,0 28.42,-6.484 59.488,-18.567c12.93,-5.022 17.031,-5.4 22.327,-2.093c9.119,5.7 14.609,5.083 21.368,-2.373c8.476,-9.371 22.352,-11.364 36.848,-5.322c15.387,6.432 65.782,-6.371 69.35,-17.622c4.54,-14.279 17.296,-20.247 81.55,-38.246c79.202,-22.162 186.156,-52.284 285.293,-80.339c177.202,-50.127 179.181,-50.444 179.181,-28.937c0,4.466 1.602,11.128 3.568,14.809c4.744,8.867 -2.974,17.573 -19.523,21.949c-6.737,1.779 -47.344,13.029 -90.23,25.013c-191.695,53.508 -238.14,65.265 -303.619,76.871c-35.473,6.281 -48.715,10.356 -74.436,22.956c-17.205,8.416 -33.993,15.313 -37.339,15.313c-23.183,0 -70.132,18.381 -77.74,30.438c-9.687,15.352 -18.212,20.283 -28.442,16.463c-21.671,-8.086 -38.399,-7.518 -72.999,2.473c-18.833,5.435 -58.869,15.236 -88.981,21.785c-30.122,6.532 -61.897,13.507 -70.613,15.513c-18.454,4.227 -34.636,18.532 -36.189,31.991c-0.921,7.97 -2.648,9.22 -14.141,10.153c-7.201,0.594 -16.914,3.771 -21.568,7.065c-18.303,12.927 -60.902,27.371 -75.143,25.479c-9.813,-1.311 -16.94,-0 -25.707,4.692c-6.672,3.571 -14.141,6.497 -16.611,6.497c-2.474,-0 -11.064,4.479 -19.098,9.939c-8.025,5.474 -31.775,15.3 -52.765,21.862c-32.938,10.278 -39.748,13.659 -49.775,24.71c-8.767,9.674 -19.174,15.716 -42.46,24.687c-16.967,6.532 -36.719,16.133 -43.898,21.342c-7.175,5.195 -19.979,11.202 -28.443,13.333c-21.922,5.525 -37.009,20.938 -30.351,31.042c11.645,17.709 36.784,19.301 59.288,3.759c7.657,-5.296 22.101,-10.166 39.822,-13.434c29.632,-5.46 62.641,-15.868 201.686,-63.611c48.199,-16.55 93.734,-31.02 101.216,-32.166c11.338,-1.741 103.069,-30.374 225.84,-70.513c18.164,-5.942 30.616,-12.474 39.823,-20.877c7.355,-6.736 18.012,-14.605 23.689,-17.496c11.705,-5.977 18.794,-19.966 17.269,-34.132c-1.462,-13.698 21.064,-13.663 37.375,0.048c10.282,8.655 12.071,9.032 33.364,6.888c22.049,-2.205 22.54,-2.092 24.584,6.042c8.225,32.799 0.265,33.364 379.821,-27.296c183.408,-29.315 390.215,-62.35 459.582,-73.426c164.689,-26.302 159.276,-25.139 172.458,-36.706c11.112,-9.765 11.112,-9.765 143.308,-13.056c72.696,-1.805 140.267,-4.756 150.145,-6.548c34.436,-6.255 109.224,-4.137 131.489,3.723c23.703,8.376 46.711,7.14 67.826,-3.633c14.393,-7.343 421.723,-11.302 428.537,-4.162c14.518,15.199 4.01,18.238 -81.702,23.637c-27.374,1.715 -57.987,5.487 -68.016,8.364c-15.804,4.527 -48.613,5.247 -243.892,5.334c-225.652,0.114 -225.64,0.114 -240.575,7.483c-13.094,6.445 -21.871,7.553 -71.345,9.041c-56.411,1.705 -56.421,1.705 -61.165,12.491c-4.756,10.782 -4.756,10.782 -49.774,10.86c-54.38,0.1 -68.66,2.964 -80.491,16.159c-7.444,8.311 -10.734,9.674 -19.905,8.237c-6.054,-0.946 -34.133,2.774 -62.427,8.286c-28.294,5.499 -72.33,13.924 -97.886,18.694c-25.556,4.779 -57.228,10.837 -70.384,13.459c-31.788,6.333 -70.916,6.094 -90.117,-0.555c-15.552,-5.386 -109.324,12.955 -460.008,89.952c-20.082,4.402 -89.523,19.25 -154.307,32.983c-64.784,13.724 -121.056,25.734 -125.018,26.68c-9.7,2.296 -27.535,17.66 -30.942,26.615c-2.057,5.399 -7.279,8.199 -20.46,10.95c-9.736,2.044 -63.99,13.385 -120.565,25.204c-56.573,11.819 -146.638,31.294 -200.11,43.265c-53.482,11.97 -97.896,21.771 -98.729,21.771c-0.834,-0 -10.092,7.834 -20.574,17.421c-23.563,21.545 -138.79,54.38 -161.75,46.078c-13.773,-4.983 -22.466,-3.091 -58.048,12.677c-32.392,14.344 -43.09,18.203 -73.012,26.325c-19.801,5.376 -49.319,18.784 -90.921,41.337c-8.942,4.844 -19.159,8.806 -22.704,8.806c-3.559,-0 -10.421,2.787 -15.265,6.206c-4.844,3.404 -12.549,7.34 -17.105,8.755c-4.566,1.411 -14.076,8.324 -21.138,15.361c-7.066,7.052 -14.622,12.804 -16.814,12.804c-2.183,-0 -10.725,9.335 -18.95,20.75c-13.546,18.794 -16.762,21.307 -34.597,26.754c-33.997,10.395 -61.797,20.877 -81.059,30.526c-4.553,2.296 -13.524,5.16 -19.905,6.371c-13.195,2.496 -34.284,10.811 -68.016,26.793c-12.778,6.067 -32.783,15.251 -44.437,20.421c-23.551,10.456 -43.507,31.042 -43.507,44.882c-0,11.603 3.203,13.482 12.578,7.34c4.462,-2.925 15.803,-6.51 25.165,-7.959c77.322,-11.997 133.065,-29.806 161.356,-51.555c15.313,-11.767 27.286,-18.112 34.236,-18.151c2.157,0 8.399,-2.99 13.875,-6.623c5.487,-3.62 12.388,-6.607 15.365,-6.607c2.961,0 7.253,-2.26 9.523,-4.995c2.283,-2.739 6.949,-4.983 10.391,-4.983c3.459,-0 8.871,-1.363 12.035,-3.042c3.178,-1.663 16.234,-6.242 29.012,-10.153c26.075,-7.998 29.973,-9.448 52.348,-19.501c8.719,-3.923 18.581,-7.126 21.913,-7.126c3.317,-0 12.601,-3.446 20.622,-7.657c8.038,-4.214 23.525,-9.626 34.436,-12.022c15.1,-3.317 22.265,-7.014 29.983,-15.439c7.621,-8.315 11.996,-10.611 17.522,-9.158c4.049,1.059 9.778,-0.077 12.742,-2.535c2.952,-2.448 9.345,-4.049 14.215,-3.533c12.804,1.337 39.054,-10.798 41.763,-19.313c2.096,-6.598 2.561,-6.698 6.436,-1.411c4.289,5.864 10.886,1.298 7.062,-4.896c-3.442,-5.561 14.683,-7.479 20.044,-2.105c6.458,6.458 4.831,6.61 36.845,-3.559c21.887,-6.949 28.937,-10.886 35.838,-19.93c11.97,-15.691 26.728,-22.931 37.084,-18.213c11.227,5.108 29.834,4.579 31.94,-0.921c2.647,-6.887 40.529,-8.767 57.973,-2.864c13.346,4.502 15.907,4.276 41.489,-3.823c14.983,-4.741 69.063,-18.377 120.174,-30.322c51.099,-11.935 104.846,-24.561 119.454,-28.068c337.803,-80.93 380.186,-89.633 436.584,-89.659c68.117,-0.039 76.138,-2.083 98.391,-25.139c18.416,-19.088 29.87,-22.656 44.275,-13.84c5.725,3.506 7.291,3.242 10.078,-1.651c1.941,-3.419 7.227,-5.815 12.839,-5.815c11.696,-0 39.775,-5.487 59.831,-11.706c9.106,-2.813 29.163,-4.566 51.428,-4.479c20.066,0.077 44.714,-1.602 54.745,-3.733c10.039,-2.131 23.485,-4.227 29.87,-4.653c6.38,-0.43 16.094,-2.664 21.567,-4.96c18.784,-7.909 43.304,-9.61 143.951,-10.001c106.376,-0.404 108.646,-0.568 134.783,-10.356c17.118,-6.41 23.109,-7.092 247.208,-28.068c68.446,-6.407 155.053,-14.606 192.466,-18.213c37.414,-3.61 99.575,-9.574 138.161,-13.259c74.827,-7.153 179.876,-8.993 190.448,-3.329c3.53,1.892 32.166,3.468 65.314,3.594c57.634,0.216 102.288,4.366 108.608,10.091c1.792,1.615 -6.811,2.877 -19.905,2.926c-12.691,0.038 -28.963,1.453 -36.177,3.116c-7.204,1.679 -37.817,3.988 -68.017,5.147c-69.779,2.687 -79.796,6.371 -79.796,29.353c-0,22.908 24.245,25.782 133.66,15.856c116.844,-10.621 435.185,-5.083 437.819,7.608c1.438,6.897 5.6,16.737 9.259,21.871c3.672,5.147 9.158,17.305 12.213,27.032c3.052,9.726 8.047,21.419 11.137,25.985c28.811,42.674 22.566,53.989 -21.723,39.28c-5.486,-1.828 -22.652,-4.653 -38.169,-6.294c-31.913,-3.368 -53.633,-6.952 -89.584,-14.77c-18.103,-3.937 -37.578,-5.135 -71.346,-4.392c-25.556,0.543 -48.524,-0.303 -51.05,-1.905c-2.522,-1.589 -17.444,-4.024 -33.174,-5.409c-15.729,-1.401 -36.818,-5.615 -46.849,-9.387c-25.997,-9.762 -65.365,-9.762 -77.778,-0c-7.366,5.79 -10.278,6.397 -16.207,3.368c-12.213,-6.281 -202.836,-8.729 -487.534,-6.281c-108.782,0.933 -116.994,-1.424 -50.595,-14.583c24.332,-4.818 45.738,-9.688 47.57,-10.808c1.814,-1.124 15.725,-4.379 30.928,-7.243c15.21,-2.861 38.877,-7.492 52.562,-10.291c13.686,-2.813 32.34,-5.387 41.476,-5.739c9.119,-0.355 18.833,-1.553 21.568,-2.664c14.383,-5.825 40.933,-10.278 63.046,-10.569c58.946,-0.781 77.792,-41.45 22.492,-48.538c-15.807,-2.031 -102.957,6.003 -141.946,13.081c-10.046,1.815 -30.942,4.211 -46.458,5.335c-15.516,1.124 -35.677,3.394 -44.793,5.057c-9.131,1.666 -24.066,3.897 -33.186,4.97c-9.135,1.072 -31.523,4.227 -49.775,7.013c-18.254,2.778 -46.623,6.32 -63.046,7.873c-16.424,1.537 -46.294,5.283 -66.364,8.325c-20.078,3.039 -48.173,5.412 -62.452,5.273c-15.361,-0.151 -37.678,2.497 -54.745,6.507c-15.842,3.724 -42.244,7.405 -58.681,8.186c-16.42,0.795 -38.068,2.839 -48.108,4.557c-37.704,6.445 -66.008,10 -109.502,13.785c-46.319,4.011 -75.13,11.037 -141.025,34.336c-18.251,6.445 -38.411,11.819 -44.792,11.932c-6.397,0.113 -17.596,2.36 -24.888,4.983c-7.304,2.638 -17.018,4.83 -21.571,4.895c-4.566,0.048 -19.159,2.926 -32.417,6.358c-13.256,3.443 -53.573,10.292 -89.598,15.21c-95.187,12.994 -105.162,18.002 -105.265,52.868c-0.048,18.972 -0.969,19.272 -40.652,13.459c-17.296,-2.538 -26.592,-0.416 -58.923,13.434c-14.151,6.054 -61.19,20.599 -72.996,22.565c-10.886,1.815 -40.946,11.39 -74.662,23.764c-11.871,4.353 -27.549,8.88 -34.84,10.056c-7.305,1.185 -14.948,3.507 -16.953,5.17c-13.876,11.454 -45.183,22.062 -121.551,41.198c-91.992,23.046 -100.269,26.515 -109.566,45.903c-4.288,8.928 -7.921,12.148 -13.698,12.148c-13.243,-0 -29.78,8.942 -39.532,21.367c-5.095,6.507 -14.809,14.732 -21.571,18.291c-20.066,10.533 -41.511,33.099 -36.819,38.75c4.592,5.538 10.521,4.175 37.817,-8.716c10.95,-5.173 28.824,-10.433 39.748,-11.683c10.912,-1.246 27.283,-6.042 36.377,-10.643c9.084,-4.605 57.648,-18.746 107.913,-31.424c367.472,-92.7 384.135,-97.595 394.478,-115.721c7.569,-13.269 31.046,-20.509 78.538,-24.206c7.326,-0.581 16.284,-2.587 19.904,-4.466c3.62,-1.892 21.532,-6.016 39.784,-9.171c18.251,-3.164 40.174,-7.831 48.741,-10.379c8.551,-2.56 20.183,-4.643 25.86,-4.643c5.686,-0 14.453,-2.131 19.501,-4.744c5.044,-2.609 18.794,-5.79 30.551,-7.088c11.741,-1.285 27.196,-5.286 34.359,-8.893c9.5,-4.766 17.118,-6.093 28.055,-4.857c8.247,0.934 18.616,0.304 23.056,-1.375c4.427,-1.689 15.581,-3.782 24.739,-4.654c9.168,-0.871 18.642,-3.229 21.064,-5.234c2.409,-2.005 9.271,-4.137 15.252,-4.757c19.688,-2.005 40.603,-6.875 48.928,-11.376c21.71,-11.758 171.312,-32.14 202.91,-27.665c6.597,0.947 15.274,-0.035 19.275,-2.179c4.44,-2.387 30.852,-4.531 67.648,-5.5c33.187,-0.884 65.857,-2.851 72.592,-4.366c6.749,-1.514 18.694,-1.553 26.554,-0.087c7.86,1.45 41.915,1.625 75.686,0.391c48.79,-1.792 158.944,-2.309 296.982,-1.401c5.477,0.038 71.814,0.077 147.432,0.113c131.729,0.025 206.807,4.062 211.3,11.328c0.92,1.488 -2.497,2.725 -7.631,2.725c-5.121,-0 -30.226,1.602 -55.782,3.542c-53.698,4.076 -148.742,9.045 -215.674,11.293c-25.556,0.843 -60.647,3.265 -77.978,5.373c-17.344,2.106 -39.003,3.139 -48.122,2.306c-9.122,-0.83 -31.523,-0.378 -49.778,1.011c-18.255,1.401 -54.089,3.594 -79.631,4.882c-64.217,3.242 -69.477,3.656 -99.55,7.831c-14.606,2.018 -47.453,4.996 -72.996,6.597c-28.646,1.805 -52.184,5.073 -61.394,8.516c-8.211,3.064 -20.573,5.399 -27.474,5.173c-8.085,-0.265 -19.31,3.103 -31.523,9.458c-10.443,5.425 -25.704,10.685 -33.916,11.683c-8.212,1.008 -28.372,3.317 -44.795,5.144c-16.421,1.818 -32.857,4.731 -36.503,6.459c-3.646,1.727 -16.424,6.258 -28.382,10.068c-28.32,9.029 -35.572,14.467 -43.255,32.38c-8.111,18.906 -3.519,30.247 10.434,25.82c3.368,-1.059 10.469,0.317 15.778,3.052c10.23,5.299 46.723,2.196 62.452,-5.296c3.885,-1.857 11.58,-2.374 17.105,-1.163c5.878,1.289 10.938,0.746 12.21,-1.311c1.188,-1.931 6.649,-3.507 12.148,-3.507c5.487,0 13.095,-1.676 16.902,-3.707c3.81,-2.044 16.74,-4.149 28.723,-4.692c11.984,-0.533 22.214,-2.221 22.744,-3.749c3.633,-10.291 8.424,-11.919 42.787,-14.505c58.39,-4.402 134.87,-12.827 195.921,-21.581c31.333,-4.505 62.869,-8.189 70.07,-8.189c7.204,-0 32.909,-3.72 57.128,-8.286c24.209,-4.566 50.155,-8.338 57.673,-8.403c36.277,-0.274 85.448,-12.171 95.413,-23.095c9.575,-10.482 9.584,-10.482 94.984,-8.741c46.975,0.946 107.067,1.692 133.53,1.653c26.467,-0.039 64.535,0.061 84.614,0.252c20.07,0.19 44.719,-0.052 54.748,-0.504c19.64,-0.92 51.919,-0.278 68.026,1.337c8.816,0.882 9.953,-0 9.953,-7.834c-0,-13.017 3.329,-14.305 16.298,-6.281c9.865,6.09 13.484,6.685 23.65,3.885c9.801,-2.713 14.253,-2.157 24.18,3c6.701,3.484 21.901,8.68 33.768,11.567c11.858,2.903 27.083,7.621 33.806,10.495c9.032,3.875 17.735,4.708 33.19,3.18c11.515,-1.149 36.806,-1.979 56.207,-1.866c41.664,0.239 57.835,-4.77 63.461,-19.679c2.295,-6.106 6.141,-9.762 10.507,-10.017c59.172,-3.264 100.635,-37.4 73.135,-60.218c-2.674,-2.218 -4.844,-6.61 -4.844,-9.762c-0,-3.154 -4.476,-11.87 -9.926,-19.388c-5.435,-7.517 -10.86,-20.069 -12.045,-27.877c-1.199,-7.821 -6.875,-20.929 -12.626,-29.141c-26.125,-37.335 -26.744,-39.518 -14.822,-51.815c36.024,-37.175 -5.59,-114.097 -61.733,-114.097c-16.979,-0 -21.128,-3.594 -50.078,-43.442c-8.489,-11.693 -20.79,-26.867 -27.322,-33.716c-11.897,-12.439 -11.909,-12.439 0.59,-12.439c48.829,-0 33.72,-76.694 -16.649,-84.524c-11.893,-1.844 -19.601,-4.922 -35.973,-14.357c-3.646,-2.093 -12.226,-6.016 -19.075,-8.716c-10.256,-4.024 -12.436,-6.52 -12.436,-14.179c0,-38.99 -33.654,-100.835 -57.231,-105.188c-6.836,-1.259 -34.927,-14.809 -62.44,-30.109c-56.875,-31.624 -64.923,-34.927 -84.702,-34.927c-29.127,-0 -46.583,-16.462 -42.711,-40.291c1.753,-10.772 0.428,-13.863 -12.349,-28.646c-7.895,-9.106 -21.797,-26.059 -30.917,-37.678c-20.702,-26.324 -38.259,-43.898 -60.951,-60.964c-9.7,-7.304 -22.025,-19.575 -27.386,-27.283c-15.49,-22.24 -171.26,-162.797 -212.762,-191.998c-14.115,-9.927 -27.861,-21.42 -30.548,-25.53c-2.699,-4.115 -13.563,-12.604 -24.132,-18.859c-10.559,-6.271 -19.64,-11.67 -20.182,-11.996c-0.546,-0.343 2.005,-6.397 5.651,-13.447c10.255,-19.879 11.466,-89.749 1.779,-102.791c-14.57,-19.579 -57.596,-34.349 -100.357,-34.462c-7.846,-0.026 -18.732,-2.348 -24.196,-5.173c-5.461,-2.826 -21.455,-6.482 -35.521,-8.135c-14.063,-1.64 -30.778,-3.949 -37.159,-5.108c-20.195,-3.698 -77.326,-28.598 -94.57,-41.237c-9.132,-6.672 -18.316,-13.156 -20.395,-14.393c-8.551,-5.083 -54.961,-12.904 -88.994,-14.996c-34.852,-2.144 -36.428,-2.574 -38.23,-10.23c-1.024,-4.379 -4.453,-9.236 -7.608,-10.773c-3.152,-1.54 -8.325,-4.088 -11.502,-5.638c-3.181,-1.566 -6.827,-7.165 -8.073,-12.452c-1.263,-5.283 -5.287,-21.545 -8.958,-36.15c-3.681,-14.596 -7.518,-32.518 -8.515,-39.823c-4.554,-33.251 -7.948,-45.877 -13.017,-48.715c-2.991,-1.68 -5.435,-5.577 -5.435,-8.681c0,-3.112 -4.518,-14.227 -10.043,-24.709c-9.058,-17.154 -13.359,-38.26 -43.239,-211.6c-18.254,-105.907 -34.449,-195.882 -35.976,-199.945c-1.528,-4.075 -3.859,-17.86 -5.196,-30.638c-1.327,-12.768 -4.518,-28.256 -7.066,-34.414c-2.56,-6.155 -4.653,-13.824 -4.653,-17.04c0,-3.217 -2.096,-9.865 -4.643,-14.771c-2.726,-5.247 -3.937,-14.014 -2.952,-21.28c1.337,-10.04 -0.039,-14.38 -7.366,-23.073c-6.18,-7.352 -9.891,-16.675 -11.77,-29.705c-2.826,-19.588 -11.138,-54.58 -17.105,-72.075c-4.566,-13.373 -12.536,-66.376 -15.313,-101.555c-2.409,-30.803 -5.196,-35.915 -37.501,-68.737c-6.623,-6.723 -13.003,-16.294 -14.166,-21.277c-1.159,-4.996 -6.345,-13.953 -11.528,-19.918c-5.186,-5.967 -11.341,-14.509 -13.698,-18.984c-3.33,-6.332 -134.554,-190.613 -200.956,-282.203c-18.303,-25.239 -25.556,-30.399 -43.972,-31.232c-18.377,-0.821 -7.214,8.137 -138.326,-110.952c-30.286,-27.5 -58.312,-50.143 -66.376,-53.598c-26.893,-11.528 -18.416,-41.802 17.851,-63.651c41.108,-24.774 42.583,-28.733 21.936,-59.501c-42.309,-63.069 -62.504,-71.455 -122.939,-51.06c-50.304,16.979 -53.317,17.431 -56.22,8.299c-1.159,-3.646 -3.216,-6.633 -4.566,-6.633c-9.888,0 -17.092,-14.279 -15.035,-29.821c1.866,-14.05 0.846,-18.377 -7.947,-33.794c-15.881,-27.864 -37.149,-83.781 -37.149,-97.605c0,-8.164 -2.447,-15.139 -6.936,-19.918c-11.128,-11.845 -11.819,-30.703 -1.627,-44.327c4.704,-6.281 8.563,-13.95 8.563,-17.053c0,-3.091 5.89,-12.778 13.108,-21.507c22.778,-27.574 31.962,-49.158 36.176,-85.018c6.346,-53.902 1.224,-58.251 -68.733,-58.39c-52.426,-0.104 -51.428,0.529 -51.024,-32.948c0.177,-14.205 -1.793,-34.045 -4.379,-44.088c-6.446,-25 -11.78,-68.242 -9.246,-74.84c2.183,-5.686 -3.532,-45.383 -9.157,-63.534c-2.774,-8.971 -2.258,-11.693 3.481,-17.434c5.225,-5.209 6.813,-11.064 6.813,-25.227c0,-25.404 6.068,-47.669 16.285,-59.792c4.731,-5.625 13.081,-15.968 18.555,-23.007c5.473,-7.04 15.729,-18.72 22.782,-25.96c13.95,-14.328 22.023,-30.335 22.023,-43.694c0,-14.102 7.982,-28.911 30.852,-57.257c18.089,-22.401 22.1,-29.641 23.753,-42.913c1.099,-8.777 5.274,-21.936 9.31,-29.237c7.835,-14.205 13.169,-98.151 6.901,-108.72c-9.726,-16.411 -38.715,-36.167 -49.965,-34.046c-24.584,4.602 -37.743,-19.591 -18.772,-34.526c4.822,-3.785 10.786,-6.875 13.26,-6.875c2.46,-0 8.212,-5.916 12.765,-13.13c4.566,-7.227 16.146,-18.971 25.746,-26.098c9.61,-7.127 25.895,-21.759 36.189,-32.496c10.292,-10.746 22.618,-22.766 27.371,-26.741c5.148,-4.288 8.68,-10.621 8.68,-15.603c0,-5.448 3.152,-10.482 8.993,-14.354c52.375,-34.701 61.633,-66.702 22.957,-79.241c-9.371,-3.029 -18.278,-6.675 -19.818,-8.073c-5.07,-4.644 7.947,-19.856 16.992,-19.856c17.635,-0 35.082,-15.097 70.326,-60.812c34.523,-44.767 34.523,-44.767 52.384,-46.998c32.786,-4.101 42.622,-19.592 36.922,-58.103c-0.985,-6.658 15.503,-29.844 83.352,-117.233c46.523,-59.917 94.948,-122.396 107.6,-138.842c12.639,-16.449 26.376,-31.197 30.513,-32.773c12.539,-4.766 18.832,-17.683 16.472,-33.816c-4.198,-28.824 -4.024,-30.677 3.206,-31.714c3.746,-0.529 9.572,2.083 12.952,5.816c14.206,15.703 64.836,-33.555 64.836,-63.07c0,-2.247 5.842,-10.433 13.008,-18.202c15.287,-16.576 20.521,-32.493 17.912,-54.558c-2.222,-18.755 5.07,-22.501 35.534,-18.312c22.488,3.09 31.229,-6.007 47.844,-49.788c6.923,-18.255 21.406,-51.645 32.166,-74.21c10.772,-22.553 21.028,-47.492 22.804,-55.413c1.779,-7.922 5.399,-19.337 8.05,-25.356c2.636,-6.016 7.405,-19.891 10.595,-30.851c3.204,-10.951 9.032,-27.374 12.992,-36.494c5.464,-12.625 7.643,-25.985 9.07,-55.855c1.654,-34.449 2.878,-40.769 10.053,-51.441c8.047,-11.98 13.876,-28.911 23.789,-69.046c6.41,-25.95 6.41,-34.362 -0.048,-34.362c-9.361,-0 -8.945,-9.714 0.946,-22.34c18.225,-23.26 35.634,-60.76 40.769,-87.818c1.789,-9.461 5.373,-20.434 7.96,-24.384c2.583,-3.949 5.751,-12.991 7.036,-20.108c1.288,-7.114 3.898,-15.917 5.803,-19.562c1.905,-3.645 3.823,-11.128 4.275,-16.602c0.911,-11.214 6.71,-34.071 13.056,-51.428c2.335,-6.38 5.903,-24.305 7.921,-39.822c2.018,-15.5 5.273,-36.415 7.23,-46.442c14.532,-74.64 -2.183,-110.968 -37.426,-81.311c-14.644,12.322 -22.617,11.112 -22.617,-3.432c-0,-6.446 -2.461,-15.491 -5.474,-20.08c-7.382,-11.266 -1.856,-17.535 10.508,-11.896c22.843,10.407 46.455,2.851 73.564,-23.525c9.471,-9.209 23.803,-20.625 31.85,-25.369c47.73,-28.103 56.246,-34.232 64.509,-46.506c8.638,-12.817 10.104,-40.453 3.959,-74.914c-5.486,-30.881 -9.484,-65.986 -12.539,-110.158c-3.746,-54.318 -39.267,-85.425 -80.93,-70.903c-35.459,12.362 -38.081,8.412 -36.606,-55.365c0.743,-32.404 2.6,-61.897 4.124,-65.542c9.713,-23.387 16.31,-49.988 18.064,-72.996c1.124,-14.609 3.733,-35.509 5.816,-46.459c2.079,-10.95 3.429,-35.078 3,-53.611c-0.426,-18.542 0.772,-36.58 2.651,-40.1c1.879,-3.516 6.558,-35.395 10.382,-70.826c3.82,-35.434 8.512,-74.132 10.443,-85.99c1.931,-11.87 4.869,-35.004 6.532,-51.441c6.158,-60.786 8.82,-79.858 12.4,-88.751c2.006,-5.009 3.369,-17.699 3.03,-28.194c-0.495,-14.771 2.951,-30.564 15.261,-69.754c16.184,-51.528 17.156,-61.077 8.06,-79.493c-2.787,-5.664 -1.928,-16.449 3.71,-46.458c4.024,-21.494 8.047,-43.556 8.942,-49.032c0.885,-5.474 6.939,-41.815 13.472,-80.744c11.554,-69.024 11.719,-71.102 6.158,-83.429c-5.993,-13.294 -5.238,-20.483 4.149,-38.889c5.071,-9.939 4.819,-16.814 -4.139,-110.548c-10.608,-111.017 -11.173,-92.222 6.952,-231.569c7.996,-61.429 0.895,-83.19 -33.303,-102.084c-5.408,-2.977 -6.987,-10.191 -10.582,-48.112c-14.405,-151.998 -14.96,-156.021 -24.509,-178.613c-5.096,-12.071 -10.973,-30.325 -13.069,-40.578c-2.092,-10.243 -7.479,-23.589 -11.957,-29.67c-4.489,-6.08 -8.173,-14.127 -8.173,-17.873c-0,-3.759 -4.479,-15.794 -9.94,-26.741c-5.464,-10.95 -9.939,-21.51 -9.939,-23.476c-0,-4.896 -12.73,-16.107 -25.734,-22.679c-6.723,-3.394 -10.785,-7.934 -10.785,-12.048c-0,-13.295 -20.486,-30.626 -41.55,-30.626c-21.077,-0.013 -25.404,7.57 -71.32,133.634l-0.013,0Zm137.063,199.147c6.839,-0.061 6.975,0.317 11.948,32.431c3.203,20.703 2.974,25.685 -1.553,34.449c-5.109,9.865 -5.057,14.509 0.468,41.437c1.815,8.871 0.82,11.367 -6.423,16.111c-5.525,3.62 -10.543,11.906 -14.153,23.359c-3.582,11.354 -12.649,26.364 -25.175,41.702c-20.208,24.736 -28.724,39.08 -35.36,59.601c-2.106,6.55 -8.234,16.12 -13.621,21.281c-5.741,5.486 -12.651,18 -16.727,30.248c-4.44,13.333 -13.181,28.597 -24.154,42.195c-9.462,11.72 -23.173,29.225 -30.477,38.912c-7.305,9.688 -19.311,24.436 -26.68,32.774c-7.366,8.337 -17.521,20.763 -22.566,27.612c-14.466,19.64 -16.888,17.796 -20.347,-15.416c-2.938,-28.178 68.911,-186.637 88.274,-194.645c21.961,-9.107 29.127,-21.355 89.245,-152.467c34.852,-75.999 36.932,-79.493 47.301,-79.584Zm32.734,431.314c5.096,-0 -4.83,131.35 -10.911,144.355c-8.06,17.244 -62.779,87.427 -76.251,97.809c-8.351,6.419 -30.49,25.126 -49.206,41.55c-46.372,40.694 -45.374,40.038 -49.501,32.343c-15.487,-28.963 13.676,-105.681 42.374,-111.42c15.073,-3.016 23.56,-14.28 23.56,-31.272c-0,-16.536 3.533,-24.797 16.653,-38.976c5.07,-5.473 15.513,-20.408 23.208,-33.174c15.429,-25.581 75.256,-101.215 80.074,-101.215Zm-20.36,383.301c6.485,4.063 6.472,37.892 0,53.069c-3.646,8.526 -7.543,23.954 -8.651,34.284c-4.518,42.106 -16.74,70.5 -44.288,102.88c-22.566,26.514 -44.124,34.513 -34.158,12.651c1.788,-3.923 6.445,-14.027 10.343,-22.439c8.312,-17.938 8.954,-29.076 2.205,-37.995c-8.815,-11.654 13.815,-68.556 31.649,-79.593c1.78,-1.098 7.76,-10.469 13.295,-20.825c13.22,-24.761 26.654,-43.81 29.605,-42.032Zm-41.107,331.08c2.925,2.929 -5.148,54.18 -11.215,71.22c-5.135,14.418 -11.78,18.242 -15.375,8.855c-3.167,-8.248 -2.36,-43.921 1.047,-46.03c1.676,-1.033 3.997,-6.167 5.144,-11.389c2.196,-9.991 16.827,-26.224 20.399,-22.656Zm-1401.95,1507.26c18.594,-4.501 39.887,19.566 67.826,75.053c8.024,15.92 20.751,33.038 37.869,50.912c29.883,31.207 38.043,45.512 44.944,78.799c2.747,13.271 7.821,34.587 11.263,47.365c15.981,59.311 15.742,66.68 -2.244,70.064c-15.226,2.845 -45.725,16.182 -56.588,24.723c-4.719,3.707 -13.321,6.416 -20.409,6.416c-8.78,-0 -14.454,2.348 -20.044,8.299c-4.288,4.56 -9.8,8.293 -12.248,8.293c-6.936,0 -75.469,35.227 -80.643,41.459c-8.425,10.153 -8.463,42.774 -0.048,56.372c4.062,6.559 6.597,14.493 5.638,17.609c-0.959,3.129 -3.203,10.33 -4.97,16.02c-2.309,7.379 -2.031,13.081 0.985,19.905c5.712,12.943 18.29,58.881 18.29,66.841c0,8.16 -8.819,15.855 -21.558,18.807c-9.952,2.321 -28.181,13.246 -45.903,27.525c-6.558,5.296 -13.737,7.557 -23.941,7.557c-11.505,-0 -16.966,2.131 -26.072,10.126c-11.416,10.017 -56.285,33.542 -84.718,44.415c-8.086,3.09 -19.033,9.258 -24.306,13.698c-10.092,8.477 -14.254,9.826 -16.967,5.438c-2.005,-3.242 25.543,-32.948 40.026,-43.152c5.813,-4.101 14.671,-15.819 19.663,-26.037c9.726,-19.866 23.437,-30.99 38.208,-31.016c17.421,-0.039 25.962,-37.326 12.477,-54.467c-9.145,-11.631 -16.11,-40.504 -16.184,-67.083c-0.026,-11.177 -2.358,-26.854 -5.183,-34.84c-2.826,-7.986 -6.423,-22.73 -8.012,-32.767c-1.589,-10.032 -8.49,-33.18 -15.339,-51.427c-13.017,-34.714 -13.346,-37.64 -10.759,-95.403c1.424,-31.585 0.907,-36.304 -4.466,-41.16c-15.539,-14.066 44.366,-104.015 69.276,-104.015c2.273,-0 6.319,-4.215 8.983,-9.375c5.27,-10.191 14.832,-20.27 42.245,-44.514c33.173,-29.341 50.933,-47.479 65.048,-66.499c5.751,-7.76 11.658,-12.439 17.861,-13.941Zm481.266,573.663c6.029,-0.633 9.423,0 9.423,2.206c-0,19.388 -6.536,24.813 -39.823,33.025c-8.211,2.031 -23.224,8.728 -33.354,14.883c-10.127,6.168 -32.253,15.807 -49.168,21.419c-50.911,16.915 -61.545,23.715 -86.645,55.387c-1.654,2.096 -10.699,4.87 -20.083,6.159c-39.961,5.499 -83.794,33.199 -87.921,55.564c-1.259,6.849 -3.494,12.448 -4.944,12.448c-1.45,0 -10.621,6.459 -20.37,14.354c-9.752,7.912 -28.685,20.968 -42.082,29.041c-13.382,8.073 -29.163,17.657 -35.053,21.302c-23.299,14.445 -45.803,32.899 -62.479,51.215c-9.61,10.57 -22.3,21.681 -28.178,24.697c-5.89,3.016 -38.737,33.959 -73.012,68.786c-61.68,62.665 -99.449,96.646 -118.695,106.763c-5.477,2.877 -23.402,18.897 -39.826,35.586c-16.42,16.701 -36.58,33.841 -44.792,38.107c-8.221,4.263 -20.17,13.23 -26.55,19.931c-6.385,6.697 -20.283,17.279 -30.881,23.525c-22.956,13.52 -22.491,13.472 -34.624,3.251c-5.286,-4.44 -13.711,-9.106 -18.745,-10.365c-11.857,-2.978 -15.3,-12.604 -15.3,-42.778c0,-15.083 -1.879,-27.887 -4.96,-33.79c-2.722,-5.224 -5.018,-12.49 -5.096,-16.146c-0.074,-3.645 -2.27,-10.369 -4.866,-14.922c-12.781,-22.352 -5.854,-36.254 24.875,-49.926c10.039,-4.466 61.555,-36.532 114.484,-71.246c52.927,-34.727 123.691,-81.02 157.272,-102.879c33.564,-21.874 71.484,-49.184 84.262,-60.699c27.713,-24.978 62.514,-43.455 86.442,-45.89c22.265,-2.257 34.701,-7.114 37.023,-14.431c1.285,-4.075 12.361,-9.184 35.773,-16.511c50.999,-15.968 89.019,-30.577 101.568,-39.015c6.193,-4.15 13.346,-7.557 15.907,-7.557c2.561,0 11.718,-6.61 20.36,-14.683c27.738,-25.946 197.94,-92.422 240.058,-96.811Zm-162.445,380.273c9.727,-0 -38.081,49.271 -60.408,62.253c-8.212,4.779 -19.249,12.222 -24.536,16.536c-5.273,4.314 -17.23,11.667 -26.55,16.32c-29.544,14.748 -47.569,38.26 -35.195,45.916c10.66,6.585 -11.137,30.387 -42.205,46.107c-5.878,2.964 -12.223,8.247 -14.089,11.741c-1.87,3.494 -12.123,11.658 -22.795,18.138c-10.66,6.472 -26.806,19.088 -35.886,28.017c-9.071,8.932 -20.538,18.368 -25.482,20.954c-8.425,4.414 -18.984,13.421 -69.744,59.485c-11.224,10.195 -24.154,21.003 -28.707,24.019c-13.876,9.184 -79.345,68.808 -102.579,93.433c-12.022,12.727 -38.282,40.539 -58.364,61.794c-20.07,21.255 -42.471,46.359 -49.775,55.794c-7.292,9.432 -23.728,25.152 -36.493,34.953c-12.778,9.788 -29.896,24.658 -38.031,33.048c-18.277,18.832 -22.113,18.984 -26.857,1.136c-2.054,-7.76 -6.597,-22.643 -10.078,-33.073c-3.481,-10.447 -6.381,-22.391 -6.432,-26.554c-0.052,-4.162 -4.541,-16.498 -9.966,-27.4c-19.792,-39.845 1.88,-88.018 39.622,-88.018c11.416,0 14.141,-1.414 18.352,-9.548c7.191,-13.902 23.398,-26.351 50.317,-38.612c13.017,-5.929 24.7,-12.439 25.934,-14.457c1.249,-2.005 16.159,-13.346 33.151,-25.191c16.979,-11.832 43.407,-32.922 58.732,-46.859c15.313,-13.927 33.074,-28.71 39.455,-32.834c6.396,-4.127 14.609,-10.889 18.254,-15.039c9.852,-11.176 44.337,-26.502 59.727,-26.537c10.23,-0.039 16.702,-2.777 28.204,-11.97c8.225,-6.575 23.06,-17.17 32.973,-23.551c9.927,-6.384 26.351,-19.492 36.507,-29.128c32.201,-30.551 66.992,-54.783 78.659,-54.783c19.149,0 50.356,-19.652 89.119,-56.133c32.254,-30.348 97.458,-69.957 115.166,-69.957Zm-75.017,349.751c16.35,6.267 32.04,49.888 22.947,63.776c-16.298,24.874 -65.821,55.968 -104.571,65.682c-11.871,2.964 -28.294,8.841 -36.506,13.043c-8.212,4.201 -24.636,12.587 -36.503,18.616c-11.858,6.045 -27.878,16.766 -35.612,23.828c-7.717,7.066 -22.097,16.411 -31.923,20.764c-9.84,4.353 -18.846,9.474 -20.031,11.376c-2.422,3.924 -35.963,26.289 -68.381,45.59c-11.871,7.075 -29.783,19.727 -39.823,28.13c-10.043,8.412 -34.943,26.098 -55.352,39.302c-20.395,13.22 -38.927,26.24 -41.159,28.927c-5.586,6.733 -29.579,25.556 -29.579,23.195c-0,-9.461 77.4,-86.481 119.415,-118.824c19.25,-14.822 45.135,-43.53 75.496,-83.756c12.339,-16.349 28.672,-34.261 36.302,-39.809c30.426,-22.152 73.364,-48.212 90.405,-54.861c9.904,-3.872 23.337,-11.212 29.86,-16.32c18.012,-14.092 120.514,-70.387 125.015,-68.659Zm197.31,44.553c7.214,-1.476 15.39,-1.741 19.211,0.304c17.308,9.257 8.931,29.11 -20.244,47.995c-10.495,6.797 -19.075,14.279 -19.075,16.636c-0,2.361 -2.735,6.763 -6.064,9.779c-10.018,9.067 -20.525,4.311 -20.448,-9.275c0.036,-10.165 14.819,-38.898 24.571,-47.792c4.718,-4.301 8.577,-9.096 8.577,-10.659c-0,-2.826 6.258,-5.513 13.472,-6.988Zm-189.576,163.161c10.95,0 2.183,68.117 -9.51,73.955c-4.705,2.348 -9.248,8.502 -10.863,14.735c-1.524,5.89 -6.471,14.406 -10.999,18.933c-4.514,4.517 -8.211,10.585 -8.211,13.485c-0,2.9 -12.401,17.748 -27.549,32.999c-15.138,15.248 -31.94,35.899 -37.326,45.89c-5.386,9.991 -26.211,36.403 -46.294,58.681c-20.066,22.275 -38.243,43.743 -40.378,47.705c-5.334,9.878 -40.665,45.89 -51.008,51.996c-14.544,8.577 -265.892,266.535 -270.735,277.849c-2.839,6.646 -7.747,11.516 -12.93,12.814c-4.605,1.15 -10.191,4.669 -12.439,7.821c-2.231,3.142 -8.538,7.821 -14.015,10.421c-5.473,2.586 -11.415,8.021 -13.204,12.096c-1.792,4.063 -7.026,8.703 -11.657,10.317c-13.889,4.844 -27.878,18.681 -49.888,49.372c-25.391,35.408 -25.33,35.347 -27.296,31.888c-0.872,-1.524 1.211,-26.667 4.653,-55.868c3.598,-30.6 5.399,-61 4.253,-71.759c-2.018,-18.933 142.892,-188.165 166.113,-193.991c4.136,-1.036 28.103,-25.003 53.256,-53.259c25.152,-28.243 50.343,-53.721 55.981,-56.611c5.638,-2.874 15.138,-9.497 21.128,-14.718c5.981,-5.212 16.754,-12.478 23.942,-16.137c15.025,-7.669 20.902,-16.524 18.19,-27.37c-2.461,-9.788 11.58,-23.716 29.947,-29.706c10.001,-3.255 14.745,-7.343 19.272,-16.601c3.823,-7.808 14.657,-18.555 29.857,-29.592c44.653,-32.418 85.413,-77.198 90.23,-99.12c1.273,-5.791 6.546,-12.917 12.701,-17.183c5.789,-4.011 16.853,-13.004 24.587,-19.979c7.718,-6.975 21.91,-16.224 31.507,-20.535c9.613,-4.314 21.962,-12.664 27.439,-18.558c11.211,-12.07 35.847,-29.97 41.246,-29.97Zm-1253.05,36.406c3.81,-1.049 7.908,-0.898 12.17,0.543c5.677,1.892 11.658,6.042 17.7,12.574c6.545,7.078 13.533,13.398 15.529,14.067c2.483,0.829 2.015,5.751 -1.489,15.677c-2.803,7.973 -5.109,17.028 -5.109,20.157c0,3.116 -4.101,9.5 -9.122,14.179c-5.018,4.679 -12.865,14.848 -17.418,22.604c-4.567,7.757 -14.506,22.176 -22.088,32.028c-12.4,16.133 -13.485,19.019 -10.824,28.698c3.545,12.787 -0.301,28.455 -10.001,40.791c-3.772,4.795 -6.862,11.315 -6.862,14.47c-0,3.151 -3.103,9.674 -6.875,14.479c-9.991,12.691 -13.989,10.721 -5.942,-2.912c5.044,-8.554 6.394,-14.987 5.022,-24.068c-3.898,-25.859 -4.379,-45.789 -1.237,-51.97c1.792,-3.52 5.296,-19.198 7.795,-34.84c2.496,-15.642 6.129,-35.169 8.06,-43.381c1.931,-8.212 4.779,-22.717 6.333,-32.24c3.859,-23.615 12.891,-37.691 24.358,-40.856Zm1248.67,192.78c1.063,-1.037 0.885,36.945 -0.39,84.401c-2.332,86.265 -2.345,86.265 6.08,98.526c16.601,24.157 3.459,62.401 -21.442,62.401c-2.548,-0 -10.156,3.749 -16.905,8.341c-6.749,4.576 -21.645,10.708 -33.125,13.608c-12.904,3.267 -79.971,34.878 -175.887,82.912c-85.274,42.713 -155.822,77.64 -156.794,77.64c-4.908,-0 -0.252,-7.556 13.13,-21.342c8.199,-8.428 17.144,-19.679 19.895,-24.991c2.748,-5.321 8.199,-11.905 12.11,-14.644c3.907,-2.735 11.211,-11.189 16.233,-18.768c14.657,-22.14 39.619,-48.906 47.453,-50.886c3.975,-0.997 18.416,-15.477 32.114,-32.179c13.689,-16.701 28.876,-33.212 33.771,-36.693c12.739,-9.084 32.566,-37.274 32.705,-46.484c0.139,-10.065 10.711,-22.792 18.923,-22.792c11.112,0 64.306,-43.394 79.467,-64.826c3.911,-5.534 10.989,-12.145 15.717,-14.667c4.731,-2.538 13.007,-11.441 18.406,-19.791c5.387,-8.351 20.331,-24.8 33.213,-36.532c12.865,-11.745 24.267,-22.201 25.326,-23.234Zm189.315,246.338c33.351,4.641 42.683,9.436 37.436,19.25c-3.681,6.888 -3.998,6.914 -28.017,2.496c-28.543,-5.261 -37.361,-25.617 -9.419,-21.746Zm-180.8,52.688c11.025,1.059 11.025,1.049 11.984,37.275c1.098,42.005 2.005,40.442 -27.07,46.536c-12.297,2.57 -27.132,8.199 -32.973,12.5c-5.826,4.314 -14.719,9.623 -19.754,11.806c-5.031,2.196 -11.654,9.232 -14.705,15.652c-3.546,7.417 -10.486,14.179 -19.062,18.558c-7.418,3.772 -20.208,11.186 -28.42,16.472c-8.212,5.286 -20.599,12.703 -27.51,16.488c-6.926,3.785 -21.154,15.465 -31.636,25.934c-20.586,20.599 -47.783,40.413 -55.465,40.413c-2.622,0 -12.904,7.092 -22.856,15.755c-33.49,29.189 -49.814,42.613 -97.544,80.139c-26.15,20.56 -55.274,44.753 -64.71,53.76c-9.449,9.006 -22.391,21.332 -28.785,27.374c-40,37.878 -139.601,111.559 -145.665,107.774c-16.502,-10.308 -95.817,40.678 -119.91,77.071c-4.97,7.505 -14.709,17.622 -21.646,22.491c-6.939,4.857 -17.937,13.686 -24.461,19.614c-19.866,18.052 -21.303,15.339 -14.644,-27.561c7.656,-49.219 27.145,-85.108 44.718,-82.305c21.316,3.416 68.62,-53.269 54.341,-65.127c-6.371,-5.286 -2.965,-10.837 5.082,-8.276c4.14,1.311 7.634,-0.303 10.469,-4.844c2.348,-3.746 5.768,-6.823 7.609,-6.823c5.916,-0 31.875,-32.847 42.673,-53.989c15.917,-31.181 175.614,-198.192 189.486,-198.192c3.268,0 14.331,-4.995 24.613,-11.098c29.15,-17.335 67.396,-35.712 71.433,-34.349c2.005,0.681 -1.327,3.82 -7.431,6.988c-12.426,6.445 -33.706,47.453 -33.706,64.948c0,36.293 50.408,19.111 81.147,-27.648c8.641,-13.146 19.326,-24.206 30.008,-31.055c20.725,-13.272 47.557,-40.204 48.816,-48.981c0.733,-5.021 5.109,-7.53 18.281,-10.446c9.523,-2.105 22.061,-7.821 27.852,-12.687c5.789,-4.883 17.634,-12.465 26.311,-16.867c8.677,-4.391 22.54,-12.564 30.816,-18.138c8.264,-5.577 23.311,-13.94 33.451,-18.581c10.13,-4.63 19.275,-9.8 20.309,-11.493c5.512,-8.918 48.124,-30.082 58.554,-29.088Zm-1431.27,190.006c6.255,2.838 -6.497,45.577 -19.831,60.195c-3.468,3.798 -8.376,16.763 -10.898,28.798c-2.509,12.045 -5.651,23.625 -6.962,25.756c-2.322,3.772 -22.279,78.021 -28.069,104.445c-3.633,16.637 -12.248,42.874 -19.058,58.077c-9.436,21.09 -17.674,44.45 -24.51,69.654c-3.72,13.685 -10.304,31.597 -14.657,39.822c-10.808,20.486 -18.177,39.445 -18.177,46.772c-0,3.355 -4.224,11.011 -9.385,17.018c-5.159,5.99 -14.14,20.599 -19.956,32.456c-5.812,11.867 -12.674,25.301 -15.235,29.87c-2.561,4.566 -9.474,18 -15.339,29.857c-12.135,24.52 -14.305,27.562 -17.421,24.446c-4.566,-4.58 2.27,-30.023 12.816,-47.67c5.99,-10.04 11.932,-24.962 13.208,-33.173c1.285,-8.225 5.031,-22.404 8.351,-31.524c3.316,-9.132 7.656,-22.882 9.648,-30.551c1.98,-7.67 7.292,-18.316 11.767,-23.638c4.492,-5.338 9.879,-17.722 11.971,-27.525c2.109,-9.814 6.61,-23.044 10.017,-29.402c3.407,-6.371 6.194,-13.612 6.194,-16.095c-0,-5.06 7.191,-22.707 16.523,-40.581c3.407,-6.497 7.922,-21.432 10.053,-33.173c3.71,-20.461 16.324,-52.336 24.865,-62.844c2.231,-2.738 4.944,-9.713 6.029,-15.49c1.097,-5.79 5.777,-18.39 10.417,-28.004c4.631,-9.613 8.428,-20.095 8.428,-23.298c0,-3.204 1.386,-6.672 3.065,-7.709c1.689,-1.046 5.586,-9.723 8.667,-19.284c3.09,-9.562 9.167,-23.615 13.534,-31.246c4.353,-7.617 7.921,-15.616 7.921,-17.76c-0,-2.157 3.733,-8.351 8.299,-13.776c4.556,-5.422 8.289,-14.037 8.289,-19.146c-0,-5.121 2.483,-11.354 5.525,-13.85c1.728,-1.427 3.003,-1.831 3.911,-1.427Zm1507.64,27.057c9.561,0.63 16.61,2.409 19.272,5.564c2.738,3.229 12.3,8.477 21.244,11.641c17.406,6.194 18.391,7.331 26.88,31.472c3.065,8.706 10.795,23.438 17.205,32.747c15.035,21.849 35.609,8.629 -251.147,161.524c-15.513,8.261 -32.683,18.352 -38.156,22.401c-5.474,4.05 -55.5,29.202 -111.168,55.907c-103.234,49.52 -114.75,56.837 -111.282,70.674c1.415,5.613 0.33,8.251 -3.945,9.562c-23.399,7.191 -53.082,24.445 -97.141,56.45c-15.516,11.263 -33.429,22.704 -39.81,25.404c-6.396,2.699 -19.439,12.461 -28.988,21.697c-9.549,9.219 -20.625,17.808 -24.622,19.084c-7.166,2.27 -23.842,12.336 -65.86,39.719c-11.854,7.734 -25.291,15.152 -29.857,16.488c-4.566,1.324 -13.52,7.341 -19.918,13.347c-13.204,12.435 -35.191,24.848 -43.984,24.848c-3.265,0 -12.249,5.79 -19.967,12.856c-8.957,8.212 -20.599,14.744 -32.269,18.112c-10.04,2.887 -24.355,9.749 -31.824,15.252c-16.549,12.184 -46.684,28.265 -58.516,31.242c-4.782,1.198 -13.143,5.916 -18.555,10.473c-5.425,4.566 -11.341,8.298 -13.143,8.298c-10.359,0 -63.789,53.825 -63.789,64.268c-0,5.929 -1.87,13.007 -4.153,15.729c-11.867,14.154 -14.744,13.789 -18.832,-2.422c-3.682,-14.657 -3.443,-15.942 4.566,-24.306c4.656,-4.857 8.467,-10.859 8.467,-13.333c-0,-17.799 27.192,-44.414 49.18,-48.134c10.86,-1.831 15.768,-4.896 21.646,-13.56c4.188,-6.158 12.79,-15.351 19.123,-20.437c19.917,-15.969 72.644,-68.708 72.644,-72.644c-0,-5.083 43.568,-43.53 68.029,-60.028c22.388,-15.112 48.322,-37.2 81.295,-69.24c38.45,-37.375 80.29,-74.385 84.124,-74.41c1.563,-0.039 10.52,-6.962 19.917,-15.439c9.384,-8.477 21.71,-17.383 27.387,-19.766c6.077,-2.561 12.045,-8.502 14.506,-14.431c3.138,-7.57 7.43,-10.96 17.292,-13.611c10.043,-2.7 13.928,-5.826 16.524,-13.308c2.348,-6.736 8.198,-12.148 18.845,-17.431c8.693,-4.327 17.322,-11.567 19.766,-16.601c2.387,-4.905 8.351,-11.012 13.272,-13.572c4.918,-2.548 12.235,-9.12 16.272,-14.596c4.024,-5.487 24.545,-21.429 45.6,-35.457c21.051,-14.015 39.128,-26.854 40.151,-28.52c1.033,-1.666 4.402,-3.065 7.492,-3.065c3.077,-0.026 14.063,-7.104 24.406,-15.755c45.325,-37.93 94.306,-75.079 117.249,-88.941c10.95,-6.611 23.021,-14.897 26.818,-18.404c3.798,-3.507 14.393,-9.019 23.538,-12.235c9.158,-3.229 21.303,-9.791 27.019,-14.596c5.702,-4.792 18.064,-10.369 27.461,-12.388c9.397,-2.018 21.015,-5.828 25.82,-8.45c23.842,-13.107 75.218,-21.571 103.916,-19.679Zm78.937,257.037c4.124,2.157 -27.096,31.385 -45.157,40.678c-5.716,2.942 -18.406,12.653 -28.207,21.598c-9.8,8.931 -26.072,21.305 -36.15,27.499c-10.079,6.181 -21.281,13.117 -24.888,15.4c-3.607,2.283 -9.904,5.6 -14.001,7.366c-4.089,1.779 -13.789,8.932 -21.559,15.92c-7.769,6.975 -18.607,15.477 -24.093,18.884c-5.473,3.404 -20.534,14.909 -33.464,25.556c-12.942,10.647 -25.013,19.362 -26.831,19.362c-1.828,0 -10.14,5.309 -18.478,11.806c-23.147,18.039 -38.485,24.7 -56.927,24.7c-10.056,0 -22.201,2.761 -31.107,7.076c-12.387,5.99 -17.47,6.658 -33.403,4.375c-35.369,-5.07 -61.328,-3.807 -71.633,3.484c-15.503,10.934 -29.708,17.91 -36.848,18.087c-3.694,0.087 -10.379,2.725 -14.858,5.854c-5.247,3.682 -14.883,5.791 -27.247,5.952c-10.518,0.126 -20.939,2.044 -23.135,4.253c-2.205,2.205 -6.306,4.011 -9.093,4.011c-5.186,-0 15.881,-19.728 43.998,-41.237c8.528,-6.52 22.591,-17.318 31.271,-23.977c8.664,-6.675 23.964,-15.729 34.007,-20.134c10.04,-4.402 21.971,-9.94 26.541,-12.31c4.566,-2.373 14.831,-5.312 22.817,-6.523c7.999,-1.224 20.812,-5.903 28.495,-10.404c7.695,-4.505 17.04,-8.189 20.776,-8.189c8.525,-0 61.707,-27.232 77.236,-39.545c17.67,-14.015 23.321,-16.459 158.078,-68.43c69.099,-26.654 127.502,-49.245 129.785,-50.23c2.17,-0.933 3.481,-1.185 4.075,-0.882Zm161.121,72.858c4.653,1.766 18.477,2.586 30.713,1.818c34.223,-2.132 48.702,2.861 70.842,24.419c10.456,10.181 24.709,23.589 31.671,29.795c12.653,11.29 12.665,11.29 -3.367,15.491c-8.803,2.309 -18.517,6.306 -21.568,8.893c-12.009,10.178 -41.589,22.388 -106.276,43.881c-59.537,19.779 -69.754,24.245 -86.139,37.591c-10.23,8.325 -29.101,20.235 -41.953,26.441c-12.843,6.216 -27.097,14.658 -31.65,18.768c-4.566,4.114 -13.524,9.523 -19.917,12.009c-6.385,2.484 -20.07,9.436 -30.426,15.452c-25.985,15.126 -30.248,14.367 -60.195,-10.62c-20.209,-16.866 -28.204,-21.572 -36.668,-21.572c-7.708,0 -13.585,-2.874 -20.373,-9.952c-5.247,-5.473 -12.803,-9.952 -16.801,-9.952c-20.599,-0 -12.21,-16.802 17.747,-35.483c4.957,-3.103 16.476,-11.819 25.595,-19.401c10.269,-8.515 24.193,-16.046 36.506,-19.766c10.947,-3.316 38.647,-15.351 61.542,-26.753c22.908,-11.39 49.032,-22.934 58.077,-25.634c19.223,-5.725 56.624,-23.424 64.406,-30.461c10.96,-9.926 69.05,-28.459 78.234,-24.964Zm231.769,189.679c10.633,-0.772 15.994,1.285 20.13,5.864c4.089,4.502 9.701,6.294 18.733,5.929c15.907,-0.63 20.269,3.481 22.691,21.419c1.528,11.364 3.42,14.393 9.943,15.917c16.724,3.949 3.113,23.286 -16.401,23.286c-4.992,-0 -10.899,2.17 -13.091,4.808c-2.196,2.648 -9.084,6.494 -15.326,8.551c-6.245,2.057 -11.353,5.208 -11.353,7.001c-0,1.779 -7.089,6.232 -15.769,9.891c-39.254,16.572 -70.096,33.616 -84.55,46.745c-8.641,7.847 -23.211,20.234 -32.369,27.536c-9.171,7.291 -19.779,19.617 -23.576,27.374c-4.224,8.602 -9.055,13.963 -12.436,13.75c-16.94,-1.059 -95.287,-34.537 -117.866,-50.369c-5.208,-3.659 -22.882,-9.346 -39.266,-12.64c-41.944,-8.412 -68.912,-29.908 -53.347,-42.521c3.594,-2.9 14.354,-11.629 23.916,-19.389c13.397,-10.859 20.182,-14.101 29.543,-14.101c19.792,-0 83.252,-13.434 110.032,-23.312c13.685,-5.044 33.099,-11.767 43.139,-14.948c10.03,-3.164 24.635,-8.538 32.443,-11.958c7.809,-3.403 17.509,-6.206 21.571,-6.206c4.05,-0 27.145,-5.234 51.316,-11.616c25.304,-6.674 41.233,-10.255 51.893,-11.011Zm-757.32,148.036c48.612,0.694 48.612,0.694 52.322,11.341c5.739,16.449 15.626,24.735 43.039,36.063c32.027,13.234 192.78,81.651 240.927,102.54c20.082,8.716 60.396,25.895 89.597,38.195c29.201,12.3 75.495,32.079 102.869,43.946c49.775,21.571 49.775,21.571 98.603,22.014c48.829,0.451 48.842,0.451 58.074,10.998c7.922,9.071 12.765,11.112 34.123,14.493c40.239,6.371 40.075,6.158 48.222,62.162c6.497,44.643 6.432,44.453 19.175,59.74c5.815,6.988 14.115,20.828 18.429,30.768c8.728,20.117 8.386,19.475 26.944,49.774c7.327,11.971 13.33,24.875 13.33,28.672c0,3.794 5.073,14.289 11.29,23.321c6.206,9.032 16.097,26.693 21.961,39.245c5.868,12.536 16.272,31.824 23.121,42.835c14.861,23.906 224.671,416.895 236.564,443.12c11.519,25.391 16.411,42.144 14.293,48.954c-3.129,10.065 8.641,19.614 29.479,23.903c13.672,2.815 17.974,17.812 10.469,36.544c-11.202,27.991 -7.656,176.495 4.553,190.397c12.488,14.227 12.426,15.426 -0.833,15.464c-5.925,0.026 -20.483,3.039 -32.353,6.737c-35.143,10.934 -53.334,13.749 -58.907,9.132c-3.885,-3.229 -5.69,-2.904 -9.045,1.688c-2.851,3.898 -15.742,7.886 -40.291,12.465c-19.853,3.707 -40.578,8.273 -46.051,10.166c-21.281,7.365 -60.573,16.284 -78.017,17.734c-10.056,0.833 -24.801,3.811 -32.774,6.623c-7.959,2.8 -18.706,5.109 -23.867,5.109c-5.156,-0 -12.8,1.337 -17.001,2.99c-4.189,1.641 -17.331,5.538 -29.189,8.667c-23.967,6.33 -70.729,21.568 -121.12,39.468c-18.252,6.471 -108.582,38.107 -200.753,70.299c-92.158,32.179 -188.478,65.947 -214.021,75.027c-25.556,9.094 -54.67,19.236 -64.71,22.553c-10.043,3.319 -39.154,13.459 -64.709,22.53c-44.114,15.678 -408.836,144.103 -482.803,170.023c-203.24,71.194 -285.167,99.576 -307.846,106.615c-17.508,5.448 -22.113,8.542 -29.05,19.54c-13.02,20.612 -63.941,44.35 -132.639,61.846c-10.947,2.786 -33.351,10.733 -49.774,17.66c-16.424,6.914 -33.113,13.547 -37.084,14.719c-3.972,1.175 -13.673,5.754 -21.572,10.169c-26.514,14.835 -42.131,21.545 -50.165,21.545c-10.343,-0 -29.102,6.332 -35.786,12.083c-2.874,2.487 -7.53,4.515 -10.343,4.515c-2.8,-0 -8.893,2.977 -13.534,6.636c-4.643,3.645 -11.024,6.636 -14.179,6.636c-3.165,-0 -13.03,4.475 -21.923,9.952c-8.906,5.474 -18.82,9.953 -22.023,9.953c-3.229,-0 -8.958,2.17 -12.743,4.83c-9.8,6.849 -34.384,14.974 -45.534,15.035c-8.529,0.039 -19.54,4.679 -50.256,21.194c-5.474,2.951 -11.593,5.373 -13.599,5.373c-1.992,0 -6.293,2.977 -9.561,6.584c-3.265,3.607 -7.253,5.739 -8.855,4.754c-1.601,-0.995 -10.733,2.625 -20.295,8.024c-9.562,5.4 -22.465,10.899 -28.698,12.21c-6.216,1.324 -18.907,7.24 -28.191,13.168c-9.296,5.929 -20.637,11.871 -25.191,13.208c-4.566,1.35 -21.354,7.517 -37.313,13.737c-15.955,6.206 -33.273,11.289 -38.473,11.289c-5.386,0 -12.17,2.99 -15.742,6.949c-6.103,6.736 -37.678,22.895 -54.48,27.878c-4.565,1.35 -18.755,7.656 -31.52,13.989c-12.781,6.345 -43.016,21.961 -67.196,34.726c-40.307,21.242 -66.579,26.351 -34.145,6.624c5.399,-3.294 13.017,-10.03 16.901,-14.974c3.898,-4.957 13.017,-12.032 20.283,-15.73c7.253,-3.707 19.553,-13.368 27.322,-21.48c11.871,-12.387 16.146,-14.748 26.754,-14.748c27.148,0 71.471,-27.018 71.471,-43.568c0,-2.231 5.374,-11.871 11.945,-21.419c21.797,-31.634 15.82,-66.16 -20.043,-115.861c-10.53,-14.592 -21.82,-31.772 -25.088,-38.156c-3.268,-6.384 -9.084,-14.457 -12.917,-17.938c-8.828,-7.982 -8.919,-20.156 -0.355,-50.088c4.718,-16.514 6.636,-33.251 6.675,-58.051c0.052,-52.284 13.924,-92.649 34.866,-101.442c12.548,-5.273 20.95,-14.431 26.25,-28.594c2.257,-6.055 9.584,-22.656 16.271,-36.91c6.698,-14.241 12.171,-27.309 12.171,-29.05c0,-1.727 2.978,-8.715 6.636,-15.529c3.646,-6.81 6.636,-14.292 6.636,-16.624c0,-2.335 1.424,-6.826 3.165,-10.004c1.74,-3.165 6.132,-12.852 9.765,-21.519c5.235,-12.513 8.221,-15.769 14.467,-15.769c11.78,0 22.378,-13.749 47.278,-61.38c12.4,-23.725 28.091,-53.582 34.866,-66.36c158.369,-298.626 219.659,-420.667 217.641,-433.28c-1.689,-10.582 -0.165,-16.866 8.06,-33.151c9.232,-18.277 9.775,-21.09 6.081,-31.32c-3.824,-10.559 -2.826,-14.14 16.449,-59.375c11.277,-26.463 20.509,-49.523 20.509,-51.212c-0,-1.692 2.435,-5.095 5.425,-7.582c2.99,-2.47 8.841,-9.913 13.017,-16.524c4.162,-6.61 18.077,-23.337 30.903,-37.174c12.83,-13.837 26.996,-32.34 31.462,-41.12c4.476,-8.781 18.681,-30.148 31.585,-47.492c12.891,-17.331 25.708,-36.164 28.469,-41.854c6.08,-12.526 11.114,-16.879 32.078,-27.738c10.821,-5.613 30.083,-23.186 58.277,-53.182c23.16,-24.632 72.163,-76.151 108.908,-114.485c36.732,-38.321 101.051,-105.63 142.905,-149.563c41.854,-43.936 135.817,-142.349 208.825,-218.691c72.999,-76.338 143.183,-149.867 155.96,-163.4c31.711,-33.593 41.538,-36.141 134.897,-34.804Zm-515.928,49.158c4.375,-1.415 7.731,-1.437 7.731,0.694c-0,4.401 -16.586,48.009 -19.789,52.058c-1.466,1.815 -6.068,12.791 -10.243,24.371c-4.175,11.579 -9.965,21.797 -12.842,22.691c-2.887,0.895 -10.673,4.492 -17.306,7.973c-6.636,3.494 -15.603,6.394 -19.917,6.432c-18.694,0.214 -168.778,106.703 -168.778,119.771c0,3.494 -34.878,19.692 -45.118,20.951c-9.422,1.163 -14.609,4.705 -14.609,9.992c0,2.422 -5.021,6.784 -11.163,9.7c-6.129,2.912 -13.03,7.556 -15.339,10.33c-2.295,2.774 -6.332,5.048 -8.967,5.048c-5.273,-0 2.622,-13.056 14.419,-23.855c3.367,-3.077 9.848,-9.474 14.415,-14.205c4.556,-4.74 16.136,-16.65 25.707,-26.476c9.587,-9.814 17.422,-19.298 17.422,-21.051c-0,-1.753 18.303,-17.925 40.655,-35.925c22.352,-18.012 47.908,-39.457 56.776,-47.669c8.88,-8.212 21.051,-17.925 27.08,-21.597c6.019,-3.669 19.956,-14.128 30.994,-23.26c37.009,-30.613 68.885,-54.315 78.673,-58.503c5.35,-2.283 12.703,-6.684 16.349,-9.775c4.088,-3.459 9.484,-6.271 13.85,-7.695Zm1404.61,47.288c-0.368,7.317 -65.646,56.576 -75.269,56.802c-5.008,0.116 -39.709,52.3 -44.666,67.17c-5.386,16.133 -6.762,16.588 -21.116,7.078c-56.185,-37.239 -71.775,-94.848 -26.037,-96.207c16.944,-0.507 60.538,-13.676 81.576,-24.648c8.78,-4.579 19.149,-6.41 36.493,-6.472c13.333,-0.038 29.831,-1.375 36.68,-2.964c6.84,-1.589 12.388,-1.931 12.339,-0.759Zm-1858.3,271.252c1.918,0.178 9.436,0.556 16.689,0.833c34.94,1.315 30.235,16.007 -21.459,66.867c-21.328,20.99 -41.588,43.62 -45.043,50.305c-4.089,7.934 -12.917,16.197 -25.43,23.805c-10.547,6.407 -22.795,15.487 -27.21,20.192c-24.961,26.58 -13.798,-14.428 12.566,-46.141c7.985,-9.598 13.775,-20.018 13.811,-24.888c0.077,-8.855 69.276,-91.615 76.076,-90.973Zm221.894,86.71c3.204,2.613 -11.731,18.517 -41.702,50.244c-22.352,23.663 -40.668,45.005 -40.668,47.439c-0.026,8.464 -12.539,24.888 -21.988,28.85c-5.612,2.371 -13.598,10.873 -19.475,20.774c-10.556,17.812 -38.915,50.217 -75.053,85.803c-12.096,11.893 -27.386,28.481 -33.993,36.87c-9.866,12.514 -16.628,17.028 -37.756,25.253c-15.517,6.042 -27.106,12.7 -29.189,16.762c-7.973,15.591 -21.493,22.705 -54.631,28.737c-6.381,1.159 -19.818,7.982 -29.857,15.174c-10.04,7.188 -26.78,17.04 -37.21,21.884c-12.778,5.942 -26.15,16.375 -40.998,31.979c-17.393,18.264 -27.41,25.591 -47.414,34.688c-13.954,6.332 -33.226,15.148 -42.852,19.575c-19.297,8.88 -23.98,9.778 -23.98,4.566c0,-5.56 9.019,-21.467 14.987,-26.424c3.016,-2.513 8.528,-11.037 12.248,-18.946c9.119,-19.414 17.418,-23.676 27.536,-14.166c12.464,11.706 37.274,-7.279 55.022,-42.093c3.155,-6.181 14.405,-20.99 25.013,-32.925c10.611,-11.932 21.029,-25.856 23.173,-30.942c2.144,-5.096 23.741,-26.273 48.008,-47.062c24.271,-20.786 50.937,-43.846 59.262,-51.237c8.325,-7.392 19.149,-15.956 24.067,-19.037c4.909,-3.077 13.534,-12.284 19.175,-20.482c5.739,-8.338 18.087,-19.666 28.078,-25.76c9.801,-5.99 32.734,-22.313 50.947,-36.302c43.672,-33.542 48.199,-36.268 122.154,-73.629c42.548,-21.494 63.893,-32.205 67.096,-29.593Zm2455.09,992.383c28.494,1.224 48.005,12.503 59.627,33.858c26.172,48.073 22.588,54.289 -31.84,55.174c-72.731,1.185 -140.987,7.14 -162.415,14.176c-11.645,3.837 -26.58,6.978 -33.177,7.014c-6.61,0.039 -20.977,2.222 -31.927,4.857c-12.388,3.003 -37.64,4.856 -66.854,4.934c-36.164,0.087 -51.754,1.563 -68.014,6.407c-11.592,3.455 -31.207,7.139 -43.568,8.173c-12.374,1.046 -29.353,4.934 -37.756,8.641c-11.479,5.083 -22.375,6.762 -43.884,6.797c-15.743,0.039 -36.82,2.248 -46.859,4.948c-10.043,2.686 -23.086,4.892 -29.001,4.931c-14.445,0.051 -70.423,18.215 -97.089,31.497c-23.477,11.693 -77.717,28.268 -92.488,28.268c-18.112,0 -71.155,20.787 -79.884,31.307c-6.132,7.379 -9.7,6.485 -14.292,-3.607c-3.468,-7.608 -3.177,-9.296 2.131,-12.451c3.381,-1.993 16.802,-11.264 29.809,-20.586c13.004,-9.333 29.618,-18.82 36.92,-21.103c7.304,-2.27 25.507,-10.656 40.468,-18.629c15.729,-8.39 36.932,-16.524 50.317,-19.314c12.713,-2.648 28.846,-8.577 35.847,-13.156c14.393,-9.41 83.807,-30.374 108.959,-32.909c32.848,-3.306 66.754,-9.474 86.898,-15.819c11.302,-3.556 28.472,-6.485 38.16,-6.485c21.432,-0.035 41.046,-5.131 53.42,-13.937c6.507,-4.63 15.842,-6.862 31.524,-7.556c14.492,-0.63 34.458,-5.044 57.127,-12.639c28.482,-9.536 41.198,-11.932 69.68,-13.143c30.108,-1.276 38.902,-3.077 64.71,-13.282c47.504,-18.797 84.956,-27.6 113.451,-26.366Zm256.569,239.719c1.831,6.798 5.564,14.215 8.276,16.472c7.517,6.245 6.029,9.197 -5.829,11.619c-15.932,3.255 -72.934,21.067 -79.557,24.861c-5.89,3.368 -329.162,64.775 -401.67,76.303c-22.314,3.546 -73.425,13.207 -113.574,21.484c-40.151,8.273 -77.478,15.022 -82.951,15.022c-5.474,-0 -16.676,2.144 -24.888,4.766c-41.133,13.195 -87.931,23.06 -119.454,25.191c-19.162,1.301 -37.087,3.191 -39.822,4.201c-2.739,1.011 -6.849,1.085 -9.12,0.165c-8.276,-3.342 -3.849,-7.734 9.953,-9.891c9.952,-1.563 17.241,-5.512 24.784,-13.446c5.867,-6.168 15.894,-13.408 22.278,-16.069c6.371,-2.664 13.256,-7.96 15.3,-11.77c5.248,-9.801 28.585,-19.475 47.201,-19.553c8.706,-0.048 26.618,-3.972 39.823,-8.728c102.11,-36.781 116.25,-40.275 192.643,-47.528c64.155,-6.106 74.03,-7.834 86.569,-15.177c7.769,-4.553 18.138,-8.286 23.021,-8.286c4.882,-0 29.062,-8.212 53.737,-18.251c27.461,-11.177 49.787,-18.255 57.609,-18.255c7.01,-0 19.093,-2.231 26.853,-4.97c7.757,-2.735 21.016,-4.995 29.454,-5.031c8.434,-0.026 24.306,-2.209 35.256,-4.857c10.947,-2.651 33.945,-4.856 51.112,-4.921c24.713,-0.1 38.776,-2.283 67.535,-10.469c27.626,-7.869 47.088,-10.672 60.586,-7.96c13.511,2.7 21.054,10.912 24.875,25.078Zm-1280.53,32.027c19.11,1.111 26.931,13.647 14.38,37.084c-6.446,12.048 -6.446,12.048 -54.554,14.054c-42.119,1.74 -53.269,3.507 -89.423,14.102c-44.298,12.978 -43.316,12.726 -43.316,10.833c-0,-0.703 14.557,-7.023 32.356,-14.037c17.799,-7.014 44.072,-20.764 58.403,-30.538c32.631,-22.279 63.031,-32.596 82.154,-31.498Zm-285.732,118.773c10.821,-2.196 -20.651,8.855 -56.12,19.705c-24.939,7.63 -46.749,10.972 -46.749,7.162c0,-2.57 41.263,-14.67 68.03,-19.953c14.592,-2.877 30.273,-5.994 34.839,-6.914Zm1723.3,0.352c9.813,1.605 18.581,7.912 24.067,18.532c15.781,30.5 -22.921,59.979 -50.391,38.383c-9.917,-7.783 -9.601,-7.757 -104.206,-9.042c-25.556,-0.355 -138.174,5.712 -154.763,8.338c-8.35,1.311 -16.597,0.642 -21.025,-1.728c-5.88,-3.155 -8.389,-2.89 -13.055,1.337c-3.182,2.874 -14.961,6.193 -26.176,7.366c-13.624,1.424 -22.253,4.175 -25.986,8.299c-11.515,12.729 -44.375,4.566 -44.375,-11.012c-0,-10.734 -27.157,-11.919 -88.703,-3.859c-8.703,1.134 -15.074,1.237 -14.163,0.226c0.92,-1.01 46.455,-7.139 101.213,-13.624c54.744,-6.484 132.396,-15.69 172.548,-20.46c65.643,-7.808 79.19,-8.412 134.39,-6.155c70.725,2.9 68.241,3.117 80.274,-7.001c9.664,-8.134 20.538,-11.214 30.351,-9.61l-0,0.01Zm-2237.6,145.769c23.098,-1.311 42.296,1.463 43.962,9.058c0.882,4.111 2.609,9.826 3.833,12.713c1.728,4.076 -3.178,7.682 -21.975,16.098c-13.307,5.964 -41.359,19.423 -62.349,29.905c-23.298,11.645 -53.546,23.376 -77.678,30.148c-25.669,7.204 -44.905,14.796 -54.922,21.684c-12.5,8.603 -20.951,11.341 -44.866,14.518c-30.768,4.089 -37.604,6.385 -44.705,14.948c-2.587,3.104 -9.727,5.187 -17.974,5.235c-7.534,0.052 -19.995,1.54 -27.691,3.32c-7.691,1.763 -36.806,3.442 -64.696,3.72c-54.254,0.542 -57.254,1.262 -85.17,20.36c-7.996,5.46 -25.908,14.415 -39.823,19.879c-24.319,9.574 -39.896,14.453 -92.774,29.062c-32.887,9.081 -52.414,19.614 -70.084,37.779c-8.276,8.515 -17.851,15.212 -21.735,15.212c-13.195,0 -61.694,15.933 -74.714,24.549c-10.091,6.684 -17.192,8.638 -31.307,8.638c-17.105,-0 -59.098,12.274 -95.426,27.877c-10.96,4.705 -39.089,7.531 -39.089,3.911c-0,-3.342 23.021,-15.2 29.502,-15.2c3.936,0 15.655,-2.99 26.05,-6.636c10.381,-3.646 23.398,-6.684 28.949,-6.746c5.538,-0.051 16.033,-3.771 23.334,-8.276c7.305,-4.492 17.144,-8.186 21.888,-8.186c4.727,-0 11.315,-3.003 14.618,-6.662c3.304,-3.646 7.644,-6.61 9.636,-6.61c4.67,0.039 54.609,-20.925 78.295,-32.87c14.306,-7.217 18.255,-10.886 18.255,-16.979c0,-6.988 4.501,-9.358 44.792,-23.512c24.636,-8.667 123.933,-44.023 220.67,-78.585c96.724,-34.55 183.331,-63.929 192.45,-65.266c20.828,-3.064 90.595,-31.168 143.447,-57.76c17.206,-8.664 44.202,-14.028 67.297,-15.326Zm2517.25,111.307c9.284,0.226 16.32,4.605 23.763,13.23c6.797,7.886 26.172,28.346 43.065,45.451c16.875,17.115 30.69,32.292 30.69,33.729c-0,3.594 -54.77,6.597 -162.596,8.932c-82.419,1.776 -92.119,2.57 -100.244,8.273c-4.944,3.468 -10.166,5.993 -11.615,5.59c-1.441,-0.391 -20.538,-1.124 -42.436,-1.641c-50.43,-1.172 -56.019,-2.347 -51.514,-10.772c21.974,-41.046 -20.044,-79.141 -80.188,-72.735c-28.724,3.068 -147.888,0.569 -153.677,-3.216c-1.818,-1.198 98.225,-2.913 222.324,-3.833c225.639,-1.653 225.639,-1.653 245.189,-11.241c16.411,-8.047 27.941,-11.996 37.239,-11.767Zm-1532.69,389.647c20.157,-1.324 28.86,4.983 14.19,10.279c-16.021,5.78 -26.364,5.628 -28.682,-0.426c-2.725,-7.079 -0.052,-8.907 14.492,-9.853Zm1893.62,23.967c-4.036,0.53 -8.528,2.384 -13.069,5.826c-4.236,3.206 -14.605,4.908 -30.309,4.97c-33.099,0.151 -28.055,21.267 26.98,112.921c10.421,17.331 24.233,42.687 30.704,56.324c6.471,13.646 15.173,29.327 19.323,34.852c4.162,5.526 13.459,22.744 20.676,38.244c7.215,15.516 18.417,35.117 24.888,43.558c6.468,8.438 13.521,18.604 15.652,22.605c5.499,10.252 11.554,6.771 12.752,-7.343c0.759,-8.907 -3.33,-21.381 -15.765,-48.135c-9.223,-19.866 -16.792,-38.233 -16.828,-40.82c-0.151,-12.952 -18.593,-59.727 -41.123,-104.229c-27.636,-54.58 -30.461,-68.026 -19.84,-94.567c6.154,-15.39 -1.931,-25.785 -14.041,-24.206Zm-429.847,102.853c-70.994,-0.352 -192.68,0.782 -404.305,3.217c-257.163,2.941 -257.163,2.941 -271.191,10.598c-8.463,4.614 -22.262,8.351 -34.839,9.436c-11.454,0.968 -23.173,3.807 -26.034,6.306c-2.877,2.483 -12.5,5.525 -21.407,6.746c-47.921,6.575 -51.415,54.596 -3.91,53.698c13.143,-0.252 28.039,0.682 33.086,2.07c5.435,1.502 13.017,0.946 18.568,-1.35c5.147,-2.131 21.167,-4.375 35.596,-4.995c14.431,-0.617 35.947,-2.965 47.808,-5.222c11.854,-2.257 24.558,-3.923 28.2,-3.72c3.662,0.2 10.753,-1.275 15.771,-3.294c6.833,-2.748 11.594,-2.648 18.981,0.417c8.759,3.62 11.51,3.142 24.071,-4.15c9.626,-5.589 16.311,-7.443 20.825,-5.751c3.646,1.36 8.58,0.921 10.963,-0.998c8.868,-7.101 296.078,-3.368 304.087,3.95c10.43,9.523 18.594,10.746 45.296,6.758c40.82,-6.077 182.171,-4.314 212.874,2.677c42.7,9.698 34.74,13.004 -37.322,15.452c-79.241,2.7 -139.159,8.438 -159.281,15.261c-6.38,2.17 -27.296,4.289 -46.455,4.705c-22.178,0.494 -39.661,2.674 -48.111,6.006c-7.301,2.874 -24.016,8.513 -37.136,12.549c-47.579,14.609 -51.818,63.034 -5.525,63.034c3.607,-0 9.449,2.196 12.994,4.87c3.542,2.686 9.875,4.918 14.077,4.982c4.201,0.049 13.433,3.443 20.524,7.518c12.891,7.417 12.891,7.417 22.605,0.239c10.946,-8.099 122.379,-8.654 171.689,-0.859c12.7,2.008 28.014,3.494 34.045,3.294c6.016,-0.204 20.825,2.118 32.909,5.147c18.403,4.614 31.737,5.144 81.98,3.255c73.816,-2.777 92.271,-0.039 106.437,15.816c11.984,13.395 28.543,25.091 41.473,28.963c12.942,3.885 24.005,3.329 33.189,-1.918c4.566,-2.612 12.349,-4.792 17.306,-4.857c10.721,-0.139 32.469,-18.038 32.469,-26.728c-0,-14.86 -34.436,-32.356 -84.614,-42.99c-18.255,-3.859 -39.106,-8.603 -46.333,-10.53c-19.476,-5.212 -63.412,-3.95 -87.201,2.483c-16.55,4.492 -23.473,4.918 -33.277,2.092c-35.443,-10.204 -39.984,-10.846 -48.599,-6.923c-6.562,3.003 -11.493,3.003 -21.016,0.039c-16.614,-5.186 -84.098,-10.395 -90.595,-6.988c-20.764,10.872 -149.146,-3.485 -149.146,-16.689c-0,-3.875 0.868,-4.023 29.856,-5.147c20.422,-0.794 34.889,-2.738 81.295,-10.963c26.125,-4.628 107.739,-10.947 111.485,-8.638c1.602,0.994 8.099,-0.646 14.406,-3.633c6.432,-3.055 13.346,-4.301 15.716,-2.839c6.484,3.998 45.612,1.602 55.426,-3.406c6.016,-3.078 24.284,-4.592 59.198,-4.896c27.777,-0.239 54.379,-1.915 59.122,-3.72c4.732,-1.792 13.196,-3.268 18.795,-3.268c76.78,0 70.968,-72.592 -6.129,-76.567c-27.601,-1.424 -42.51,-3.72 -50.005,-7.718c-5.876,-3.129 -20.811,-6.952 -33.186,-8.489c-12.374,-1.541 -29.214,-5.451 -37.426,-8.706c-8.816,-3.481 -29.102,-5.309 -100.079,-5.651l-0,0.025Z" style="fill:#000989;fill-rule:nonzero;"/><path d="M8810.99,908.798c-17.001,39.367 -96.129,91.958 -132.648,99.084c-4.566,0.883 -35.282,10.531 -68.265,21.455c-32.974,10.912 -65.078,19.831 -71.333,19.792c-6.258,-0.039 -24.08,3.607 -39.583,8.073c-25.921,7.456 -55.591,13.914 -102.866,22.405c-10.043,1.788 -27.022,5.524 -37.73,8.273c-10.708,2.75 -37.591,5.486 -59.727,6.08c-27.778,0.756 -44.201,2.774 -52.992,6.533c-11.683,4.969 -14.066,4.995 -28.507,0.19c-37.061,-12.313 -223.864,-25.139 -252.028,-17.305c-11.115,3.091 -31.802,5.651 -45.968,5.687c-18.907,0.051 -29.757,1.904 -40.704,6.939c-9.488,4.349 -27.044,7.934 -48.112,9.814c-26.892,2.383 -36.819,4.843 -52.309,12.965c-10.521,5.512 -22.466,10.055 -26.554,10.055c-23.282,0.062 -81.711,27.359 -116.273,54.303c-10.599,8.263 -22.101,15.92 -25.556,17.018c-6.081,1.927 -30.313,32.292 -52.969,66.359c-6.067,9.123 -14.405,20.321 -18.516,24.888c-15.365,17.017 -45.083,71.523 -50.973,93.485c-3.862,14.354 -9.752,26.64 -16.423,34.245c-5.729,6.523 -10.408,13.676 -10.408,15.895c-0,2.218 -6.672,17.469 -14.835,33.906c-14.011,28.243 -27.409,69.276 -46.216,141.681c-9.271,35.698 -42.283,102.704 -60.144,122.115c-5.877,6.384 -23.438,31.033 -39.015,54.748c-28.117,42.822 -35.712,51.793 -52.7,62.323c-4.883,3.029 -9.804,9.827 -10.977,15.165c-4.175,19.007 -23.121,36.15 -48.173,43.616c-22.665,6.749 -26.992,10.143 -44.136,34.614c-5.083,7.253 -27.384,25.53 -65.479,53.698c-5.208,3.837 -18.897,8.829 -30.412,11.076c-23.98,4.679 -43.646,14.58 -50.886,25.63c-9.484,14.47 -44.453,33.894 -55.374,30.755c-10.863,-3.116 -16.714,-1.601 -30.299,7.808c-9.588,6.659 -28.56,4.224 -41.185,-5.286c-23.26,-17.548 7.43,-77.274 64.267,-125.093c41.879,-35.23 60.977,-53.649 76.554,-73.854c8.099,-10.495 23.968,-25.269 35.257,-32.799c33.706,-22.501 66.515,-58.704 83.555,-92.207c3.181,-6.258 11.532,-18.645 18.542,-27.513c7.14,-9.031 15.19,-24.483 18.268,-35.078c3.038,-10.42 9.258,-27.765 13.824,-38.563c4.566,-10.782 9.322,-28.256 10.569,-38.837c1.805,-15.226 4.075,-20.661 10.911,-26.034c19.401,-15.252 27.6,-50.282 18.72,-79.922c-3.494,-11.671 -2.913,-14.08 8.289,-34.11c26.363,-47.141 -4.556,-281.105 -42.373,-320.724c-6.129,-6.42 -12.865,-15.035 -14.971,-19.136c-4.188,-8.161 -16.31,-10.017 -22.843,-3.494c-2.46,2.46 -3.975,14.557 -3.975,31.649c-0,20.409 -1.476,29.906 -5.625,36.238c-3.711,5.651 -6.559,20.057 -8.351,42.183c-2.978,36.707 -6.446,63.083 -12.174,92.51c-2.041,10.495 -5.17,27.487 -6.95,37.756c-1.779,10.265 -11.314,35.282 -21.189,55.577c-9.892,20.296 -20.474,44.666 -23.528,54.151c-3.052,9.474 -9.158,22.165 -13.56,28.207c-4.401,6.029 -9.597,14.692 -11.554,19.258c-1.944,4.57 -10.191,14.484 -18.328,22.039c-15.352,14.268 -18.465,24.636 -11.364,37.892c2.952,5.525 1.224,7.921 -12.439,17.205c-8.729,5.942 -22.552,17.522 -30.69,25.733c-8.148,8.213 -21.077,18.921 -28.734,23.79c-7.656,4.883 -19.817,16.828 -26.996,26.554c-19.549,26.45 -50.013,51.59 -75.96,62.665c-8.854,3.785 -19.83,10.431 -24.383,14.783c-4.567,4.354 -14.141,10.344 -21.268,13.321c-7.14,2.977 -19.701,12.149 -27.926,20.373c-10.13,10.127 -26.819,20.674 -51.732,32.696c-47.63,22.969 -92.045,59.675 -129.064,106.663c-6.952,8.829 -19.214,24.258 -27.248,34.298c-26.276,32.808 -153.499,153.676 -170.262,161.763c-17.825,8.589 -29.431,20.472 -32.56,33.35c-1.941,7.948 -20.066,38.951 -43.291,74.033c-4.362,6.597 -8.754,17.796 -9.749,24.887c-0.998,7.101 -3.923,18.542 -6.51,25.418c-6.116,16.346 -5.928,29.653 0.682,44.83c3.254,7.466 5.221,20.461 4.995,32.883c-0.226,11.302 1.098,21.471 2.926,22.605c7.621,4.717 2.283,8.289 -12.449,8.337c-23.324,0.091 -40.339,10.85 -50.685,32.04c-4.602,9.436 -10.76,19.892 -13.673,23.225c-12.916,14.783 -15.742,30.274 -25.594,140.582c-1.385,15.578 -3.62,30.083 -4.931,32.215c-1.324,2.145 -3.659,13.285 -5.186,24.774c-1.524,11.48 -5.296,30.187 -8.373,41.589c-9.575,35.495 -6.423,262.598 3.91,281.937c4.931,9.233 7.466,19.702 7.466,30.865c-0,20.448 6.119,33.2 21.607,45.021c6.422,4.88 12.299,12.059 13.094,15.93c0.781,3.872 3.181,17.496 5.338,30.261c5.916,35.143 15.651,62.908 26.98,76.958c5.612,6.953 13.963,20.851 18.554,30.894c4.592,10.039 11.177,22.301 14.619,27.245c9.952,14.305 42.487,80.061 42.487,85.889c-0,7.041 8.424,14.041 26.55,22.076c8.212,3.633 34.388,22.161 58.164,41.146c33.894,27.083 53.611,39.809 91.251,58.919c108.681,55.175 167.792,96.108 197.736,136.902c6.384,8.69 21.949,23.322 34.588,32.518c12.652,9.21 27.057,23.073 32.027,30.83c4.957,7.756 15.2,21.557 22.756,30.69c35.76,43.177 44.792,55.287 52.349,70.209c12.852,25.343 19.526,30.008 31.094,21.722c28.381,-20.347 32.291,-39.344 17.822,-86.975c-4.06,-13.346 -8.703,-37.097 -10.344,-52.764c-1.627,-15.678 -6.749,-41.095 -11.35,-56.473c-4.618,-15.377 -8.39,-30.829 -8.39,-34.336c0,-26.97 -40.881,-102.427 -77.01,-142.172c-14.289,-15.719 -21.415,-27.196 -48.321,-60.13c-26.909,-32.925 -62.731,-84.805 -113.729,-136.915c-56.475,-57.696 -55.552,-56.472 -66.224,-87.931c-14.002,-41.288 -19.818,-146.537 -10.534,-190.8c2.296,-10.95 5.538,-31.107 7.23,-44.791c1.676,-13.702 5.522,-33.1 8.538,-43.143c3.016,-10.039 7.479,-27.209 9.914,-38.156c3.849,-17.318 6.61,-21.861 21.18,-34.84c12.691,-11.314 18.277,-19.439 23.034,-33.477c8.867,-26.224 14.141,-35.372 32.405,-56.259c8.841,-10.117 26.059,-31.019 38.269,-46.458c34.288,-43.343 151.155,-151.156 157.249,-145.049c2.899,2.9 -30.929,63.182 -49.979,89.054c-14.96,20.322 -15.06,20.674 -13.029,40.808c1.931,19.171 1.475,21.029 -8.251,33.199c-5.664,7.102 -10.291,15.655 -10.291,19.011c-0,3.354 -3.824,16.22 -8.477,28.581c-11.024,29.292 -8.325,206.481 3.581,234.837c18.872,44.918 100.37,126.985 152.554,153.625c34.361,17.535 93.611,76.58 96.511,96.172c1.275,8.612 4.314,21.368 6.762,28.33c2.435,6.962 5.434,22.643 6.658,34.84c1.224,12.196 4.24,27.964 6.701,35.043c2.47,7.075 4.488,24.658 4.488,39.089c0,15.729 1.983,30.981 4.947,38.069c6.343,15.2 8.209,275.541 2.08,290.97c-2.044,5.131 -3.707,17.418 -3.707,27.309c-0,9.875 -2.122,23.586 -4.718,30.473c-2.6,6.876 -6.458,20.261 -8.58,29.732c-2.218,9.904 -10.091,26.528 -18.516,39.08c-17.418,25.972 -17.774,29.363 -4.34,41.914c26.653,24.9 102.275,-28.103 133.043,-93.243c6.18,-13.094 18.29,-30.034 30.813,-43.125c11.353,-11.871 23.741,-27.552 27.525,-34.853c3.785,-7.292 23.525,-29.696 43.872,-49.761c22.791,-22.505 40.239,-42.878 45.46,-53.108c10.547,-20.599 38.083,-55.677 50.899,-64.797c8.803,-6.271 34.133,-53.042 41.273,-76.229c1.41,-4.552 11.883,-23.22 23.285,-41.472c53.256,-85.295 80.73,-146.628 85.396,-190.648c12.413,-116.984 -21.341,-200.817 -122.128,-303.331c-68.607,-69.767 -81.727,-248.079 -19.349,-262.828c5.295,-1.246 13.368,-5.625 17.935,-9.735c16.74,-15.061 22.769,-16.385 83.229,-18.255c48.486,-1.489 59.688,-2.774 66.363,-7.631c4.414,-3.203 13.091,-9.509 19.298,-14.014c29.075,-21.116 74.952,0.368 81.992,38.385c2.522,13.672 9.219,19.792 21.632,19.792c5.009,-0 21.533,2.977 36.706,6.61c81.651,19.576 219.347,-7.669 280.511,-55.503c39.331,-30.752 85.412,-90.756 95.322,-124.133c2.761,-9.336 6.514,-18.746 8.303,-20.916c4.136,-4.982 23.382,-63.56 23.382,-71.168c0,-3.129 5.719,-17.545 12.707,-32.053c7.001,-14.506 14.541,-33.716 16.789,-42.696c2.235,-8.971 7.604,-22.418 11.922,-29.858c9.645,-16.627 21.633,-51.77 21.633,-63.437c-0,-5.903 16.484,-31.12 52.257,-79.949c85.816,-117.08 93.964,-128.334 104.015,-143.734c5.3,-8.112 9.64,-18.672 9.64,-23.437c-0,-19.592 62.036,-62.327 149.324,-102.883c72.557,-33.703 85.8,-47.314 67.197,-69.059c-7.192,-8.403 -139.489,17.634 -173.383,34.119c-30.26,14.722 -46.38,23.186 -84.965,44.592c-27.539,15.287 -41.389,20.964 -54.758,22.479c-27.274,3.09 -75.26,40.526 -91.038,71.042c-3.203,6.193 -13.624,20.99 -23.159,32.87c-9.536,11.896 -19.996,26.845 -23.225,33.238c-3.239,6.384 -10.705,17.586 -16.614,24.887c-5.89,7.292 -14.085,19.983 -18.2,28.195c-4.111,8.212 -11.909,20.56 -17.321,27.448c-5.422,6.875 -13.595,20.321 -18.183,29.87c-4.592,9.535 -13.208,24.067 -19.163,32.278c-5.967,8.212 -14.757,22.718 -19.54,32.241c-68.381,135.981 -251.169,168.222 -303.995,53.611c-19.592,-42.496 -7.973,-99.11 26.779,-130.492c17.961,-16.236 105.905,-81.766 112.363,-83.733c2.838,-0.859 17.105,-7.279 31.714,-14.253c14.593,-6.975 37.866,-17.974 51.702,-24.446c13.841,-6.471 33.998,-18.254 44.796,-26.188c39.832,-29.25 67.28,-48.487 74.888,-52.448c48.351,-25.227 74.436,-49.233 76.693,-70.6c3.3,-31.311 40.436,-60.018 78.334,-60.586c20.005,-0.291 20.699,-0.908 26.867,-23.98c2.573,-9.649 11.063,-22.605 26.124,-39.823c40.882,-46.772 70.222,-92.106 70.222,-108.517c0,-17.37 24.874,-48.78 47.705,-60.244c9.348,-4.682 23.715,-13.298 31.927,-19.123c8.212,-5.841 22.404,-14.886 31.524,-20.121c49.561,-28.394 58.832,-37.626 51.502,-51.325c-6.711,-12.552 -60.926,-9.8 -97.467,4.931c-15.958,6.433 -37.074,13.798 -46.926,16.372c-44.363,11.554 -64.181,22.014 -83.604,44.137c-10.256,11.68 -25.278,24.496 -33.794,28.836c-8.45,4.314 -22.569,16.234 -31.401,26.503c-19.636,22.855 -41.672,39.761 -78,59.852c-15.243,8.429 -37.279,22.657 -48.968,31.624c-105.391,80.782 -231.495,71.017 -237.724,-18.39c-1.01,-14.531 -4.44,-32.874 -7.607,-40.756c-4.983,-12.361 -5.196,-16.249 -1.602,-28.207c2.296,-7.63 4.944,-26.563 5.877,-42.066c1.857,-30.83 4.705,-38.296 25.937,-68.026c19.562,-27.388 36.68,-43.169 55.652,-51.251c8.828,-3.762 22.275,-11.302 29.857,-16.741c11.063,-7.934 23.35,-11.87 61.923,-19.778c26.463,-5.438 56.268,-12.175 66.247,-14.987c9.991,-2.8 27.148,-5.096 38.134,-5.096c17.847,0 24.018,-2.066 58.164,-19.588c55.083,-28.255 67.977,-31.358 119.063,-28.671c41.915,2.205 41.915,2.205 76.755,-9.727c89.509,-30.664 196.034,-62.349 257.163,-76.49c39.141,-9.058 58.351,-16.905 75.938,-31.02c7.088,-5.699 18.329,-11.818 24.961,-13.598c7.973,-2.144 14.115,-6.723 18.116,-13.494c3.33,-5.642 9.584,-11.858 13.911,-13.828c4.328,-1.967 11.845,-9.333 16.715,-16.359c4.869,-7.014 15.742,-17.331 24.18,-22.908c17.686,-11.719 71.016,-74.019 78.32,-91.502c2.713,-6.494 8.694,-16.285 13.282,-21.733c4.579,-5.451 8.341,-11.818 8.341,-14.166c0,-2.335 4.276,-12.31 9.484,-22.15c20.422,-38.472 16.638,-56.045 -3.645,-56.045c-20.283,-0 -37.527,30.791 -42.423,42.131Z" style="fill:#ffb30f;fill-rule:nonzero;"/></g><g><g><text x="6258.4px" y="14680.9px" style="font-family:'ConcourseT3', 'Concourse T3';font-weight:300;font-size:277.779px;fill:#fff;">on</text></g><g id="Rate-Us---1" serif:id="Rate Us - 1"><g><g><g><path d="M8369.53,13769.5c0,204.196 -166.132,370.328 -370.338,370.328l-1693.89,0l-957.709,-0.944c94.713,-102.885 152.574,-240.225 152.574,-391.087c0,-134.878 -46.227,-258.948 -123.699,-357.251l2622.72,-0c204.206,-0 370.338,166.131 370.338,370.337l0,8.617Zm-3959.62,-21.703c-0,-283.112 229.508,-512.611 512.611,-512.611c283.112,0 512.611,229.499 512.611,512.611c-0,283.103 -229.499,512.602 -512.611,512.602c-283.103,0 -512.611,-229.499 -512.611,-512.602Zm3589.28,-423.562l-2683.95,0c-103.061,-95.601 -241.049,-154.082 -392.716,-154.082c-319.021,-0 -577.645,258.615 -577.645,577.644c0,319.011 258.624,577.635 577.645,577.635c132.278,0 254.144,-44.497 351.523,-119.293l2725.14,-0c240.772,-0 436.649,-195.877 436.649,-436.639l-0,-8.617c-0,-240.771 -195.877,-436.648 -436.649,-436.648Z" style="fill:url(#_Linear1);fill-rule:nonzero;"/></g><g><path d="M5203.96,13648.7l-187.751,0c-0,0 -6.173,-48.402 11.115,-92.862c16.251,-41.794 8.005,-141.542 -55.64,-160.431c-9.421,-2.795 -19.49,-3.137 -28.903,-0.314c-7.348,2.211 -15.307,6.543 -19.435,15.029c0,0 16.668,88.17 10.375,98.785c-4.72,7.969 -92.038,138.711 -124.402,187.141c-7.784,11.651 -11.93,25.339 -11.93,39.342l0,265.74c0,7.228 5.859,13.096 13.096,13.096l331.07,-0c20.527,-0 37.167,-17.519 37.167,-39.12l-0,-0.796c-0,-15.483 -8.57,-28.828 -20.971,-35.168l7.829,0c24.174,0 43.766,-21.341 43.766,-47.68l-0,-0.963c-0,-16.64 -7.83,-31.281 -19.685,-39.804c25.173,-0.75 45.376,-22.665 45.376,-49.606l0,-0.999c0,-19.158 -10.217,-35.761 -25.173,-44.035c26.663,-2.943 47.394,-25.533 47.394,-52.974l-0,-1.073c-0,-29.44 -23.859,-53.308 -53.298,-53.308Z" style="fill:url(#_Linear2);fill-rule:nonzero;"/></g><g><path d="M4735.36,13765.2c-9.301,-0 -16.835,-7.533 -16.835,-16.825c0,-9.292 7.534,-16.835 16.835,-16.835c9.292,0 16.825,7.543 16.825,16.835c-0,9.292 -7.533,16.825 -16.825,16.825Zm-50.05,-0c-9.292,-0 -16.825,-7.533 -16.825,-16.825c-0,-9.292 7.533,-16.835 16.825,-16.835c9.301,0 16.834,7.543 16.834,16.835c0,9.292 -7.533,16.825 -16.834,16.825Zm85.421,-53.428l-169.944,0c-7.358,0 -13.327,6.636 -13.327,14.817l-0,272.83c-0,8.181 5.969,14.817 13.327,14.817l169.944,-0c7.358,-0 13.318,-6.636 13.318,-14.817l0,-272.83c0,-8.181 -5.96,-14.817 -13.318,-14.817Z" style="fill:url(#_Linear3);fill-rule:nonzero;"/></g></g></g><g><g><path d="M7083.53,13674.2l-129.992,-0c-8.209,-0 -15.484,-5.294 -18.019,-13.095l-40.175,-123.635c-5.673,-17.454 -30.374,-17.454 -36.048,0l-40.174,123.635c-2.536,7.801 -9.81,13.095 -18.019,13.095l-129.993,-0c-18.361,-0 -25.996,23.498 -11.142,34.289l105.161,76.398c6.645,4.821 9.431,13.382 6.886,21.193l-40.166,123.625c-5.673,17.464 14.317,31.984 29.171,21.193l105.162,-76.407c6.645,-4.831 15.641,-4.831 22.276,0l105.162,76.407c14.863,10.791 34.844,-3.729 29.171,-21.193l-40.166,-123.625c-2.536,-7.811 0.241,-16.372 6.886,-21.193l105.161,-76.398c14.854,-10.791 7.219,-34.289 -11.142,-34.289Z" style="fill:url(#_Linear4);fill-rule:nonzero;"/></g><g><path d="M7594.89,13674.2l-129.983,-0c-8.219,-0 -15.493,-5.294 -18.029,-13.095l-40.175,-123.635c-5.673,-17.454 -30.374,-17.454 -36.047,0l-40.165,123.635c-2.545,7.801 -9.82,13.095 -18.029,13.095l-129.992,-0c-18.361,-0 -25.996,23.498 -11.143,34.289l105.171,76.398c6.636,4.821 9.422,13.382 6.886,21.193l-40.175,123.625c-5.673,17.464 14.317,31.984 29.171,21.193l105.162,-76.407c6.645,-4.831 15.64,-4.831 22.276,0l105.171,76.407c14.854,10.791 34.835,-3.729 29.162,-21.193l-40.166,-123.625c-2.536,-7.811 0.241,-16.372 6.886,-21.193l105.161,-76.398c14.854,-10.791 7.219,-34.289 -11.142,-34.289Z" style="fill:url(#_Linear5);fill-rule:nonzero;"/></g><g><path d="M8111.07,13674.2l-129.983,-0c-8.209,-0 -15.492,-5.294 -18.028,-13.095l-40.166,-123.635c-5.673,-17.454 -30.383,-17.454 -36.056,0l-40.166,123.635c-2.536,7.801 -9.819,13.095 -18.028,13.095l-129.983,-0c-18.361,-0 -25.997,23.498 -11.143,34.289l105.162,76.398c6.645,4.821 9.421,13.382 6.885,21.193l-40.165,123.625c-5.673,17.464 14.308,31.984 29.162,21.193l105.161,-76.407c6.645,-4.831 15.641,-4.831 22.286,0l105.161,76.407c14.854,10.791 34.845,-3.729 29.171,-21.193l-40.174,-123.625c-2.536,-7.811 0.24,-16.372 6.885,-21.193l105.162,-76.398c14.854,-10.791 7.218,-34.289 -11.143,-34.289Z" style="fill:url(#_Linear6);fill-rule:nonzero;"/></g><g><path d="M6045.89,13674.2l-129.982,-0c-8.219,-0 -15.493,-5.294 -18.029,-13.095l-40.175,-123.635c-5.673,-17.454 -30.374,-17.454 -36.047,0l-40.165,123.635c-2.545,7.801 -9.82,13.095 -18.029,13.095l-129.992,-0c-18.361,-0 -25.996,23.498 -11.143,34.289l105.162,76.398c6.645,4.821 9.431,13.382 6.886,21.193l-40.166,123.625c-5.673,17.464 14.317,31.984 29.171,21.193l105.162,-76.407c6.645,-4.831 15.64,-4.831 22.276,0l105.171,76.407c14.854,10.791 34.835,-3.729 29.162,-21.193l-40.166,-123.625c-2.536,-7.811 0.241,-16.372 6.876,-21.193l105.171,-76.398c14.854,-10.791 7.219,-34.289 -11.143,-34.289Z" style="fill:url(#_Linear7);fill-rule:nonzero;"/></g><g><path d="M6562.07,13674.2l-129.983,-0c-8.209,-0 -15.492,-5.294 -18.028,-13.095l-40.166,-123.635c-5.673,-17.454 -30.383,-17.454 -36.056,0l-40.166,123.635c-2.536,7.801 -9.819,13.095 -18.028,13.095l-129.983,-0c-18.361,-0 -25.997,23.498 -11.143,34.289l105.162,76.398c6.645,4.821 9.421,13.382 6.885,21.193l-40.165,123.625c-5.683,17.464 14.308,31.984 29.162,21.193l105.161,-76.407c6.645,-4.831 15.641,-4.831 22.286,0l105.161,76.407c14.854,10.791 34.845,-3.729 29.162,-21.193l-40.166,-123.625c-2.535,-7.811 0.241,-16.372 6.886,-21.193l105.162,-76.398c14.854,-10.791 7.218,-34.289 -11.143,-34.289Z" style="fill:url(#_Linear8);fill-rule:nonzero;"/></g></g></g><g><g><path d="M4904.23,16074l114.453,-0l0,30.998l-83.456,-0l0,54.842l66.765,0l0,28.614l-66.765,-0l0,81.071l-30.997,-0l-0,-195.525Z" style="fill:#fff;"/><rect x="5068.76" y="16074" width="30.998" height="195.525" style="fill:#fff;"/><g><rect x="7291.07" y="16074" width="30.998" height="195.525" style="fill:#fff;"/></g><path d="M5166.52,16074l83.456,-0c24.489,3.6 38.938,19.505 45.305,45.304l-0,35.767c-4.364,24.512 -20.888,39.272 -40.941,43.326l52.863,71.128l-40.536,-0l-47.689,-71.534l-21.46,0l0,71.534l-30.998,-0l0,-195.525Zm30.998,30.998l52.458,-0c23.606,22.008 22.51,43.444 0,64.38l-52.458,-0l0,-64.38Z" style="fill:#fff;"/><g><path d="M7744.11,16074l83.456,-0c24.488,3.6 38.938,19.505 45.305,45.304l-0,35.767c-4.364,24.512 -20.888,39.272 -40.941,43.326l52.863,71.128l-40.536,-0l-47.689,-71.534l-21.46,0l0,71.534l-30.998,-0l0,-195.525Zm30.998,30.998l52.458,-0c23.606,22.008 22.509,43.444 0,64.38l-52.458,-0l0,-64.38Z" style="fill:#fff;"/></g><path d="M5342.97,16269.6l23.845,-195.525l28.613,-0l64.38,133.529l66.765,-133.529l26.229,-0l26.229,195.525l-30.998,-0l-16.691,-133.529l-57.227,114.453l-26.229,0l-57.227,-114.453l-16.691,133.529l-30.998,-0Z" style="fill:#fff;"/><path d="M5719.72,16138.4l30.997,-0c2.957,-37.889 -14.998,-61.972 -61.995,-66.765c-39.344,3.482 -62.974,19.982 -64.381,54.843c-1.549,31.284 15.666,47.188 42.921,54.842c34.98,3.577 56.463,13.186 59.611,30.998c-2.146,16.858 -11.183,28.9 -38.151,30.998c-22.128,-1.836 -35.457,-13.854 -38.152,-38.151l-28.613,-0c-0.215,33.31 14.951,55.51 45.305,66.764l40.535,0c23.535,-7.821 39.368,-22.175 47.689,-42.92c3.744,-35.552 -9.704,-56.535 -35.766,-66.764l-59.612,-16.692c-10.444,-9.418 -5.484,-26.086 7.154,-38.151c29.233,-11.445 48.952,-2.933 52.458,30.998Z" style="fill:#fff;"/><path d="M5881.86,16074l147.836,-0l0,30.998l-59.611,-0l0,164.527l-30.998,-0l0,-164.527l-57.227,-0l0,-30.998Z" style="fill:#fff;"/><g><path d="M6435.05,16074l147.837,-0l-0,30.998l-59.612,-0l0,164.527l-30.998,-0l0,-164.527l-57.227,-0l0,-30.998Z" style="fill:#fff;"/></g><path d="M6077.38,16074l30.997,-0l0,85.84l88.225,0l0,-85.84l28.614,-0l-0,195.525l-28.614,-0l0,-81.071l-88.225,-0l0,81.071l-30.997,-0l-0,-195.525Z" style="fill:#fff;"/><path d="M6268.14,16269.6l73.918,-195.525l28.613,-0l76.303,195.525l-33.383,-0l-19.075,-47.689l-73.918,-0l-19.076,47.689l-33.382,-0Zm61.996,-76.303l52.458,0l-26.229,-69.149l-26.229,69.149Z" style="fill:#fff;"/><path d="M6740.26,16074l0,195.525l97.763,-0c58.586,-21.889 63.403,-63.427 63.593,-95.426c0.215,-33.573 -1.549,-76.684 -70.746,-100.099l-90.61,-0Zm30.998,30.998l57.227,-0c36.673,14.211 43.827,43.444 44.16,65.667c0.358,23.464 -2.933,49.478 -44.16,70.246l-57.227,0l0,-135.913Z" style="fill:#fff;"/><path d="M6959.63,16074l0,195.525l119.223,-0l-0,-28.614l-90.609,0l-0,-52.457l76.302,-0l0,-28.614l-76.302,0l-0,-54.842l88.224,-0l0,-30.998l-116.838,-0Z" style="fill:#fff;"/><g><path d="M7562.9,16074l-0,195.525l119.222,-0l0,-28.614l-90.609,0l0,-52.457l76.303,-0l-0,-28.614l-76.303,0l0,-54.842l88.225,-0l0,-30.998l-116.838,-0Z" style="fill:#fff;"/></g><g><path d="M7560.51,16074l0,195.525l119.223,-0l0,-28.614l-90.609,0l-0,-52.457l76.302,-0l0,-28.614l-76.302,0l-0,-54.842l88.225,-0l-0,-30.998l-116.839,-0Z" style="fill:#fff;"/></g><path d="M7133.69,16074l30.998,-0l0,166.911l76.303,0l-0,28.614l-107.301,-0l0,-195.525Z" style="fill:#fff;"/><path d="M7367.37,16074l59.611,195.525l27.874,-0l60.351,-195.525l-33.383,-0l-40.535,135.914l-42.92,-135.914l-30.998,-0Z" style="fill:#fff;"/></g><g><path d="M5197.12,15131.4l123.992,-123.991c-169.94,-200.936 -455.691,-229.645 -636.137,-143.683c-179.613,85.566 -294.704,259.407 -304.437,484.807c-10.606,245.561 149.98,617.187 585.784,577.417c110.338,-10.069 235.445,-57.296 354.79,-186.514l-119.223,-128.761c-176.43,185.301 -341.749,157.734 -431.417,114.645c-222.073,-106.719 -206.846,-299.449 -214.35,-351.686c-4.073,-28.344 0.999,-116.49 46.475,-198.915c45.376,-82.24 141.715,-162.837 254.39,-177.449c94.265,-12.227 206.16,-1.4 340.133,134.13Z" style="fill:#fff;"/><rect x="5426.03" y="14785.7" width="178.834" height="1130.23" style="fill:#fff;"/><path d="M5752.7,15152.9l178.834,0l-0,462.584c21.341,237.84 307.523,132.945 307.594,-23.844l0,-438.74l178.834,0l2.385,763.025l-178.834,0l-0,-45.304c-126.782,79.617 -257.521,72.327 -352.899,16.691c-72.798,-42.46 -128.356,-138.213 -133.53,-250.368l-2.384,-484.044Z" style="fill:#fff;"/><path d="M6618.26,14897.7l178.834,-0l0,255.136l143.067,0l0,169.297l-143.067,-0l0,591.344l-178.834,-0l0,-591.344l-121.607,-0l0,-169.297l121.583,0l0.024,-255.136Z" style="fill:#fff;"/><path d="M7536.27,15396.1l126.376,-126.376c-96.38,-91.459 -187.609,-128.246 -270.421,-128.327c-115.05,-0.11 -165.839,6.049 -260.836,63.004c-161.308,96.714 -168.032,282.494 -170.083,328.547c-3.552,79.355 34.67,238.555 168.057,328.69c93.089,62.906 335.85,138.706 535.667,-64.95l-128.76,-126.376c-119.152,116.919 -213.695,84.195 -272.639,59.828c-112.427,-46.466 -123.276,-168.481 -123.872,-199.116c-0.525,-26.181 12.59,-130.032 92.684,-178.984c46.473,-28.394 181.218,-83.28 303.827,44.06Z" style="fill:#fff;"/><path d="M7746.1,14785.7l176.45,-0l-0,407.741c134.936,-76.877 257.306,-71.519 369.59,0c67.719,56.08 107.348,129.571 116.838,221.754l0,500.735l-176.449,0l-0,-462.584c-13.782,-93.158 -54.771,-143.746 -134.889,-137.263c-111.115,6.512 -167.531,66.963 -175.328,175.348l-0,424.499l-176.212,0l0,-1130.23Z" style="fill:#fff;"/><g><circle cx="7351.48" cy="15535.6" r="132.337" style="fill:#ff3c2e;"/></g></g></g></g></g><defs><linearGradient id="_Linear1" x1="0" y1="0" x2="1" y2="0" gradientUnits="userSpaceOnUse" gradientTransform="matrix(1572.57,-1739.15,1739.15,1572.57,5827.23,14682.8)"><stop offset="0" style="stop-color:#87b800;stop-opacity:1"/><stop offset="0.24" style="stop-color:#adbc00;stop-opacity:1"/><stop offset="0.81" style="stop-color:#e3b700;stop-opacity:1"/><stop offset="1" style="stop-color:#ff9200;stop-opacity:1"/></linearGradient><linearGradient id="_Linear2" x1="0" y1="0" x2="1" y2="0" gradientUnits="userSpaceOnUse" gradientTransform="matrix(1572.57,-1739.15,1739.15,1572.57,5827.23,14682.8)"><stop offset="0" style="stop-color:#87b800;stop-opacity:1"/><stop offset="0.24" style="stop-color:#adbc00;stop-opacity:1"/><stop offset="0.81" style="stop-color:#e3b700;stop-opacity:1"/><stop offset="1" style="stop-color:#ff9200;stop-opacity:1"/></linearGradient><linearGradient id="_Linear3" x1="0" y1="0" x2="1" y2="0" gradientUnits="userSpaceOnUse" gradientTransform="matrix(1572.57,-1739.15,1739.15,1572.57,5827.23,14682.8)"><stop offset="0" style="stop-color:#87b800;stop-opacity:1"/><stop offset="0.24" style="stop-color:#adbc00;stop-opacity:1"/><stop offset="0.81" style="stop-color:#e3b700;stop-opacity:1"/><stop offset="1" style="stop-color:#ff9200;stop-opacity:1"/></linearGradient><linearGradient id="_Linear4" x1="0" y1="0" x2="1" y2="0" gradientUnits="userSpaceOnUse" gradientTransform="matrix(930.657,-995.07,995.07,930.657,6593.53,14136.4)"><stop offset="0" style="stop-color:#87bf00;stop-opacity:1"/><stop offset="0.18" style="stop-color:#bfdf4f;stop-opacity:1"/><stop offset="0.54" style="stop-color:#ffe26a;stop-opacity:1"/><stop offset="0.77" style="stop-color:#ffa61b;stop-opacity:1"/><stop offset="1" style="stop-color:#ff9200;stop-opacity:1"/></linearGradient><linearGradient id="_Linear5" x1="0" y1="0" x2="1" y2="0" gradientUnits="userSpaceOnUse" gradientTransform="matrix(930.657,-995.07,995.07,930.657,6593.53,14136.4)"><stop offset="0" style="stop-color:#87bf00;stop-opacity:1"/><stop offset="0.18" style="stop-color:#bfdf4f;stop-opacity:1"/><stop offset="0.54" style="stop-color:#ffe26a;stop-opacity:1"/><stop offset="0.77" style="stop-color:#ffa61b;stop-opacity:1"/><stop offset="1" style="stop-color:#ff9200;stop-opacity:1"/></linearGradient><linearGradient id="_Linear6" x1="0" y1="0" x2="1" y2="0" gradientUnits="userSpaceOnUse" gradientTransform="matrix(930.657,-995.07,995.07,930.657,6593.53,14136.4)"><stop offset="0" style="stop-color:#87bf00;stop-opacity:1"/><stop offset="0.18" style="stop-color:#bfdf4f;stop-opacity:1"/><stop offset="0.54" style="stop-color:#ffe26a;stop-opacity:1"/><stop offset="0.77" style="stop-color:#ffa61b;stop-opacity:1"/><stop offset="1" style="stop-color:#ff9200;stop-opacity:1"/></linearGradient><linearGradient id="_Linear7" x1="0" y1="0" x2="1" y2="0" gradientUnits="userSpaceOnUse" gradientTransform="matrix(930.657,-995.07,995.07,930.657,6593.53,14136.4)"><stop offset="0" style="stop-color:#87bf00;stop-opacity:1"/><stop offset="0.18" style="stop-color:#bfdf4f;stop-opacity:1"/><stop offset="0.54" style="stop-color:#ffe26a;stop-opacity:1"/><stop offset="0.77" style="stop-color:#ffa61b;stop-opacity:1"/><stop offset="1" style="stop-color:#ff9200;stop-opacity:1"/></linearGradient><linearGradient id="_Linear8" x1="0" y1="0" x2="1" y2="0" gradientUnits="userSpaceOnUse" gradientTransform="matrix(930.657,-995.07,995.07,930.657,6593.53,14136.4)"><stop offset="0" style="stop-color:#87bf00;stop-opacity:1"/><stop offset="0.18" style="stop-color:#bfdf4f;stop-opacity:1"/><stop offset="0.54" style="stop-color:#ffe26a;stop-opacity:1"/><stop offset="0.77" style="stop-color:#ffa61b;stop-opacity:1"/><stop offset="1" style="stop-color:#ff9200;stop-opacity:1"/></linearGradient></defs></svg>