<svg width="36" height="40" viewBox="0 0 36 40" fill="none" xmlns="http://www.w3.org/2000/svg">
<path fill-rule="evenodd" clip-rule="evenodd" d="M36 29.9992L17.9996 40L0 29.9992V9.99924L17.9996 0L36 9.99924V29.9992Z" fill="#1152BB"/>
<path fill-rule="evenodd" clip-rule="evenodd" d="M36 29.9992L17.9996 40L0 29.9992V9.99924L36 29.9992Z" fill="#084787"/>
<path fill-rule="evenodd" clip-rule="evenodd" d="M32 28L18 36L4 28V12L18 4L32 12V28Z" fill="#88AE06"/>
<path fill-rule="evenodd" clip-rule="evenodd" d="M18 36L4 28V12L18 4V36Z" fill="#92B41D"/>
<path fill-rule="evenodd" clip-rule="evenodd" d="M32 27.9684L18 36L4 27.9684V28.0316L18 20L32 28.0316V27.9684Z" fill="#9BBF20"/>
<path fill-rule="evenodd" clip-rule="evenodd" d="M25.6 24.4006L17.9997 28.8L10.4 24.4006V15.9733L18 12.0085L25.6 15.9733V24.4006Z" fill="#124E9C"/>
<path fill-rule="evenodd" clip-rule="evenodd" d="M17.9997 28.7914L10.4 24.392V15.9648L18 12L17.9997 28.7914Z" fill="#181818" fill-opacity="0.5"/>
<path fill-rule="evenodd" clip-rule="evenodd" d="M25.6 16.0197L17.9997 20L10.4 16.0197V15.9803L17.9997 12L25.6 15.9803V16.0197Z" fill="#1152BB"/>
</svg>
