<svg width="24" height="24" viewBox="0 0 24 24" fill="none" xmlns="http://www.w3.org/2000/svg">
<g clip-path="url(#clip0_473:415)">
<rect width="24" height="24" fill="white"/>
<rect width="24" height="24" fill="#085CE5"/>
<path fill-rule="evenodd" clip-rule="evenodd" d="M12.0186 6.47786V8.78126C13.999 4.77827 21.7853 4.71042 22.0487 10.5119L22.0556 10.8173V20.9973L18.0357 21V12.8546C18.0357 7.20142 12.2385 8.73868 12.0246 12.6442L12.0186 12.8519V21H8.01739V6.47786H12.0186V8.78126V6.47786ZM6.00117 6.74462V20.9994H2V6.74462H6.00117ZM4.00566 2C5.11123 2 6.00691 2.90942 6.00691 4.03193C6.00691 5.15309 5.11123 6.06251 4.00566 6.06251C2.90143 6.06251 2.00575 5.15309 2.00575 4.03193C2.00575 2.90942 2.90143 2 4.00566 2Z" fill="white"/>
</g>
<defs>
<clipPath id="clip0_473:415">
<rect width="24" height="24" fill="white"/>
</clipPath>
</defs>
</svg>
