<svg width="24" height="24" viewBox="0 0 24 24" fill="none" xmlns="http://www.w3.org/2000/svg">
<g clip-path="url(#clip0_473:403)">
<rect width="24" height="24" fill="white"/>
<rect width="24" height="24" fill="#085CE5"/>
<path fill-rule="evenodd" clip-rule="evenodd" d="M22.0625 5.875C22.0625 3.7005 20.2995 1.9375 18.125 1.9375H5.875C3.7005 1.9375 1.9375 3.7005 1.9375 5.875V18.125C1.9375 20.2995 3.7005 22.0625 5.875 22.0625H18.125C20.2995 22.0625 22.0625 20.2995 22.0625 18.125V5.875ZM6.53125 12C6.53125 8.9796 8.9799 6.53125 12 6.53125C15.0207 6.53125 17.4688 8.97931 17.4688 12C17.4688 15.0201 15.0204 17.4688 12 17.4688C8.98019 17.4688 6.53125 15.0198 6.53125 12ZM12 7.84375C14.2958 7.84375 16.1562 9.70419 16.1562 12C16.1562 14.2953 14.2955 16.1562 12 16.1562C9.70506 16.1562 7.84375 14.2949 7.84375 12C7.84375 9.70451 9.70474 7.84375 12 7.84375ZM16.8125 5.875C16.8125 5.1505 17.4005 4.5625 18.125 4.5625C18.8504 4.5625 19.4375 5.1505 19.4375 5.875C19.4375 6.5995 18.8504 7.1875 18.125 7.1875C17.4005 7.1875 16.8125 6.5995 16.8125 5.875Z" fill="white"/>
</g>
<defs>
<clipPath id="clip0_473:403">
<rect width="24" height="24" fill="white"/>
</clipPath>
</defs>
</svg>
