<?xml version="1.0" encoding="UTF-8" standalone="no"?><!DOCTYPE svg PUBLIC "-//W3C//DTD SVG 1.1//EN" "http://www.w3.org/Graphics/SVG/1.1/DTD/svg11.dtd"><svg width="100%" height="100%" viewBox="0 0 717 528" version="1.1" xmlns="http://www.w3.org/2000/svg" xmlns:xlink="http://www.w3.org/1999/xlink" xml:space="preserve" xmlns:serif="http://www.serif.com/" style="fill-rule:evenodd;clip-rule:evenodd;stroke-linejoin:round;stroke-miterlimit:2;"><path d="M688.301,295.587c-0.038,0.071 -0.073,0.139 -0.111,0.213c-3.753,7.005 -7.422,13.793 -11.085,20.382c-38.1,57.508 -125.67,101.274 -213.628,126.97c-76.972,22.483 -135.554,20.349 -178.29,18.812c-26.178,-0.951 -46.323,-1.665 -60.791,4.04c7.826,-86.357 46.105,-150.674 80.29,-207.92c32.265,-54.019 60.128,-100.675 47.817,-149.003c-1.384,-5.421 -6.811,-8.658 -12.034,-7.242c-5.272,1.42 -8.42,6.958 -7.043,12.376c4.871,19.121 1.73,38.526 -6.231,59.266c-2.579,-13.839 -6.532,-26.481 -9.325,-35.392l-1.491,-4.81c-1.088,-3.561 -4.764,-5.563 -8.238,-4.431c-3.462,1.119 -5.392,4.907 -4.301,8.471l1.522,4.913c4.34,13.878 10.758,34.579 11.224,54.786c-4.726,9.294 -10.102,18.905 -15.936,28.912c-1.961,-27.74 -9.884,-55.016 -13.982,-66.021c-1.301,-3.487 -5.116,-5.219 -8.482,-3.895c-3.387,1.335 -5.078,5.24 -3.78,8.73c6.784,18.258 15.463,54.906 13.122,83.332c-6.297,10.558 -12.863,21.585 -19.423,33.098c0.187,-36.258 -6.172,-84.834 -10.491,-98.175c-1.146,-3.536 -4.878,-5.461 -8.31,-4.275c-3.449,1.175 -5.306,5.002 -4.163,8.545c7.129,22.018 13.781,104.829 7.167,122.902c-1.989,3.859 -3.946,7.796 -5.887,11.769c-0.362,-0.014 -0.724,-0.06 -1.094,-0.028c-5.537,0.379 -11.037,0.678 -16.502,0.93c4.809,-51.367 -2.513,-110.846 -6.659,-121.617c-1.333,-3.476 -5.189,-5.155 -8.527,-3.792c-3.377,1.374 -5.027,5.304 -3.691,8.773c3.138,8.151 10.778,66.199 5.645,117.14c-8.424,0.241 -16.73,0.326 -24.898,0.287c5.782,-34.887 5.409,-65.134 -1.298,-102.563c-0.66,-3.66 -4.04,-6.095 -7.661,-5.414c-3.566,0.675 -5.928,4.196 -5.268,7.871c6.556,36.492 6.801,65.802 0.935,99.932c-9.007,-0.209 -17.789,-0.578 -26.334,-1.093c7.26,-25.497 6.622,-59.841 2.962,-86.644c-0.504,-3.696 -3.828,-6.327 -7.415,-5.752c-3.594,0.515 -6.104,3.93 -5.596,7.626c3.452,25.33 4.218,60.31 -3.415,83.833c-7.646,-0.618 -15.038,-1.36 -22.156,-2.205c4.488,-23.129 4.702,-45.228 4.115,-65.869c-0.104,-3.664 -3.025,-6.557 -6.56,-6.557l-0.203,-0c-3.625,0.11 -6.484,3.223 -6.377,6.955c0.566,20.09 0.397,41.561 -4.025,63.76c-8.103,-1.168 -15.76,-2.478 -22.906,-3.916c4.919,-20.015 7.195,-39.456 7.195,-48.218c-0,-3.731 -2.945,-6.759 -6.574,-6.759c-3.631,-0 -6.573,3.028 -6.573,6.759c0,7.878 -2.223,26.477 -6.904,45.382c-6.584,-1.605 -12.594,-3.32 -17.956,-5.127c1.702,-5.048 3.152,-10.43 4.461,-15.478c0.718,-2.762 1.391,-5.368 2.054,-7.626c1.035,-3.578 -0.932,-7.349 -4.412,-8.421c-3.491,-1.068 -7.14,0.959 -8.179,4.53c-0.697,2.382 -1.408,5.126 -2.164,8.034c-1.167,4.491 -2.52,9.56 -4.057,14.158c-7.515,-3.469 -12.835,-7.154 -15.449,-10.942c-1.557,-2.243 -1.457,-3.61 -0.745,-5.346c19.578,-47.455 131.124,-141.835 193.946,-190.117c29.02,-22.294 105.098,-74.151 184.683,-74.151c65.539,-0 123.071,55.776 165.078,96.506c12.481,12.099 23.255,22.547 32.631,29.939c17.483,13.778 33.526,23.125 47.68,31.376c25.561,14.893 42.446,24.734 49.029,49.418c6.449,24.18 4.112,46.932 -4.936,68.073Zm-259.36,198.264c-59.794,17.758 -201.006,18.181 -206.969,0.664c-0.006,-0.092 0.045,-0.348 0.149,-0.674c0.027,-0.06 0.031,-0.128 0.055,-0.188c0.218,-0.629 0.646,-1.537 1.509,-2.791c5.161,-7.487 17.33,-9.287 35.424,-9.287c7.477,0 15.97,0.305 25.381,0.65c41.603,1.509 104.438,3.781 184.383,-19.576c54.35,-15.876 108.471,-38.597 152.198,-67.392c-37.603,38.21 -92.083,68.887 -192.13,98.594Zm283.301,-271.695c-8.741,-32.813 -31.719,-46.197 -58.316,-61.697c-13.598,-7.928 -29.006,-16.902 -45.397,-29.828c-8.579,-6.763 -19.019,-16.885 -31.102,-28.604c-41.918,-40.627 -105.236,-102.027 -178.608,-102.027c-85.502,0 -165.882,54.679 -196.483,78.185c-17.752,13.646 -174.172,135.11 -200.295,198.438c-3.483,8.456 -2.486,17.335 2.824,25.01c22.826,33.013 133.952,46.518 231.987,41.107c-18.166,41.711 -32.013,89.371 -33.522,144.987c-2.682,8.62 0.235,15.17 2.703,18.735c3.746,5.428 14.748,21.371 93.278,21.371c4.339,0 8.903,-0.049 13.664,-0.152c45.639,-0.977 96.716,-7.015 121.434,-14.357c169.121,-50.209 213.614,-103.447 260.769,-188.803c19.519,-30.521 27.09,-64.786 17.064,-102.365Z" style="fill:#84cc16;fill-rule:nonzero;"/></svg>