<?xml version="1.0" encoding="UTF-8" standalone="no"?><!DOCTYPE svg PUBLIC "-//W3C//DTD SVG 1.1//EN" "http://www.w3.org/Graphics/SVG/1.1/DTD/svg11.dtd"><svg width="100%" height="100%" viewBox="0 0 1548 1873" version="1.1" xmlns="http://www.w3.org/2000/svg" xmlns:xlink="http://www.w3.org/1999/xlink" xml:space="preserve" xmlns:serif="http://www.serif.com/" style="fill-rule:evenodd;clip-rule:evenodd;stroke-linejoin:round;stroke-miterlimit:2;"><g><path d="M935.49,663.13c-10.238,8.979 -38.671,26.354 -51.667,38.763c-13.483,12.841 -25.879,28.741 -19.392,48.429c42.084,-1.659 44.363,-56.713 69.459,-80.742c-0.217,-2.9 1.987,-3.408 1.6,-6.45Z" style="fill:#124e9c;"/><path d="M273.277,527.464c-17.746,-4.388 -43.133,-14.938 -69.429,-16.163c-8.375,-14.271 -18.954,-26.262 -24.225,-43.621c8.029,0.5 14.825,-0.246 21,-1.612c4.963,5.104 6.763,20.725 16.133,16.179c2.296,-8.75 -4.345,-8.579 -4.812,-14.567c7.417,-2.775 7.883,-12.529 16.137,-14.516c13.042,25.75 41.817,44.27 45.196,74.3Zm-101.725,-166.363c14.521,22.075 24.759,48.442 38.75,71.058c-6.208,0.205 -10.621,-3.887 -14.65,-7.975c-6.171,-6.271 -11.433,-12.537 -20.887,-3.345c-2.963,9.429 -1.009,23.779 -4.859,32.325c-15.912,-11.913 -25.962,-30.138 -37.116,-46.846c-11.075,-16.596 -24.742,-34 -30.7,-54.913c23.204,3.15 46.82,5.942 69.462,9.696Zm-96.917,-19.404c15.821,58.571 61.642,109.587 95.271,163.133c8.038,12.721 21.717,47.559 33.942,51.704c3.2,1.075 5.579,-0.608 8.154,-2.295c2.279,-1.496 4.713,-2.992 8.009,-2.559c4.437,0.588 10.271,8.934 14.533,9.675c6.75,1.213 14.025,-2.896 25.846,-4.821c17.637,-2.854 30.666,0 40.375,-8.066c4.404,-22.167 -3.629,-33.105 -16.163,-42.004c-27.204,-62.7 -70.062,-109.763 -114.696,-155.059l-12.87,0c-22.276,-6.283 -61.18,-32.821 -82.401,-9.708Z" style="fill:url(#_Radial1);"/><path d="M73.023,554.918c2.05,-0.092 2.233,-2.092 4.858,-1.625c17.496,8.079 43.263,12.208 66.217,17.758c20.754,5.042 41.85,12.55 61.367,17.779c18.008,4.854 40.187,3.875 51.666,19.375c-7.833,19.046 -28.683,30.758 -40.375,51.667c-11.779,21.112 -17.283,46.025 -27.458,69.479c-6.217,-8.875 -15.388,-14.754 -32.262,-12.921c-35.834,-21.796 -82.801,-32.437 -127.617,-45.233c12.35,-40.921 29.521,-77.079 43.604,-116.279Zm132.442,177.641c25.733,-38.312 40.762,-87.346 61.362,-130.825c-2.016,-2.112 -3.271,-1.375 -5.062,-0.641c-1.184,0.487 -2.604,0.975 -4.634,0.641c-43.662,-37.6 -107.666,-54.895 -176.041,-67.816c-0.684,-3.071 -3.475,-4.067 -3.209,-8.084l-4.858,0c-23.921,32.529 -44.829,57.642 -61.379,101.775c-5.35,14.267 -13.463,28.959 -11.279,41.971c0.933,5.759 12.025,25.3 19.362,29.071c11.263,5.771 34.125,4.45 50.071,8.067c20.675,4.729 42.254,11.32 59.75,16.15c5.896,1.625 14.054,3.937 19.388,6.483c7.85,3.754 16.475,12.996 25.829,12.921c14.1,-0.142 16.146,-12.471 30.7,-9.713Z" style="fill:url(#_Radial2);"/><path d="M148.936,637.289c-9.401,3.379 -12.967,-5.601 -16.146,-12.938c12.304,-2.604 11.9,7.508 16.146,12.938Zm-46.846,-12.938c2.825,11.492 20.946,40.962 35.554,43.633c12.567,2.284 19.996,-7.416 29.054,-11.308c10.546,-4.558 17.25,-0.883 19.387,-9.692c2.871,-11.854 -24.799,-40.362 -37.149,-42.008c-19.234,-2.575 -33.717,15.467 -46.846,19.375Z" style="fill:url(#_Radial3);"/><path d="M261.985,847.239c3.013,18.116 8.284,43.991 4.842,56.537c-2.45,9.092 -20.696,16.679 -32.283,22.6c-39.475,20.217 -77.85,40.613 -104.996,64.625c-3.1,-3.908 -1.008,-12.983 -1.613,-19.392c-13.033,-13.246 -11.82,-31.887 -21.004,-54.925c-5.675,-14.287 -15.712,-25.891 -16.133,-37.15c-0.417,-10.904 8.442,-20.058 6.454,-32.295c37.042,-24.884 84.288,-39.542 134.054,-51.671c6.484,-2.125 5.863,-11.371 14.517,-11.309c4.404,17.792 12.1,38.454 16.162,62.98Zm-138.891,159.891c23.033,9.638 40.488,-12.533 58.137,-22.6c45.684,-2.762 66.484,-30.429 88.855,-56.521c3.225,-2.687 11.975,0.138 14.516,-3.216c7.325,-10.375 3.042,-25.792 0,-37.179c-8.717,-32.463 -22.725,-68.655 -33.908,-96.9c1.117,-7.059 -2.763,-9.092 -1.625,-16.151c-6.579,4.455 -17.517,-6.091 -24.25,-6.45c-15.417,-0.837 -36.421,13.88 -54.913,22.601c-17.837,8.454 -36.958,20.958 -51.65,24.229c-19.437,4.329 -42.345,1.937 -50.087,14.533c-6.421,10.5 -7.633,39.029 -4.858,50.058c11.608,45.65 42.783,89.438 59.783,127.596Z" style="fill:url(#_Radial4);"/><path d="M1245.62,785.876c-5.85,-1.537 -2.263,6.371 -3.225,9.692c-8.625,21.671 -32.234,29.316 -46.834,46.816c-11.862,14.221 -15.729,40.7 -22.629,61.392c-7.291,21.842 -18.566,41.433 -21.004,62.996c0.046,6.408 6.3,6.608 11.325,8.079c-18.583,14.687 -55.933,21.204 -75.917,38.767c-17.154,15.029 -26.695,30.866 -43.616,48.425c-22.429,23.316 -72.084,68.083 -8.067,79.158c-5.571,22.242 -30.137,41.508 -19.387,69.446c38.437,-19.158 48.208,-66.996 79.154,-93.679c-6.267,24.508 8.187,39.529 8.066,63.012c4.73,3.858 8.392,8.825 14.534,11.292c46.754,74.408 95.241,147.858 146.958,218.05c52.35,70.979 90.65,150.462 137.308,227.725c-54.304,30.667 -121.266,43.45 -164.762,83.996c-22.617,21.091 -30.375,48.8 -50.075,74.3c-20.663,-15.354 -18.892,-45.788 -30.667,-67.846c-5.258,-9.833 -14.191,-20.292 -20.987,-29.088c-6.575,-8.437 -13.617,-22.287 -25.859,-22.612c-4.233,5.4 2.159,8.158 3.23,12.933c2.866,12.813 1.35,26.713 3.241,43.604c1.488,13.404 7.692,32.671 14.534,50.075c9.45,24.042 12.208,50.642 25.841,62.975c2.654,2.421 10.829,6.592 12.892,6.471c7.817,-0.437 6.175,-8.933 14.567,-12.925c3.608,-1.716 8.195,-1.5 12.166,-1.271c2.971,0.163 5.6,0.325 7.209,-0.325c13.308,-5.491 24.35,-30.558 33.908,-45.216c10.329,-15.871 22.708,-35.554 33.937,-45.234c47.188,-40.812 102.796,-56.195 148.571,-83.995c14.567,12.908 37.288,17.637 63.009,19.375c7.57,11.258 15.854,21.825 30.683,25.858c10.642,-18.304 44.408,-34.267 30.696,-61.379c-8.067,-2.838 -15.775,-0.992 -22.629,1.596c-5.367,-9.88 -5.988,-22.059 -16.15,-29.055c-19.884,-13.729 -56.696,-4.991 -79.155,-19.387c-21.25,-13.663 -20.041,-27.538 -38.733,-43.604c-3.679,-3.879 3.538,-5.959 1.6,-12.921c-5.679,-4.017 -9.062,-10.317 -17.746,-11.321c-42.316,-83.921 -92.358,-165.854 -148.604,-239.042c-18.925,-24.629 -35.754,-53.291 -56.542,-72.67c-14.237,-13.321 -34.62,-20.18 -45.2,-37.15c15.08,-10.205 15.125,-35.459 14.534,-61.363c-5.117,-5.662 -7.988,-13.554 -16.163,-16.15c-2.558,-4.996 1.304,-16.379 -6.466,-16.146c3.412,15.775 -6.967,17.792 -14.534,22.6c8.313,-23.296 23.671,-42.112 37.163,-61.362c18.925,-27.038 29.891,-57.209 48.446,-83.996c4.7,-4.659 -4.392,-3.8 -4.859,-8.083c17.192,-17.763 28.45,-43.834 38.784,-71.075c12.345,-32.559 30.587,-65.705 27.454,-101.738Z" style="fill:url(#_Radial5);"/><path d="M161.873,868.255c-26.896,3.338 -18.304,46.104 11.296,29.054c14.887,25.592 53.608,2.467 32.296,-20.987c2.433,-7.817 17.746,-11.308 16.145,-17.775c-5.228,-13.046 -22.383,-0.046 -27.454,6.467c3.538,-31.721 -37.087,-28.355 -32.283,3.241Z" style="fill:url(#_Radial6);"/><path d="M316.915,1047.52c19.125,29.862 25.95,72.042 51.666,95.308c-21.716,32.634 -44.441,64.292 -66.2,96.888c-2.733,8.029 -5.121,16.408 -12.925,19.404c-29.891,-26.092 -51.916,-60.096 -72.7,-95.304c31.442,-32.638 62.855,-92.404 100.159,-116.296Zm-4.855,-21c-1.445,-1.009 -2.899,-1.954 -3.229,-0c-32.012,39.029 -79.854,57.362 -109.82,103.371c-3.167,4.821 -16.425,26.741 -16.179,33.925c0.603,16.021 27.099,28.325 37.179,38.75c15.604,16.22 32.575,39.425 50.075,62.991c5.395,7.292 11.337,18.35 17.741,19.388c14.709,2.354 24.138,-18.104 30.713,-32.296c7.712,-16.692 19.516,-30.946 24.216,-38.779c8.363,-13.854 11.184,-27.067 19.371,-43.588c5.929,-11.945 20.809,-27.437 21.004,-42.004c0.205,-15.608 -17.899,-36.796 -30.696,-53.3c-16.304,-21.046 -26.662,-34.871 -40.375,-48.458Z" style="fill:url(#_Radial7);"/><path d="M830.519,1680.65c-6.45,4.313 -14.763,6.779 -20.983,11.321c-11.93,-11.817 -22.184,-27.533 -33.925,-42.004c-9.942,-12.238 -30.7,-27.654 -22.617,-46.846c24.258,27.425 67.987,35.412 77.525,77.529Zm62.979,-77.529c-2.587,-15.492 -6.283,-39.075 1.613,-51.667c4.283,15.342 4.112,37.767 -1.613,51.667Zm87.238,-87.221c-5.925,2.683 -16.225,1.042 -17.775,8.079c-6.921,71.525 19.141,161.838 -9.68,218.05c-8.066,-24.925 -20.537,-54.216 -17.791,-87.208c1.412,-16.458 8.483,-32.867 9.691,-50.088c3.975,-55.204 -7.037,-113.962 -6.437,-156.666c14.383,22.225 29.554,43.666 41.992,67.833Zm-85.625,-125.958c-11.2,2.795 -10.888,-16.425 -6.45,-19.404c2.512,6.099 8.654,8.595 6.45,19.404Zm-390.83,-142.146c-4.529,29.179 -4.454,62.325 6.45,83.996c-17.246,17.946 -52.675,34.296 -84.012,27.437c13.529,-9.616 31.396,-14.904 45.233,-24.208c-67.316,8.604 -110.629,41.179 -163.121,64.617c17.559,-34.138 68.842,-48.534 108.225,-66.234c13.763,-17.975 28.217,-35.287 32.313,-62.975c-3.383,-6.333 -7.633,-11.787 -14.55,-14.571c8.158,-30.9 42.908,-8.466 69.462,-8.062Zm132.421,-587.925l-11.308,-0c0.187,-6.996 10.829,-5.413 11.308,-0Zm-46.829,-38.733c-13.342,-2.526 -13.433,-20.105 -1.612,-24.23c2,6.067 5.458,17.467 1.612,24.23Zm230.938,-63.009c0.325,-12.158 3.1,-17.466 1.645,-24.212l17.746,-0c-4.625,9.895 -7.741,21.341 -19.391,24.212Zm-174.413,61.379c-11.187,-4.529 -17.233,-21.591 -22.617,-35.521c-8.112,-20.97 -21.079,-40.625 -12.904,-63.008c2.292,-0.387 2.729,-2.654 4.838,-3.212c11.012,32.095 31.891,62.825 30.683,101.741Zm230.983,-106.595c-15.9,15.745 -29.641,-13.621 -27.47,-25.859c8.966,8.813 22.275,13.263 27.47,25.859Zm-381.166,-27.455c0.775,5.104 -2.929,5.709 -1.646,11.309c-9.725,-0.513 -9.833,-10.625 -12.938,-17.779c8.084,-1.038 9.525,4.499 14.584,6.47Zm276.166,-16.146c4.517,13.617 16.909,41.942 -6.479,43.601c-9.587,-8.717 -14.646,-21.934 -20.991,-33.925c8.845,-3.517 15.066,-9.676 27.47,-9.676Zm50.075,-19.391c2.325,10.596 7.163,18.691 6.455,32.325c-4.78,1.675 -4.763,8.175 -12.938,6.437c-7.167,-7.895 -10.875,-19.25 -14.537,-30.679c3.07,-6.625 10.566,-8.842 21.02,-8.083Zm14.517,21.004c1.675,-11.746 -13.217,-14.258 -6.454,-25.829c10.271,-0.838 12.071,21.204 6.454,25.829Zm-427.996,-35.542c-3.65,-5.008 -11.154,-6.091 -12.921,-12.92c-3.445,-5.009 3.863,-10.467 4.855,-16.146l4.837,-0c10.05,17.979 39.896,27.596 40.362,48.458c-14.658,-4.204 -16.287,-21.404 -37.133,-19.392Zm-43.621,-32.291c-10.7,4.933 -13.558,17.666 -29.07,17.746c3.2,-4.871 -0.201,-16.338 3.258,-20.971c6.867,3.262 11.279,3.07 16.2,2.883c2.846,-0.108 5.858,-0.217 9.612,0.342Zm552.405,-124.359c9.583,7.85 22.258,18.892 35.52,29.067c13.992,10.767 31.488,18.833 38.763,27.458c6.375,7.538 2.279,13.696 11.292,16.146c19.75,5.4 25.3,-14.908 40.379,-16.146c-0.421,12.75 -19.546,14.58 -16.146,25.842c21.483,-15.896 50.517,1.488 48.442,24.213c-0.934,10.75 -11.017,13.466 -14.521,24.229c-29.3,4.095 -51.7,15.062 -53.3,46.845c0.621,6.888 7.137,7.913 8.071,14.538c-7.45,10.654 -30.684,21.654 -20.992,38.762c8.383,2.155 11.875,-3.75 16.021,-9.649c4.087,-5.83 8.812,-11.659 19.504,-9.726c1.317,14.534 -11.496,18.863 -6.471,32.296c9.213,24.538 34.592,-8.329 42.008,-12.921c3.659,10.767 17.809,26.805 9.68,38.78c-0.188,-15.45 -13.93,-17.313 -30.7,-16.163c-18.18,16.283 -45.342,23.546 -69.413,33.892c13.621,-21.438 4.621,-41.896 -11.325,-48.429c-7.383,-3.038 -14.425,-0.85 -24.229,-3.238c-14.396,-3.508 -58.775,-38.237 -61.363,-48.462c-2.204,-8.642 1.892,-19.9 1.596,-29.067c-1.287,-41.292 10.504,-88.633 14.534,-134.054c1.212,-13.492 -1.967,-26.013 6.483,-37.15c2.05,-0.075 2.237,-2.063 4.842,-1.596c2.854,5.721 6.575,10.654 11.325,14.533Zm143.729,14.521c-23.546,4.25 -36.45,-7 -51.7,-16.15c-27.534,-16.521 -54.059,-35.816 -77.513,-53.296c48.709,17.496 90.65,41.788 129.213,69.446Zm-851.188,-180.9c4.808,16.738 14.721,28.354 17.779,46.846c-10.083,-14.129 -17.575,-30.883 -25.845,-46.846l8.066,0Zm948.088,50.088c0.079,2.979 -4.604,4.825 -4.854,8.066c-0.292,3.909 4.591,4.467 3.241,9.696c-1.691,6.559 -4.308,6.096 -8.062,9.663c-9.325,-26.742 -13.992,-58.121 -24.246,-83.95c19.667,9.912 33.379,32.683 33.921,56.525Zm-77.542,-67.834c-7.737,-4.637 -9.771,-14.979 -16.129,-21.016c16.333,-0.513 34.929,13.479 16.129,21.016Zm-32.279,-24.241c-9.925,4.066 -22.229,-0.496 -16.15,-11.292c7.354,1.767 16.971,1.35 16.15,11.292Zm-768.804,40.391c4.716,38.654 20.379,97.617 45.212,93.675c17.984,-2.87 6.583,-25.425 8.084,-40.362c1.212,-12.084 9.575,-25.471 12.904,-32.325c13.917,33.504 2.7,92.062 19.391,122.758c-18.037,8.346 -36.22,16.521 -41.987,37.15c15.354,9.709 20.287,-10.95 32.312,-14.55c24.813,-7.446 47.634,11.542 61.375,12.921c8.817,0.892 17.263,-1.133 25.075,-3.158c14.167,-3.671 26.246,-7.342 34.663,6.387c-12.779,-0.142 -19.654,5.846 -27.425,8.063c-11.771,3.429 -26.713,0.483 -33.942,3.258c-3.504,1.35 -4.371,5.908 -8.062,6.438c-3.067,0.45 -5.692,-0.313 -8.209,-1.076c-3.133,-0.95 -6.104,-1.9 -9.554,-0.508c-11.183,4.471 -17.637,21.284 -16.179,38.734c-10.454,13.791 -17.404,31.041 -29.038,43.62c-24.383,7.384 -31.52,-15.095 -43.62,-29.083c-7.1,-8.175 -15.446,-13.792 -21,-22.604c-6.659,-10.5 -9.433,-21.079 -17.78,-25.842c0.992,-19.512 -14.054,-38.112 -14.516,-58.15c-0.204,-8.316 3.75,-16.429 3.225,-24.233c-1.025,-14.733 -12.112,-25.763 -6.488,-38.763c4.238,18.909 36.271,34.205 40.396,8.084c2.825,-17.763 -15.975,-41.2 -22.617,-67.834c-7.241,-29.054 -14.983,-73.229 -12.916,-93.675c3.142,19.096 27.716,46.83 30.696,71.075Zm-24.234,48.442c-9.754,-9.075 -17.37,-34.296 -30.712,-45.217c-5.458,-14.225 -10.579,-36.358 -32.263,-29.066c-7.633,8.933 -3.258,21.683 3.229,29.066c2.326,45.046 25.842,68.875 32.296,109.825c-7.458,0.059 -13.054,-4.871 -19.383,-9.8c-7.05,-5.487 -15.008,-10.975 -27.467,-9.575c-18.195,14.271 8.813,35.863 21.005,50.071c13.4,15.621 21.995,29.921 32.308,37.15c10.538,51.363 35.554,88.234 67.837,117.888c-5.679,14.629 -1.304,26.341 6.45,35.554c-3.704,6.033 -12.349,12.083 -9.712,20.971c2.05,6.875 13.096,6.375 21.004,11.308c25.921,16.179 48.321,66.392 71.075,100.146c10.129,15 24.104,24.85 30.713,37.133c36.516,10.842 40.3,54.463 85.579,56.542c14.566,15.058 30.883,28.342 64.608,24.246c7.258,-2.98 10.513,-9.946 17.775,-12.938c29.163,0.434 54.138,5.088 69.433,19.388c4.709,0.912 9.13,0.183 13.259,-0.542c5.208,-0.921 9.946,-1.837 14.191,0.542c-23.391,147.254 -27.425,327.904 -51.666,479.666c-19.592,6.317 -41.942,24.604 -67.834,24.246c-12.5,-0.171 -21.562,-7.941 -32.308,-4.837c-11.604,3.333 -13.592,15.466 -22.604,20.987c-5.634,-4.45 -13.167,-2.487 -21.804,-0.525c-5.304,1.209 -11.021,2.413 -16.971,2.134c-9.554,-0.43 -17.313,-6.867 -27.459,-4.855c-10.329,2.08 -24.878,21.796 -33.908,29.088c-11.729,9.433 -24.616,22.058 -38.779,22.633c-3.983,0.142 -8.575,-1.391 -13.179,-2.925c-8.8,-2.933 -17.638,-5.866 -22.342,2.925c-7.462,13.9 17.529,32.713 30.679,33.904c7.942,0.721 14.525,-1.887 20.838,-4.495c8.754,-3.617 16.996,-7.234 27.637,-1.967c-5.971,5.904 -12.42,20.037 -21,25.842c-14.241,9.595 -33.087,8.591 -50.091,16.145c-17.434,7.771 -34.742,23.513 -48.425,35.521c-14.55,12.784 -28.604,29.3 -33.938,48.475c1.567,0.029 1.267,1.983 1.642,3.225c22.429,14.904 39.075,-14.583 61.366,-16.133c2.838,-0.213 5.767,0.7 8.705,1.617c3.037,0.945 6.091,1.895 9.07,1.595c14.755,-1.533 27.921,-16.129 41.976,-17.775c67.662,9.925 110.07,-33.029 161.508,-50.07c27.625,13.229 56.058,1.95 88.833,-0c-41.541,93.008 -46.475,247.349 -56.541,377.941c-1.375,17.959 -5.538,38.746 8.1,50.084c4.512,1.908 11.137,1.787 17.775,1.616c3.412,21.467 -1.892,54.184 17.745,56.538c12.255,1.466 20.817,-11.425 24.23,-25.854c18.058,10.004 11.991,49.37 38.745,51.679c4.888,0.421 11.405,-5.238 19.392,-6.463c4.271,-0.662 8.421,-0.296 12.192,0.067c4.008,0.387 7.587,0.779 10.425,-0.067c17.808,-5.321 26.833,-25.687 24.229,-48.441c8.75,10.037 2.496,34.65 20.987,38.741c13.9,3.092 29.488,-9.487 37.15,-19.371c17.467,-22.52 26.805,-67.32 43.621,-80.754c26.588,40.688 23.575,111.004 71.042,130.825c14.704,-35.162 -1.333,-75.075 -9.679,-111.45c-5.771,-25.221 -15.017,-49.408 -12.938,-71.058c10.734,5.675 10.05,23.325 12.938,37.15c6.329,30.167 18.275,76.671 56.525,53.296c13.975,27.921 3.321,87.904 45.233,83.996c7.042,-0.651 17.575,-7.38 22.613,-14.563c28.591,-40.596 31.583,-159.337 19.358,-205.1c-12.283,2.004 -6.792,16.463 -8.063,24.217c-0.87,5.383 -3.816,10.671 -4.841,16.146c-9.679,51.887 -5.396,118.82 -32.296,153.441c-11.85,-8.033 -15.263,-31.846 -17.746,-48.441c-5.908,-39.075 5.446,-68.5 8.038,-106.596c3.333,-48.567 -4.438,-96.096 -8.038,-142.15c19.421,18.258 28.325,47.062 59.738,53.3c-3.334,-25.996 -19.888,-47.529 -32.313,-69.43c-41.65,-73.545 -77.804,-157.337 -138.892,-211.599c25.084,-12.951 61.8,-14.721 88.838,-25.842c5.321,-11.896 11.275,-23.158 16.15,-35.521c-5.154,-0.342 -11.325,10.888 -17.779,14.517c-8.159,1.166 -11.788,-2.184 -17.763,-3.225c-60.108,12.196 -126.108,20.741 -197.046,27.458c-60.058,5.708 -115.279,28.154 -159.891,32.313c-13.188,1.237 -27.517,1.437 -35.538,-0c-29.225,-5.263 -53.958,-48.555 -33.925,-79.146c4.904,-7.463 13.792,-6.854 19.392,-16.142c73.304,11.567 122.742,-37.758 198.671,-43.604c37.446,-2.888 73.912,2.637 96.921,-17.779c22.025,2.729 95.083,42.475 96.883,-1.613c0.808,-19.579 -26.058,-29.362 -29.067,-45.233c-1.954,-10.375 7.754,-27.813 12.934,-41.988c10.254,-28.262 17.575,-51.7 30.666,-79.158c5.696,-11.917 12.271,-28.183 19.392,-35.525c8.358,-8.654 19.558,-9.254 24.212,-16.146c11.513,-16.904 14.567,-62.912 9.709,-85.592c-2.109,-9.787 -13.429,-18.77 -6.467,-27.47c11.775,-2.638 11.867,6.341 24.213,6.466c32.608,0.342 48.741,-54.941 46.845,-88.833c-8.87,27.192 -33.629,38.529 -53.295,54.908l-17.763,0c-9.058,11.296 -24.525,16.521 -25.825,32.313c-0.837,9.85 6.775,16.954 8.05,25.842c2.171,15.141 -1.008,43.17 -8.05,54.9c-4.962,8.233 -14.396,8.404 -22.617,14.545c-30.387,22.725 -36.512,63.179 -58.17,98.53c-9.463,-54.026 -17.125,-109.93 -33.909,-156.667c-11.012,68.158 10.534,138.317 8.067,213.208c-7.663,7.913 -17.746,14.584 -12.892,30.667c-5.146,5.629 -15.587,5.991 -24.241,8.083c-1.196,-55.567 -9.092,-113.096 -24.23,-155.058c-3.258,-9.013 -6.112,-23.142 -16.15,-25.842c-2.683,53.284 7.496,126.004 0,182.513c-9.008,-4.329 -10.25,-17.079 -12.92,-25.842c-3.071,-10.021 -4.25,-20.383 -6.455,-30.7c-4.4,-20.413 -14.3,-43.229 -12.933,-62.979c1.225,-17.709 21,-49.9 29.067,-67.846c11.029,-24.462 19.329,-48.271 29.083,-67.833c-11.525,4.637 -14.596,17.746 -24.212,24.246c-5.009,-22.23 14.8,-33.646 12.904,-58.155c-25.313,35.554 -55.684,66.005 -75.913,106.596c4.25,-122.075 30.096,-222.512 74.3,-308.462c7.246,-14.117 15.359,-28.434 22.617,-42.009c13.342,-24.941 19.575,-50.27 38.767,-69.445c20.675,8.487 39.258,6.358 50.054,-9.696c21.529,7.541 38.608,19.545 42.004,45.216c3.925,2.53 6.887,6.021 14.521,4.842c-14.396,17.358 -42.067,21.467 -42.004,53.313c31.179,1.783 46.22,-25.7 75.941,-30.696c-3.191,36.204 -9.491,83.046 -8.096,129.212c-28.479,17.046 -62.17,29.888 -90.433,50.054c-12.004,8.58 -26.975,19.359 -38.779,30.684c-10.704,10.316 -26.833,26.445 -20.971,45.246c20.446,2.962 30.108,-15.384 43.604,-25.842c25.484,-19.775 53.267,-35.6 87.221,-51.684c28.821,-13.683 50.725,-14.737 48.446,-53.312c-1.571,-26.342 1.333,-67.758 -3.246,-93.662c-2.092,-12.005 -10.158,-23.792 -4.837,-33.938c16.287,-0.233 42.162,-28.7 59.75,-25.846c9.991,1.629 16.054,21.054 22.616,32.329c18.334,31.442 43.338,75.4 61.396,100.125c39.65,-0.308 39.771,58.375 75.9,61.367c0.229,-27.563 -19.871,-48.675 -35.537,-67.833c-16.475,-20.15 -32.825,-38.825 -45.221,-61.363c-24.896,-45.279 -55.113,-85.875 -90.446,-121.15c8.437,-19.541 19.312,-36.667 22.617,-61.362c-6.392,-0.355 -10.984,-1.596 -17.78,-4.854c-15.975,4.499 -20.8,20.133 -30.679,30.699c-2.296,-12.537 4.079,-16.366 4.838,-25.845c12.704,-7.771 30.575,-10.346 51.687,-9.696c18.688,-13.075 20.863,-42.654 33.938,-61.379c11.291,-0.246 9.15,10.675 22.583,16.15c35.929,14.704 72.846,-14.6 33.942,-29.071c-18.088,-18.534 -33.863,-39.338 -53.3,-56.525c1.521,-20.954 19.187,-27.329 30.666,-43.6c10.659,-15.113 16.384,-35.538 25.842,-48.475c14.196,-19.329 57.8,-52.259 11.313,-66.192c-15.73,-42.208 -47.53,-65.5 -88.825,-87.233c-27.95,-14.688 -49.509,-18.538 -82.367,-25.825c-8.592,-1.908 -12.346,-7.154 -22.629,-4.858c-15.125,3.366 -17.45,20.845 -27.454,35.537c-5.68,8.362 -16.771,15 -22.6,25.842c-6.363,11.85 -10.021,24.6 -16.167,35.52c-11.242,20.088 -25.063,26.742 -32.292,50.105c-21.516,-4.779 -48.071,-33.15 -69.462,-12.954c2.171,36.033 25.004,51.454 43.616,71.058c-31.333,53.921 -52.77,123.925 -51.683,205.129c-39.154,-10.379 -71.792,-2.142 -101.758,14.533c-14.271,7.959 -35.767,14.334 -35.521,30.713c7.2,2.446 14.696,1.517 22.633,0.587c6.159,-0.72 12.579,-1.441 19.342,-0.587c4.579,27.191 8.158,54.85 -4.838,74.287c-24.2,-17.25 -16.475,-66.437 -56.529,-67.85c-13.679,40.938 29.6,81.625 17.779,125.971c-23.05,-33.475 -31.645,-81.421 -58.154,-111.437c11.679,-10.934 26.417,-18.784 46.846,-20.971c-28.771,-3.8 -60.854,-1.596 -85.608,8.066c-7.138,2.78 -11.417,8.921 -17.779,11.309c-14.267,5.321 -32.867,0.991 -41.959,12.908c-22.692,-38.129 -57.967,-72.846 -88.833,-104.987c-7.913,-8.221 -14.492,-16.488 -19.388,-25.842c-4.779,-9.104 -4.75,-23.779 -11.325,-32.296c-4.75,-6.187 -16.258,-3.225 -17.745,-11.308c2.483,-13.217 15.57,-9.988 24.216,-12.921c10.484,-3.567 21.479,-11.696 35.517,-14.533c16.429,-3.317 43.017,2.962 40.375,-20.988c-1.517,-14.054 -22.925,-28.046 -35.517,-30.696c-8,-1.683 -18.329,-0.47 -28.75,0.738c-14.191,1.65 -28.562,3.3 -37.487,-2.35c-16.971,-10.796 -15.184,-68.317 -20.988,-98.533c-2.712,-14.117 -8.796,-24.68 -9.696,-32.309c-0.558,-4.717 1.634,-19.717 1.634,-24.216c0.012,-23.125 -4.142,-81.03 -22.634,-82.367c-24.787,-1.779 -28.387,70.067 -30.666,101.741c-1.459,20.196 3.8,34.638 4.837,46.846c-14.162,-7.195 -17.775,-30.866 -25.841,-54.912c-4.421,-13.167 -9.634,-25.996 -14.534,-38.763c-9.462,-24.662 -22.883,-84.987 -46.833,-75.912c-22.908,8.654 -4.138,44.071 -0,66.217c6.204,33.287 12.875,66.466 20.987,92.062Z" style="fill:url(#_Radial8);"/><path d="M237.102,561.576c6.079,-0 12.942,-3.358 23.288,-5.042c17.637,-2.854 30.666,0 40.375,-8.066c4.404,-22.167 -3.629,-33.105 -16.163,-42.004c-27.204,-62.7 -70.062,-109.763 -114.696,-155.059l-12.87,0c-15.742,-4.437 -39.788,-18.996 -60.03,-18.996c-8.4,0 -16.145,2.505 -22.371,9.288c15.821,58.571 61.642,109.587 95.271,163.133c8.038,12.721 21.717,47.559 33.942,51.704c0.7,0.234 1.363,0.338 1.992,0.338c2.258,-0 4.15,-1.317 6.162,-2.633c2.009,-1.317 4.138,-2.634 6.867,-2.634c0.371,0 0.75,0.021 1.142,0.075c4.437,0.588 10.271,8.934 14.533,9.675c0.842,0.154 1.696,0.221 2.558,0.221Zm-9.021,-108.412c13.042,25.75 41.817,44.27 45.196,74.3c-17.746,-4.388 -43.133,-14.938 -69.429,-16.163c-8.375,-14.271 -18.954,-26.262 -24.225,-43.621c1.696,0.108 3.337,0.159 4.929,0.159c5.946,-0 11.2,-0.692 16.071,-1.771c4.346,4.47 6.267,16.996 12.963,17c0.954,-0 2.004,-0.254 3.17,-0.821c2.296,-8.75 -4.345,-8.579 -4.812,-14.567c7.417,-2.775 7.883,-12.529 16.137,-14.516Zm-44.429,-36.963c-2.575,0 -5.454,1.296 -8.887,4.638c-2.963,9.429 -1.009,23.779 -4.859,32.325c-15.912,-11.913 -25.962,-30.138 -37.116,-46.846c-11.075,-16.596 -24.742,-34 -30.7,-54.913c23.204,3.15 46.82,5.942 69.462,9.696c14.521,22.075 24.759,48.442 38.75,71.058c-0.146,0.005 -0.296,0.009 -0.441,0.009c-5.979,-0 -10.275,-3.992 -14.209,-7.984c-3.929,-3.991 -7.491,-7.983 -12,-7.983Z" style="fill:url(#_Radial9);"/><path d="M174.648,742.272l0.117,-0c12.683,-0.129 15.612,-10.113 26.662,-10.113c1.234,0 2.571,0.125 4.038,0.4c25.733,-38.312 40.762,-87.346 61.362,-130.825c-0.991,-1.037 -1.8,-1.387 -2.575,-1.387c-0.804,-0 -1.575,0.375 -2.487,0.746c-0.913,0.375 -1.963,0.75 -3.325,0.75c-0.409,-0 -0.842,-0.034 -1.309,-0.109c-43.662,-37.6 -107.666,-54.895 -176.041,-67.816c-0.684,-3.071 -3.475,-4.067 -3.209,-8.084l-4.858,0c-23.921,32.529 -44.829,57.642 -61.379,101.775c-5.35,14.267 -13.463,28.959 -11.279,41.971c0.933,5.759 12.025,25.3 19.362,29.071c11.263,5.771 34.125,4.45 50.071,8.067c20.675,4.729 42.254,11.32 59.75,16.15c5.896,1.625 14.054,3.937 19.388,6.483c7.816,3.737 16.404,12.921 25.712,12.921Zm-97.512,-189.05c0.224,-0 0.47,0.021 0.745,0.071c17.496,8.079 43.263,12.208 66.217,17.758c20.754,5.042 41.85,12.55 61.367,17.779c18.008,4.854 40.187,3.875 51.666,19.375c-7.833,19.046 -28.683,30.758 -40.375,51.667c-11.779,21.112 -17.283,46.025 -27.458,69.479c-5.45,-7.779 -13.167,-13.258 -26.358,-13.258c-1.859,-0 -3.821,0.108 -5.904,0.337c-35.834,-21.796 -82.801,-32.437 -127.617,-45.233c12.35,-40.921 29.521,-77.079 43.604,-116.279c1.838,-0.084 2.175,-1.696 4.113,-1.696Z" style="fill:url(#_Radial10);"/><path d="M141.377,668.33c10.384,0 17.196,-8.162 25.321,-11.654c10.546,-4.558 17.25,-0.883 19.387,-9.692c2.871,-11.854 -24.799,-40.362 -37.149,-42.008c-1.271,-0.171 -2.525,-0.25 -3.755,-0.25c-17.391,0 -30.833,15.975 -43.091,19.625c2.825,11.492 20.946,40.962 35.554,43.633c1.296,0.238 2.537,0.346 3.733,0.346Zm-4.941,-44.4c8.625,0 8.725,8.529 12.5,13.359c-1.405,0.504 -2.68,0.733 -3.838,0.733c-6.617,-0 -9.604,-7.429 -12.308,-13.671c1.366,-0.287 2.571,-0.421 3.646,-0.421Z" style="fill:url(#_Radial11);"/><path d="M864.431,750.322c42.084,-1.659 44.363,-56.713 69.459,-80.742c-0.217,-2.9 1.987,-3.408 1.6,-6.45c-10.238,8.979 -38.671,26.354 -51.667,38.763c-13.483,12.841 -25.879,28.741 -19.392,48.429Z" style="fill:url(#_Radial12);"/><path d="M134.506,1009.5c17.63,0 32.109,-16.637 46.725,-24.975c45.684,-2.762 66.484,-30.429 88.855,-56.521c3.225,-2.687 11.975,0.138 14.516,-3.216c7.325,-10.375 3.042,-25.792 0,-37.179c-8.717,-32.463 -22.725,-68.655 -33.908,-96.9c1.117,-7.059 -2.763,-9.092 -1.625,-16.151c-1.146,0.776 -2.421,1.096 -3.784,1.096c-6.47,0 -14.899,-7.25 -20.466,-7.546c-0.421,-0.024 -0.85,-0.033 -1.283,-0.033c-15.284,0 -35.642,14.154 -53.63,22.634c-17.837,8.454 -36.958,20.958 -51.65,24.229c-19.437,4.329 -42.345,1.937 -50.087,14.533c-6.421,10.5 -7.633,39.029 -4.858,50.058c11.608,45.65 42.783,89.438 59.783,127.596c3.958,1.658 7.754,2.375 11.412,2.375Zm111.23,-225.246l0.087,0c4.404,17.792 12.1,38.454 16.162,62.98c3.013,18.116 8.284,43.991 4.842,56.537c-2.45,9.092 -20.696,16.679 -32.283,22.6c-39.475,20.217 -77.85,40.613 -104.996,64.625c-3.1,-3.908 -1.008,-12.983 -1.613,-19.392c-13.033,-13.246 -11.82,-31.887 -21.004,-54.925c-5.675,-14.287 -15.712,-25.891 -16.133,-37.15c-0.417,-10.904 8.442,-20.058 6.454,-32.295c37.042,-24.884 84.288,-39.542 134.054,-51.671c6.459,-2.117 5.867,-11.309 14.43,-11.309Z" style="fill:url(#_Radial13);"/><path d="M1302.32,1464.56c7.154,-6.937 14.237,-13.937 21.262,-21.004c-30.679,-52.608 -64.341,-103.391 -100.579,-150.546c-18.925,-24.629 -35.754,-53.291 -56.542,-72.67c-14.237,-13.321 -34.62,-20.18 -45.2,-37.15c15.08,-10.205 15.125,-35.459 14.534,-61.363c-5.117,-5.662 -7.988,-13.554 -16.163,-16.15c-2.533,-4.946 1.225,-16.15 -6.237,-16.15c-0.075,0 -0.15,0 -0.229,0.004c3.412,15.775 -6.967,17.792 -14.534,22.6c8.313,-23.296 23.671,-42.112 37.163,-61.362c18.925,-27.038 29.891,-57.209 48.446,-83.996c4.7,-4.659 -4.392,-3.8 -4.859,-8.083c17.192,-17.763 28.45,-43.834 38.784,-71.075c12.345,-32.559 30.587,-65.705 27.454,-101.738c-0.509,-0.133 -0.946,-0.196 -1.321,-0.196c-3.942,0 -1.025,6.858 -1.904,9.888c-8.625,21.671 -32.234,29.316 -46.834,46.816c-11.862,14.221 -15.729,40.7 -22.629,61.392c-7.291,21.842 -18.566,41.433 -21.004,62.996c0.046,6.408 6.3,6.608 11.325,8.079c-18.583,14.687 -55.933,21.204 -75.917,38.767c-17.154,15.029 -26.695,30.866 -43.616,48.425c-22.429,23.316 -72.084,68.083 -8.067,79.158c-5.571,22.242 -30.137,41.508 -19.387,69.446c38.437,-19.158 48.208,-66.996 79.154,-93.679c-6.267,24.508 8.187,39.529 8.066,63.012c4.73,3.858 8.392,8.825 14.534,11.292c46.754,74.408 95.241,147.858 146.958,218.05c13.221,17.925 25.55,36.4 37.342,55.237Z" style="fill:url(#_Radial14);"/><path d="M191.423,908.509c14.896,0 28.738,-16.016 14.042,-32.187c2.433,-7.817 17.746,-11.308 16.145,-17.775c-1.624,-4.054 -4.403,-5.596 -7.608,-5.596c-7.117,0 -16.35,7.575 -19.846,12.063c1.675,-15.034 -6.57,-22.188 -15.195,-22.188c-9.576,-0 -19.617,8.808 -17.088,25.429c-22.454,2.788 -20.171,33.05 -1.583,33.054c3.675,0 7.991,-1.183 12.879,-4c4.621,7.946 11.546,11.196 18.254,11.2Z" style="fill:url(#_Radial15);"/><path d="M290.14,1285.13c13.396,0 22.179,-19.05 28.4,-32.483c7.712,-16.692 19.516,-30.946 24.216,-38.779c8.363,-13.854 11.184,-27.067 19.371,-43.588c5.929,-11.945 20.809,-27.437 21.004,-42.004c0.205,-15.608 -17.899,-36.796 -30.696,-53.3c-16.304,-21.046 -26.662,-34.871 -40.375,-48.458c-0.829,-0.579 -1.666,-1.138 -2.287,-1.138c-0.458,0 -0.8,0.309 -0.942,1.138c-32.012,39.029 -79.854,57.362 -109.82,103.371c-3.167,4.821 -16.425,26.741 -16.179,33.925c0.603,16.021 27.099,28.325 37.179,38.75c15.604,16.22 32.575,39.425 50.075,62.991c5.395,7.292 11.337,18.35 17.741,19.388c0.788,0.125 1.559,0.187 2.313,0.187Zm26.775,-237.612c19.125,29.862 25.95,72.042 51.666,95.308c-21.716,32.634 -44.441,64.292 -66.2,96.888c-2.733,8.029 -5.121,16.408 -12.925,19.404c-29.891,-26.092 -51.916,-60.096 -72.7,-95.304c31.442,-32.638 62.855,-92.404 100.159,-116.296Z" style="fill:url(#_Radial16);"/><path d="M668.173,1844.91c28.721,-9.17 57.133,-19.137 85.133,-29.841c0.242,-3.771 0.142,-7.679 -0.312,-11.654c2.254,2.583 3.512,6.141 4.454,10.058c25.033,-9.646 49.754,-19.9 74.171,-30.746c7.167,-17.079 14.062,-33.45 23.133,-40.696c4.821,7.379 8.667,15.729 12.021,24.579c15.129,-7.158 30.188,-14.575 45.054,-22.183c-5.091,-19.079 -10.258,-37.337 -8.65,-54.079c10.734,5.675 10.05,23.325 12.938,37.15c0.871,4.158 1.85,8.629 2.991,13.179c9.609,-4.979 19.105,-10.021 28.6,-15.187c-7.12,-21.05 -14.375,-44.713 -12.216,-70.667c1.412,-16.458 8.483,-32.867 9.691,-50.088c3.975,-55.204 -7.037,-113.962 -6.437,-156.666c14.383,22.225 29.554,43.666 41.992,67.833c-5.925,2.683 -16.225,1.042 -17.775,8.079c-5.984,61.871 12.704,137.792 -0.792,193.546c14.112,-7.867 28.096,-15.933 41.942,-24.204c0.329,-3.092 0.608,-6.229 0.825,-9.429c3.333,-48.567 -4.438,-96.096 -8.038,-142.15c19.421,18.258 28.325,47.062 59.738,53.3c-3.334,-25.996 -19.888,-47.529 -32.313,-69.43c-41.65,-73.545 -77.804,-157.337 -138.892,-211.599c25.084,-12.951 61.8,-14.721 88.838,-25.842c5.321,-11.896 11.275,-23.158 16.15,-35.521c-0.079,-0.004 -0.158,-0.008 -0.233,-0.008c-5.105,-0 -11.192,10.95 -17.546,14.525c-1.179,0.171 -2.267,0.246 -3.279,0.246c-5.98,-0 -9.375,-2.58 -14.484,-3.471c-60.108,12.196 -126.108,20.741 -197.046,27.458c-60.058,5.708 -115.279,28.154 -159.891,32.313c-6.838,0.641 -13.984,1.004 -20.4,1.004c-5.954,-0 -11.279,-0.313 -15.138,-1.004c-29.225,-5.263 -53.958,-48.555 -33.925,-79.146c4.904,-7.463 13.792,-6.854 19.392,-16.142c7.646,1.204 15.033,1.75 22.217,1.75c61.691,-0 108.445,-40.117 176.454,-45.354c37.446,-2.888 73.912,2.637 96.921,-17.779c14.258,1.766 49.916,19.05 73.77,19.05c12.988,-0 22.48,-5.121 23.113,-20.663c0.808,-19.579 -26.058,-29.362 -29.067,-45.233c-1.954,-10.375 7.754,-27.813 12.934,-41.988c10.254,-28.262 17.575,-51.7 30.666,-79.158c5.696,-11.917 12.271,-28.183 19.392,-35.525c8.358,-8.654 19.558,-9.254 24.212,-16.146c11.513,-16.904 14.567,-62.912 9.709,-85.592c-2.109,-9.787 -13.429,-18.77 -6.467,-27.47c1.508,-0.338 2.821,-0.488 3.996,-0.488c8.004,0 9.45,6.846 20.217,6.954c0.1,0.005 0.2,0.005 0.3,0.005c32.408,-0 48.433,-55.05 46.545,-88.838c-8.87,27.192 -33.629,38.529 -53.295,54.908l-17.763,0c-9.058,11.296 -24.525,16.521 -25.825,32.313c-0.837,9.85 6.775,16.954 8.05,25.842c2.171,15.141 -1.008,43.17 -8.05,54.9c-4.962,8.233 -14.396,8.404 -22.617,14.545c-30.387,22.725 -36.512,63.179 -58.17,98.53c-9.463,-54.026 -17.125,-109.93 -33.909,-156.667c-11.012,68.158 10.534,138.317 8.067,213.208c-7.663,7.913 -17.746,14.584 -12.892,30.667c-5.146,5.629 -15.587,5.991 -24.241,8.083c-1.196,-55.567 -9.092,-113.096 -24.23,-155.058c-3.258,-9.013 -6.112,-23.142 -16.15,-25.842c-2.683,53.284 7.496,126.004 0,182.513c-9.008,-4.329 -10.25,-17.079 -12.92,-25.842c-3.071,-10.021 -4.25,-20.383 -6.455,-30.7c-4.4,-20.413 -14.3,-43.229 -12.933,-62.979c1.225,-17.709 21,-49.9 29.067,-67.846c11.029,-24.462 19.329,-48.271 29.083,-67.833c-11.525,4.637 -14.596,17.746 -24.212,24.246c-5.009,-22.23 14.8,-33.646 12.904,-58.155c-25.313,35.554 -55.684,66.005 -75.913,106.596c4.25,-122.075 30.096,-222.512 74.3,-308.462c7.246,-14.117 15.359,-28.434 22.617,-42.009c13.342,-24.941 19.575,-50.27 38.767,-69.445c7.804,3.204 15.312,4.895 22.216,4.895c11.384,0 21.117,-4.595 27.838,-14.591c21.529,7.541 38.608,19.545 42.004,45.216c3.387,2.184 6.054,5.08 11.621,5.08c0.887,-0 1.85,-0.076 2.9,-0.238c-14.396,17.358 -42.067,21.467 -42.004,53.313c0.975,0.054 1.941,0.083 2.883,0.083c29.254,0.004 44.271,-25.942 73.058,-30.779c-3.191,36.204 -9.491,83.046 -8.096,129.212c-28.479,17.046 -62.17,29.888 -90.433,50.054c-12.004,8.58 -26.975,19.359 -38.779,30.684c-10.704,10.316 -26.833,26.445 -20.971,45.246c1.496,0.216 2.933,0.32 4.321,0.32c17.562,0 26.775,-16.47 39.283,-26.162c25.484,-19.775 53.267,-35.6 87.221,-51.684c28.821,-13.683 50.725,-14.737 48.446,-53.312c-1.571,-26.342 1.333,-67.758 -3.246,-93.662c-2.092,-12.005 -10.158,-23.792 -4.837,-33.938c15.508,-0.221 39.712,-26.046 57.179,-26.046c0.875,0 1.733,0.067 2.571,0.2c9.991,1.629 16.054,21.054 22.616,32.329c18.334,31.442 43.338,75.4 61.396,100.125l0.313,0c39.337,0 39.554,58.384 75.587,61.367c0.229,-27.563 -19.871,-48.675 -35.537,-67.833c-16.475,-20.15 -32.825,-38.825 -45.221,-61.363c-24.896,-45.279 -55.113,-85.875 -90.446,-121.15c8.437,-19.541 19.312,-36.667 22.617,-61.362c-6.392,-0.355 -10.984,-1.596 -17.78,-4.854c-15.975,4.499 -20.8,20.133 -30.679,30.699c-2.296,-12.537 4.079,-16.366 4.838,-25.845c11.462,-7.009 27.125,-9.792 45.579,-9.792c2.004,0 4.037,0.033 6.108,0.096c18.688,-13.075 20.863,-42.654 33.938,-61.379c0.125,-0 0.25,-0.005 0.375,-0.005c10.871,0 8.925,10.738 22.208,16.155c6.883,2.816 13.808,4.016 20.225,4.021c27.071,-0 45.167,-21.392 13.717,-33.092c-18.088,-18.534 -33.863,-39.338 -53.3,-56.525c1.521,-20.954 19.187,-27.329 30.666,-43.6c10.659,-15.113 16.384,-35.538 25.842,-48.475c14.196,-19.329 57.8,-52.259 11.313,-66.192c-15.73,-42.208 -47.53,-65.5 -88.825,-87.233c-27.95,-14.688 -49.509,-18.538 -82.367,-25.825c-7.096,-1.579 -10.892,-5.429 -17.792,-5.429c-1.454,-0 -3.046,0.171 -4.837,0.571c-15.125,3.366 -17.45,20.845 -27.454,35.537c-5.68,8.362 -16.771,15 -22.6,25.842c-6.363,11.85 -10.021,24.6 -16.167,35.52c-11.242,20.088 -25.063,26.742 -32.292,50.105c-15.987,-3.55 -34.758,-20.125 -52.121,-20.125c-6.008,-0 -11.845,1.979 -17.341,7.171c2.171,36.033 25.004,51.454 43.616,71.058c-31.333,53.921 -52.77,123.925 -51.683,205.129c-11.9,-3.154 -23.204,-4.592 -34.008,-4.592c-24.742,0 -46.892,7.517 -67.75,19.125c-14.271,7.959 -35.767,14.334 -35.521,30.713c3.425,1.162 6.912,1.562 10.483,1.562c3.942,0 7.988,-0.487 12.15,-0.975c4.167,-0.487 8.454,-0.975 12.884,-0.975c2.12,0 4.27,0.113 6.458,0.388c4.579,27.191 8.158,54.85 -4.838,74.287c-24.2,-17.25 -16.475,-66.437 -56.529,-67.85c-13.679,40.938 29.6,81.625 17.779,125.971c-23.05,-33.475 -31.645,-81.421 -58.154,-111.437c11.679,-10.934 26.417,-18.784 46.846,-20.971c-8.779,-1.158 -17.871,-1.759 -26.967,-1.759c-20.704,0 -41.441,3.113 -58.641,9.825c-7.138,2.78 -11.417,8.921 -17.779,11.309c-14.267,5.321 -32.867,0.991 -41.959,12.908c-22.692,-38.129 -57.967,-72.846 -88.833,-104.987c-7.913,-8.221 -14.492,-16.488 -19.388,-25.842c-4.779,-9.104 -4.75,-23.779 -11.325,-32.296c-4.75,-6.187 -16.258,-3.225 -17.745,-11.308c2.483,-13.217 15.57,-9.988 24.216,-12.921c10.484,-3.567 21.479,-11.696 35.517,-14.533c16.429,-3.317 43.017,2.962 40.375,-20.988c-1.517,-14.054 -22.925,-28.046 -35.517,-30.696c-2.825,-0.595 -5.937,-0.829 -9.241,-0.829c-6.063,0 -12.763,0.783 -19.509,1.567c-6.746,0.783 -13.529,1.571 -19.75,1.571c-6.87,-0 -13.054,-0.959 -17.737,-3.921c-16.971,-10.796 -15.184,-68.317 -20.988,-98.533c-2.712,-14.117 -8.796,-24.68 -9.696,-32.309c-0.558,-4.717 1.634,-19.717 1.634,-24.216c0.012,-23.125 -4.142,-81.03 -22.634,-82.367c-0.304,-0.021 -0.604,-0.029 -0.9,-0.029c-23.975,-0 -27.516,70.483 -29.766,101.77c-1.459,20.196 3.8,34.638 4.837,46.846c-14.162,-7.195 -17.775,-30.866 -25.841,-54.912c-4.421,-13.167 -9.634,-25.996 -14.534,-38.763c-8.808,-22.958 -21.054,-76.833 -42.025,-76.833c-1.554,-0 -3.154,0.296 -4.808,0.921c-22.908,8.654 -4.138,44.071 -0,66.217c6.204,33.287 12.875,66.466 20.987,92.062c-9.754,-9.075 -17.37,-34.296 -30.712,-45.217c-4.721,-12.295 -9.183,-30.504 -24.317,-30.504c-2.371,0 -5.004,0.45 -7.946,1.438c-7.633,8.933 -3.258,21.683 3.229,29.066c2.326,45.046 25.842,68.875 32.296,109.825l-0.133,0c-7.392,0 -12.958,-4.9 -19.25,-9.8c-6.292,-4.9 -13.312,-9.796 -23.608,-9.796c-1.238,0 -2.521,0.071 -3.859,0.221c-18.195,14.271 8.813,35.863 21.005,50.071c13.4,15.621 21.995,29.921 32.308,37.15c10.538,51.363 35.554,88.234 67.837,117.888c-5.679,14.629 -1.304,26.341 6.45,35.554c-3.704,6.033 -12.349,12.083 -9.712,20.971c2.05,6.875 13.096,6.375 21.004,11.308c25.921,16.179 48.321,66.392 71.075,100.146c10.129,15 24.104,24.85 30.713,37.133c36.516,10.842 40.3,54.463 85.579,56.542c12.75,13.179 26.837,24.996 52.758,24.996c3.7,-0 7.638,-0.242 11.85,-0.75c7.258,-2.98 10.513,-9.946 17.775,-12.938c29.163,0.434 54.138,5.088 69.433,19.388c1.571,0.304 3.113,0.425 4.617,0.425c3.013,-0 5.892,-0.484 8.642,-0.967c2.746,-0.483 5.362,-0.971 7.846,-0.971c2.225,0 4.341,0.388 6.345,1.513c-23.391,147.254 -27.425,327.904 -51.666,479.666c-19.4,6.255 -41.513,24.25 -67.084,24.25c-0.25,0 -0.5,0 -0.75,-0.004c-10.425,-0.141 -18.458,-5.571 -27.07,-5.571c-1.717,0 -3.455,0.217 -5.238,0.734c-11.604,3.333 -13.592,15.466 -22.604,20.987c-2.513,-1.987 -5.408,-2.696 -8.608,-2.696c-3.975,0 -8.417,1.088 -13.196,2.171c-4.784,1.088 -9.896,2.175 -15.225,2.175c-0.58,0 -1.159,-0.012 -1.746,-0.041c-8.271,-0.371 -15.192,-5.242 -23.479,-5.242c-1.292,-0 -2.613,0.116 -3.98,0.387c-10.329,2.08 -24.878,21.796 -33.908,29.088c-11.729,9.433 -24.616,22.058 -38.779,22.633c-0.175,0.004 -0.35,0.009 -0.525,0.009c-3.862,-0 -8.254,-1.467 -12.654,-2.934c-4.4,-1.466 -8.813,-2.933 -12.708,-2.933c-3.901,-0 -7.284,1.462 -9.634,5.858c-7.462,13.9 17.529,32.713 30.679,33.904c0.913,0.084 1.805,0.121 2.684,0.121c6.766,0 12.562,-2.308 18.154,-4.616c5.583,-2.309 10.962,-4.617 16.887,-4.617c3.363,-0 6.9,0.742 10.75,2.65c-5.971,5.904 -12.42,20.037 -21,25.842c-14.241,9.595 -33.087,8.591 -50.091,16.145c-17.434,7.771 -34.742,23.513 -48.425,35.521c-14.55,12.784 -28.604,29.3 -33.938,48.475c1.567,0.029 1.267,1.983 1.642,3.225c4.504,2.992 8.771,4.196 12.9,4.196c16.437,0 30.65,-19.088 48.466,-20.329c0.284,-0.021 0.567,-0.029 0.851,-0.029c2.571,-0 5.208,0.82 7.854,1.646c2.65,0.825 5.308,1.65 7.916,1.65c0.388,-0 0.771,-0.017 1.154,-0.055c14.755,-1.533 27.921,-16.129 41.976,-17.775c6.866,1.009 13.479,1.471 19.862,1.471c56.504,0 95.429,-36.229 141.646,-51.541c9.908,4.745 19.925,6.337 30.208,6.337c18.379,-0 37.604,-5.087 58.625,-6.337c-41.541,93.008 -46.475,247.349 -56.541,377.941c-1.375,17.959 -5.538,38.746 8.1,50.084c3.291,1.391 7.712,1.704 12.441,1.704c1.75,-0 3.542,-0.042 5.334,-0.088c3.412,21.467 -1.892,54.184 17.745,56.538c0.638,0.079 1.267,0.112 1.888,0.112c11.246,0.009 19.108,-12.291 22.342,-25.966c11.675,6.466 13.266,25.204 20.162,38.27Zm84.821,-241.787c24.258,27.425 67.987,35.412 77.525,77.529c-6.45,4.313 -14.763,6.779 -20.983,11.321c-11.93,-11.817 -22.184,-27.533 -33.925,-42.004c-9.942,-12.238 -30.7,-27.654 -22.617,-46.846Zm142.117,-51.667c4.283,15.342 4.112,37.767 -1.613,51.667c-2.587,-15.492 -6.283,-39.075 1.613,-51.667Zm-423.159,-216.433c-67.316,8.604 -110.629,41.179 -163.121,64.617c17.559,-34.138 68.842,-48.534 108.225,-66.234c13.763,-17.975 28.217,-35.287 32.313,-62.975c-3.383,-6.333 -7.633,-11.787 -14.55,-14.571c3.312,-12.554 11.021,-16.304 20.783,-16.304c14.267,0 32.913,8.004 48.679,8.242c-4.529,29.179 -4.454,62.325 6.45,83.996c-14.495,15.079 -41.829,29.033 -68.787,29.033c-5.117,0 -10.221,-0.5 -15.225,-1.596c13.529,-9.616 31.396,-14.904 45.233,-24.208Zm416.709,35.517c2.512,6.099 8.654,8.595 6.45,19.404c-0.755,0.187 -1.459,0.279 -2.109,0.279c-9.029,-0 -8.479,-16.904 -4.341,-19.683Zm-258.242,-715.338c2.904,-0 6.029,1.792 6.283,4.671l-11.308,-0c0.087,-3.279 2.471,-4.671 5.025,-4.671Zm-42.158,-58.292c2,6.067 5.458,17.467 1.612,24.23c-13.342,-2.526 -13.433,-20.105 -1.612,-24.23Zm27.454,-79.141c11.012,32.095 31.891,62.825 30.683,101.741c-11.187,-4.529 -17.233,-21.591 -22.617,-35.521c-8.112,-20.97 -21.079,-40.625 -12.904,-63.008c2.292,-0.387 2.729,-2.654 4.838,-3.212Zm360.183,48.429c13.621,-21.438 4.621,-41.896 -11.325,-48.429c-7.383,-3.038 -14.425,-0.85 -24.229,-3.238c-14.396,-3.508 -58.775,-38.237 -61.363,-48.462c-2.204,-8.642 1.892,-19.9 1.596,-29.067c-1.287,-41.292 10.504,-88.633 14.534,-134.054c1.212,-13.492 -1.967,-26.013 6.483,-37.15c1.833,-0.067 2.175,-1.667 4.1,-1.667c0.225,0 0.471,0.021 0.742,0.071c2.854,5.721 6.575,10.654 11.325,14.533c9.583,7.85 22.258,18.892 35.52,29.067c13.992,10.767 31.488,18.833 38.763,27.458c6.375,7.538 2.279,13.696 11.292,16.146c2.308,0.633 4.425,0.913 6.383,0.913c14.796,-0 20.679,-15.963 33.996,-17.059c-0.421,12.75 -19.546,14.58 -16.146,25.842c5.783,-4.279 12.117,-6.146 18.242,-6.146c16.62,0 31.716,13.754 30.2,30.359c-0.934,10.75 -11.017,13.466 -14.521,24.229c-29.3,4.095 -51.7,15.062 -53.3,46.845c0.621,6.888 7.137,7.913 8.071,14.538c-7.45,10.654 -30.684,21.654 -20.992,38.762c1.208,0.309 2.312,0.455 3.333,0.455c6.071,-0 9.142,-5.054 12.688,-10.104c3.541,-5.05 7.562,-10.105 15.529,-10.105c1.225,0 2.546,0.121 3.975,0.379c1.317,14.534 -11.496,18.863 -6.471,32.296c2.458,6.55 6.071,9.009 10.183,9.009c11.296,-0 26.388,-18.563 31.825,-21.93c3.659,10.767 17.809,26.805 9.68,38.78c-0.159,-13.121 -10.096,-16.442 -23.359,-16.442c-2.354,0 -4.812,0.104 -7.341,0.279c-18.18,16.283 -45.342,23.546 -69.413,33.892Zm-135.696,-32.279c-4.625,9.895 -7.741,21.341 -19.391,24.212c0.325,-12.158 3.1,-17.466 1.645,-24.212l17.746,-0Zm9.709,-46.863c8.966,8.813 22.275,13.263 27.47,25.859c-3.225,3.195 -6.362,4.533 -9.295,4.533c-11.525,-0 -19.909,-20.634 -18.175,-30.392Zm-77.53,-17.742c4.517,13.617 16.909,41.942 -6.479,43.601c-9.587,-8.717 -14.646,-21.934 -20.991,-33.925c8.845,-3.517 15.066,-9.676 27.47,-9.676Zm-288.837,9.546c6.442,0 8.041,4.796 12.671,6.6c0.775,5.104 -2.929,5.709 -1.646,11.309c-9.725,-0.513 -9.833,-10.625 -12.938,-17.779c0.684,-0.088 1.325,-0.13 1.913,-0.13Zm335.171,-29.079c1.2,0 2.446,0.046 3.741,0.142c2.325,10.596 7.163,18.691 6.455,32.325c-4.225,1.483 -4.705,6.729 -10.4,6.729c-0.75,0 -1.588,-0.092 -2.538,-0.292c-7.167,-7.895 -10.875,-19.25 -14.537,-30.679c2.691,-5.804 8.779,-8.225 17.279,-8.225Zm12.371,-4.708c9.77,-0 11.4,21.316 5.887,25.854c1.675,-11.746 -13.217,-14.258 -6.454,-25.829c0.192,-0.017 0.379,-0.025 0.567,-0.025Zm-425.338,-38.754c10.05,17.979 39.896,27.596 40.362,48.458c-13.849,-3.971 -16.07,-19.554 -33.862,-19.554c-1.037,-0 -2.125,0.054 -3.271,0.162c-3.65,-5.008 -11.154,-6.091 -12.921,-12.92c-3.445,-5.009 3.863,-10.467 4.855,-16.146l4.837,-0Zm-69.462,14.521c3.2,-4.871 -0.201,-16.338 3.258,-20.971c5.258,2.5 9.079,2.971 12.792,2.971c1.133,-0 2.258,-0.042 3.408,-0.088c1.15,-0.042 2.329,-0.087 3.571,-0.087c1.833,-0 3.804,0.095 6.041,0.429c-10.7,4.933 -13.558,17.666 -29.07,17.746Zm56.916,-112.113c-1.154,0 -2.346,0.2 -3.6,0.704c-11.183,4.471 -17.637,21.284 -16.179,38.734c-10.454,13.791 -17.404,31.041 -29.038,43.62c-3.304,1 -6.287,1.45 -9.012,1.45c-17.396,0 -24.146,-18.437 -34.608,-30.533c-7.1,-8.175 -15.446,-13.792 -21,-22.604c-6.659,-10.5 -9.433,-21.079 -17.78,-25.842c0.992,-19.512 -14.054,-38.112 -14.516,-58.15c-0.204,-8.316 3.75,-16.429 3.225,-24.233c-1.025,-14.733 -12.112,-25.763 -6.488,-38.763c2.621,11.688 15.859,21.992 26.559,21.992c6.616,0.004 12.262,-3.933 13.837,-13.908c2.825,-17.763 -15.975,-41.2 -22.617,-67.834c-7.241,-29.054 -14.983,-73.229 -12.916,-93.675c3.142,19.096 27.716,46.83 30.696,71.075c4.562,37.417 19.391,93.863 42.858,93.863c0.775,-0 1.558,-0.063 2.354,-0.188c17.984,-2.87 6.583,-25.425 8.084,-40.362c1.212,-12.084 9.575,-25.471 12.904,-32.325c13.917,33.504 2.7,92.062 19.391,122.758c-18.037,8.346 -36.22,16.521 -41.987,37.15c2.875,1.817 5.383,2.571 7.642,2.571c9.808,-0 14.896,-14.196 24.67,-17.121c4.042,-1.212 8.034,-1.725 11.942,-1.725c20.071,0 37.933,13.492 49.433,14.646c1.471,0.15 2.934,0.217 4.384,0.217c7.237,-0 14.183,-1.688 20.691,-3.375c6.509,-1.684 12.576,-3.371 18.05,-3.371c6.442,-0 12.063,2.333 16.613,9.758c-0.142,-0.004 -0.296,-0.004 -0.442,-0.004c-12.5,0 -19.3,5.875 -26.983,8.067c-11.771,3.429 -26.713,0.483 -33.942,3.258c-3.504,1.35 -4.371,5.908 -8.062,6.438c-0.634,0.095 -1.246,0.133 -1.846,0.133c-2.3,-0 -4.363,-0.604 -6.363,-1.209c-1.995,-0.604 -3.925,-1.212 -5.954,-1.212Zm539.075,-84.917c48.709,17.496 90.65,41.788 129.213,69.446c-3.529,0.633 -6.821,0.925 -9.913,0.925c-17.558,0 -28.825,-9.296 -41.787,-17.075c-27.534,-16.521 -54.059,-35.816 -77.513,-53.296Zm192.192,-117.891c19.667,9.912 33.379,32.683 33.921,56.525c0.079,2.979 -4.604,4.825 -4.854,8.066c-0.292,3.909 4.591,4.467 3.241,9.696c-1.691,6.559 -4.308,6.096 -8.062,9.663c-9.325,-26.742 -13.992,-58.121 -24.246,-83.95Zm-914.167,6.437c4.808,16.738 14.721,28.354 17.779,46.846c-10.083,-14.129 -17.575,-30.883 -25.845,-46.846l8.066,0Zm855.296,-38.775c16.108,0 33.713,13.625 15.25,21.029c-7.737,-4.637 -9.771,-14.979 -16.129,-21.016c0.292,-0.009 0.583,-0.013 0.879,-0.013Zm-33.179,-14.504c7.354,1.767 16.971,1.35 16.15,11.292c-2.421,0.991 -4.983,1.471 -7.383,1.471c-7.45,-0 -13.363,-4.6 -8.767,-12.763Zm19.492,1604.56c3.5,-2.259 6.983,-4.525 10.466,-6.813c-0.754,-4.279 -1.596,-8.2 -2.533,-11.7c-9.658,1.575 -8.325,10.85 -7.933,18.513Z" style="fill:url(#_Radial17);"/><path d="M305.965,1192.83c3.283,0 6.933,-0.971 10.95,-3.167c15.37,-8.425 15.012,-55.716 -1.617,-66.22c-2.958,-1.863 -7.808,-2.734 -13.479,-2.734c-18.542,0 -45.875,9.321 -44.688,23.75c0.838,9.738 10.784,11.521 20.563,11.521c2.358,0 4.7,-0.104 6.908,-0.225c-1.121,16.287 6.171,37.075 21.363,37.075Z" style="fill:url(#_Radial18);"/></g><defs><radialGradient id="_Radial1" cx="0" cy="0" r="1" gradientUnits="userSpaceOnUse" gradientTransform="matrix(-1619.16,0,0,1619.16,234.74,443.801)"><stop offset="0" style="stop-color:#ffb30f;stop-opacity:1"/><stop offset="0.44" style="stop-color:#124e9c;stop-opacity:1"/><stop offset="1" style="stop-color:#124e9c;stop-opacity:1"/></radialGradient><radialGradient id="_Radial2" cx="0" cy="0" r="1" gradientUnits="userSpaceOnUse" gradientTransform="matrix(-1619.16,0,0,1619.16,234.74,443.801)"><stop offset="0" style="stop-color:#ffb30f;stop-opacity:1"/><stop offset="0.44" style="stop-color:#124e9c;stop-opacity:1"/><stop offset="1" style="stop-color:#124e9c;stop-opacity:1"/></radialGradient><radialGradient id="_Radial3" cx="0" cy="0" r="1" gradientUnits="userSpaceOnUse" gradientTransform="matrix(-1619.16,0,0,1619.16,234.74,443.801)"><stop offset="0" style="stop-color:#ffb30f;stop-opacity:1"/><stop offset="0.44" style="stop-color:#124e9c;stop-opacity:1"/><stop offset="1" style="stop-color:#124e9c;stop-opacity:1"/></radialGradient><radialGradient id="_Radial4" cx="0" cy="0" r="1" gradientUnits="userSpaceOnUse" gradientTransform="matrix(-1619.16,0,0,1619.16,234.74,443.801)"><stop offset="0" style="stop-color:#ffb30f;stop-opacity:1"/><stop offset="0.44" style="stop-color:#124e9c;stop-opacity:1"/><stop offset="1" style="stop-color:#124e9c;stop-opacity:1"/></radialGradient><radialGradient id="_Radial5" cx="0" cy="0" r="1" gradientUnits="userSpaceOnUse" gradientTransform="matrix(-1619.16,0,0,1619.16,234.74,443.801)"><stop offset="0" style="stop-color:#ffb30f;stop-opacity:1"/><stop offset="0.44" style="stop-color:#124e9c;stop-opacity:1"/><stop offset="1" style="stop-color:#124e9c;stop-opacity:1"/></radialGradient><radialGradient id="_Radial6" cx="0" cy="0" r="1" gradientUnits="userSpaceOnUse" gradientTransform="matrix(-1619.16,0,0,1619.16,234.74,443.801)"><stop offset="0" style="stop-color:#ffb30f;stop-opacity:1"/><stop offset="0.44" style="stop-color:#124e9c;stop-opacity:1"/><stop offset="1" style="stop-color:#124e9c;stop-opacity:1"/></radialGradient><radialGradient id="_Radial7" cx="0" cy="0" r="1" gradientUnits="userSpaceOnUse" gradientTransform="matrix(-1619.16,0,0,1619.16,234.74,443.801)"><stop offset="0" style="stop-color:#ffb30f;stop-opacity:1"/><stop offset="0.44" style="stop-color:#124e9c;stop-opacity:1"/><stop offset="1" style="stop-color:#124e9c;stop-opacity:1"/></radialGradient><radialGradient id="_Radial8" cx="0" cy="0" r="1" gradientUnits="userSpaceOnUse" gradientTransform="matrix(-1619.16,0,0,1619.16,234.74,443.801)"><stop offset="0" style="stop-color:#ffb30f;stop-opacity:1"/><stop offset="0.44" style="stop-color:#124e9c;stop-opacity:1"/><stop offset="1" style="stop-color:#124e9c;stop-opacity:1"/></radialGradient><radialGradient id="_Radial9" cx="0" cy="0" r="1" gradientUnits="userSpaceOnUse" gradientTransform="matrix(-1619.16,0,0,1619.16,234.74,443.801)"><stop offset="0" style="stop-color:#ffb30f;stop-opacity:1"/><stop offset="0.44" style="stop-color:#124e9c;stop-opacity:1"/><stop offset="1" style="stop-color:#124e9c;stop-opacity:1"/></radialGradient><radialGradient id="_Radial10" cx="0" cy="0" r="1" gradientUnits="userSpaceOnUse" gradientTransform="matrix(-1619.16,0,0,1619.16,234.74,443.801)"><stop offset="0" style="stop-color:#ffb30f;stop-opacity:1"/><stop offset="0.44" style="stop-color:#124e9c;stop-opacity:1"/><stop offset="1" style="stop-color:#124e9c;stop-opacity:1"/></radialGradient><radialGradient id="_Radial11" cx="0" cy="0" r="1" gradientUnits="userSpaceOnUse" gradientTransform="matrix(-1619.16,0,0,1619.16,234.74,443.801)"><stop offset="0" style="stop-color:#ffb30f;stop-opacity:1"/><stop offset="0.44" style="stop-color:#124e9c;stop-opacity:1"/><stop offset="1" style="stop-color:#124e9c;stop-opacity:1"/></radialGradient><radialGradient id="_Radial12" cx="0" cy="0" r="1" gradientUnits="userSpaceOnUse" gradientTransform="matrix(-1619.16,0,0,1619.16,234.74,443.801)"><stop offset="0" style="stop-color:#ffb30f;stop-opacity:1"/><stop offset="0.44" style="stop-color:#124e9c;stop-opacity:1"/><stop offset="1" style="stop-color:#124e9c;stop-opacity:1"/></radialGradient><radialGradient id="_Radial13" cx="0" cy="0" r="1" gradientUnits="userSpaceOnUse" gradientTransform="matrix(-1619.16,0,0,1619.16,234.74,443.801)"><stop offset="0" style="stop-color:#ffb30f;stop-opacity:1"/><stop offset="0.44" style="stop-color:#124e9c;stop-opacity:1"/><stop offset="1" style="stop-color:#124e9c;stop-opacity:1"/></radialGradient><radialGradient id="_Radial14" cx="0" cy="0" r="1" gradientUnits="userSpaceOnUse" gradientTransform="matrix(-1619.16,0,0,1619.16,234.74,443.801)"><stop offset="0" style="stop-color:#ffb30f;stop-opacity:1"/><stop offset="0.44" style="stop-color:#124e9c;stop-opacity:1"/><stop offset="1" style="stop-color:#124e9c;stop-opacity:1"/></radialGradient><radialGradient id="_Radial15" cx="0" cy="0" r="1" gradientUnits="userSpaceOnUse" gradientTransform="matrix(-1619.16,0,0,1619.16,234.74,443.801)"><stop offset="0" style="stop-color:#ffb30f;stop-opacity:1"/><stop offset="0.44" style="stop-color:#124e9c;stop-opacity:1"/><stop offset="1" style="stop-color:#124e9c;stop-opacity:1"/></radialGradient><radialGradient id="_Radial16" cx="0" cy="0" r="1" gradientUnits="userSpaceOnUse" gradientTransform="matrix(-1619.16,0,0,1619.16,234.74,443.801)"><stop offset="0" style="stop-color:#ffb30f;stop-opacity:1"/><stop offset="0.44" style="stop-color:#124e9c;stop-opacity:1"/><stop offset="1" style="stop-color:#124e9c;stop-opacity:1"/></radialGradient><radialGradient id="_Radial17" cx="0" cy="0" r="1" gradientUnits="userSpaceOnUse" gradientTransform="matrix(-1619.16,0,0,1619.16,175.115,302.189)"><stop offset="0" style="stop-color:#ffb30f;stop-opacity:1"/><stop offset="0.17" style="stop-color:#daa325;stop-opacity:1"/><stop offset="0.38" style="stop-color:#124e9c;stop-opacity:1"/><stop offset="1" style="stop-color:#124e9c;stop-opacity:1"/></radialGradient><radialGradient id="_Radial18" cx="0" cy="0" r="1" gradientUnits="userSpaceOnUse" gradientTransform="matrix(-1619.16,0,0,1619.16,175.115,302.189)"><stop offset="0" style="stop-color:#fbbf24;stop-opacity:1"/><stop offset="0.44" style="stop-color:#085ce5;stop-opacity:1"/><stop offset="0.74" style="stop-color:#085ce5;stop-opacity:1"/><stop offset="1" style="stop-color:#414043;stop-opacity:1"/></radialGradient></defs></svg>