<svg width="24" height="24" viewBox="0 0 24 24" fill="none" xmlns="http://www.w3.org/2000/svg">
<g clip-path="url(#clip0_473:430)">
<rect width="24" height="24" fill="white"/>
<rect width="24" height="24" fill="#085CE5"/>
<path d="M20.0855 5.02737L21.3905 4.46172C21.6776 4.33727 22 4.54422 22 4.85299C22 5.34083 21.8 6.29388 21.2166 7.75331C21.0855 10.2013 19.9121 13.8351 17.8152 16.341C14.6012 20.1819 9.67001 21.2088 2.87391 18.4137C2.4375 18.2343 2.56552 17.5949 3.03849 17.5917C4.75576 17.5803 6.4141 17.1833 7.91733 16.4468C6.4387 16.0827 5.26851 15.0046 4.71884 13.5032C4.71061 13.4807 4.70441 13.4581 4.70012 13.4356L4.53117 13.3386C3.02927 12.433 2.03608 10.6722 2.10852 8.71084L2.41491 8.54856C1.66687 7.06055 1.95886 5.18479 3.06091 4.25928C3.21511 4.12979 3.43981 4.12245 3.60239 4.2416C6.08064 6.05785 7.73751 6.86755 10.7283 7.64268C11.1241 3.12234 16.4259 1.24371 20.0855 5.02737Z" fill="white"/>
</g>
<defs>
<clipPath id="clip0_473:430">
<rect width="24" height="24" fill="white"/>
</clipPath>
</defs>
</svg>
