<?xml version="1.0" encoding="UTF-8" standalone="no"?><!DOCTYPE svg PUBLIC "-//W3C//DTD SVG 1.1//EN" "http://www.w3.org/Graphics/SVG/1.1/DTD/svg11.dtd"><svg width="100%" height="100%" viewBox="0 0 100 100" version="1.1" xmlns="http://www.w3.org/2000/svg" xmlns:xlink="http://www.w3.org/1999/xlink" xml:space="preserve" xmlns:serif="http://www.serif.com/" style="fill-rule:evenodd;clip-rule:evenodd;stroke-linejoin:round;stroke-miterlimit:2;"><g><path d="M50.078,26.991l-0.001,9.598c8.252,-16.68 40.695,-16.962 41.793,7.211l0.028,1.272l0,42.417l-16.749,0.011l-0,-33.939c-0,-23.555 -24.155,-17.15 -25.047,-0.877l-0.025,0.866l0,33.95l-16.671,0l-0,-60.509l16.671,0l0,9.598l0,-9.598Zm-25.072,1.112l-0,59.395l-16.672,-0l0,-59.395l16.672,-0Zm-8.315,-19.77c4.607,0 8.339,3.79 8.339,8.467c-0,4.671 -3.732,8.46 -8.339,8.46c-4.601,0 -8.333,-3.789 -8.333,-8.46c0,-4.677 3.732,-8.467 8.333,-8.467Z" style="fill:#fff;"/></g></svg>