<?xml version="1.0" encoding="UTF-8" standalone="no"?><!DOCTYPE svg PUBLIC "-//W3C//DTD SVG 1.1//EN" "http://www.w3.org/Graphics/SVG/1.1/DTD/svg11.dtd"><svg width="100%" height="100%" viewBox="0 0 84 80" version="1.1" xmlns="http://www.w3.org/2000/svg" xmlns:xlink="http://www.w3.org/1999/xlink" xml:space="preserve" xmlns:serif="http://www.serif.com/" style="fill-rule:evenodd;clip-rule:evenodd;stroke-linejoin:round;stroke-miterlimit:2;"><g><path d="M41.744,18.658l0,9.597c8.252,-16.679 40.695,-16.962 41.792,7.211l0.029,1.273l0,42.416l-16.75,0.012l0,-33.94c0,-23.554 -24.155,-17.149 -25.046,-0.876l-0.025,0.865l0,33.951l-16.672,-0l0,-60.509l16.672,-0l0,9.597l0,-9.597Zm-25.072,1.111l-0,59.395l-16.672,0l0,-59.395l16.672,0Zm-8.315,-19.769c4.606,0 8.338,3.789 8.338,8.466c0,4.672 -3.732,8.461 -8.338,8.461c-4.601,0 -8.333,-3.789 -8.333,-8.461c-0,-4.677 3.732,-8.466 8.333,-8.466Z" style="fill:#fff;"/></g></svg>