<?xml version="1.0" encoding="UTF-8" standalone="no"?>
<!DOCTYPE svg PUBLIC "-//W3C//DTD SVG 1.1//EN" "http://www.w3.org/Graphics/SVG/1.1/DTD/svg11.dtd">
<svg width="100%" height="100%" viewBox="0 0 982 278" version="1.1" xmlns="http://www.w3.org/2000/svg" xmlns:xlink="http://www.w3.org/1999/xlink" xml:space="preserve" xmlns:serif="http://www.serif.com/" style="fill-rule:evenodd;clip-rule:evenodd;stroke-linejoin:round;stroke-miterlimit:2;">
    <g transform="matrix(1,0,0,1,-279.617,-510.854)">
        <g transform="matrix(0.533073,0,0,0.533073,130.561,367.995)">
            <g transform="matrix(1,0,0,1,-66,133)">
                <g>
                    <g transform="matrix(4.16667,0,0,4.16667,0,0)">
                        <path d="M517.822,97.159C517.822,119.223 499.871,137.174 477.806,137.174L294.777,137.174L191.294,137.072C201.528,125.955 207.78,111.115 207.78,94.814C207.78,80.24 202.785,66.834 194.414,56.212L477.806,56.212C499.871,56.212 517.822,74.163 517.822,96.228L517.822,97.159ZM89.975,94.814C89.975,64.223 114.774,39.425 145.364,39.425C175.955,39.425 200.753,64.223 200.753,94.814C200.753,125.404 175.955,150.202 145.364,150.202C114.774,150.202 89.975,125.404 89.975,94.814ZM477.806,49.047L187.798,49.047C176.662,38.717 161.752,32.398 145.364,32.398C110.893,32.398 82.948,60.342 82.948,94.814C82.948,129.284 110.893,157.229 145.364,157.229C159.657,157.229 172.825,152.421 183.347,144.339L477.806,144.339C503.822,144.339 524.987,123.174 524.987,97.159L524.987,96.228C524.987,70.212 503.822,49.047 477.806,49.047Z" style="fill:url(#_Linear1);fill-rule:nonzero;"/>
                    </g>
                    <g transform="matrix(4.16667,0,0,4.16667,0,0)">
                        <path d="M175.774,84.106L155.487,84.106C155.487,84.106 154.82,78.876 156.688,74.072C158.444,69.556 157.553,58.778 150.676,56.737C149.658,56.435 148.57,56.398 147.553,56.703C146.759,56.942 145.899,57.41 145.453,58.327C145.453,58.327 147.254,67.854 146.574,69.001C146.064,69.862 136.629,83.989 133.132,89.222C132.291,90.481 131.843,91.96 131.843,93.473L131.843,122.187C131.843,122.968 132.476,123.602 133.258,123.602L169.031,123.602C171.249,123.602 173.047,121.709 173.047,119.375L173.047,119.289C173.047,117.616 172.121,116.174 170.781,115.489L171.627,115.489C174.239,115.489 176.356,113.183 176.356,110.337L176.356,110.233C176.356,108.435 175.51,106.853 174.229,105.932C176.949,105.851 179.132,103.483 179.132,100.572L179.132,100.464C179.132,98.394 178.028,96.6 176.412,95.706C179.293,95.388 181.533,92.947 181.533,89.982L181.533,89.866C181.533,86.685 178.955,84.106 175.774,84.106Z" style="fill:url(#_Linear2);fill-rule:nonzero;"/>
                    </g>
                    <g transform="matrix(4.16667,0,0,4.16667,0,0)">
                        <path d="M125.14,96.693C124.135,96.693 123.321,95.879 123.321,94.875C123.321,93.871 124.135,93.056 125.14,93.056C126.144,93.056 126.958,93.871 126.958,94.875C126.958,95.879 126.144,96.693 125.14,96.693ZM119.732,96.693C118.728,96.693 117.914,95.879 117.914,94.875C117.914,93.871 118.728,93.056 119.732,93.056C120.737,93.056 121.551,93.871 121.551,94.875C121.551,95.879 120.737,96.693 119.732,96.693ZM128.962,90.92L110.599,90.92C109.804,90.92 109.159,91.637 109.159,92.521L109.159,122.001C109.159,122.885 109.804,123.602 110.599,123.602L128.962,123.602C129.757,123.602 130.401,122.885 130.401,122.001L130.401,92.521C130.401,91.637 129.757,90.92 128.962,90.92Z" style="fill:url(#_Linear3);fill-rule:nonzero;"/>
                    </g>
                </g>
            </g>
            <g transform="matrix(1,0,0,1,0,-391)">
                <g transform="matrix(4.16667,0,0,4.16667,-65,520)">
                    <path d="M378.626,87.82L364.58,87.82C363.693,87.82 362.907,87.248 362.633,86.405L358.292,73.046C357.679,71.16 355.01,71.16 354.397,73.046L350.056,86.405C349.782,87.248 348.996,87.82 348.109,87.82L334.063,87.82C332.079,87.82 331.254,90.359 332.859,91.525L344.222,99.78C344.94,100.301 345.241,101.226 344.966,102.07L340.626,115.428C340.013,117.315 342.173,118.884 343.778,117.718L355.141,109.462C355.859,108.94 356.831,108.94 357.548,109.462L368.911,117.718C370.517,118.884 372.676,117.315 372.063,115.428L367.723,102.07C367.449,101.226 367.749,100.301 368.467,99.78L379.83,91.525C381.435,90.359 380.61,87.82 378.626,87.82Z" style="fill:url(#_Linear4);fill-rule:nonzero;"/>
                </g>
                <g transform="matrix(4.16667,0,0,4.16667,-65,520)">
                    <path d="M433.88,87.82L419.835,87.82C418.947,87.82 418.161,87.248 417.887,86.405L413.546,73.046C412.933,71.16 410.264,71.16 409.651,73.046L405.311,86.405C405.036,87.248 404.25,87.82 403.363,87.82L389.317,87.82C387.333,87.82 386.508,90.359 388.113,91.525L399.477,99.78C400.194,100.301 400.495,101.226 400.221,102.07L395.88,115.428C395.267,117.315 397.427,118.884 399.032,117.718L410.395,109.462C411.113,108.94 412.085,108.94 412.802,109.462L424.166,117.718C425.771,118.884 427.93,117.315 427.317,115.428L422.977,102.07C422.703,101.226 423.003,100.301 423.721,99.78L435.084,91.525C436.689,90.359 435.864,87.82 433.88,87.82Z" style="fill:url(#_Linear5);fill-rule:nonzero;"/>
                </g>
                <g transform="matrix(4.16667,0,0,4.16667,-65,520)">
                    <path d="M489.655,87.82L475.61,87.82C474.723,87.82 473.936,87.248 473.662,86.405L469.322,73.046C468.709,71.16 466.039,71.16 465.426,73.046L461.086,86.405C460.812,87.248 460.025,87.82 459.138,87.82L445.093,87.82C443.109,87.82 442.284,90.359 443.889,91.525L455.252,99.78C455.97,100.301 456.27,101.226 455.996,102.07L451.656,115.428C451.043,117.315 453.202,118.884 454.807,117.718L466.17,109.462C466.888,108.94 467.86,108.94 468.578,109.462L479.941,117.718C481.546,118.884 483.706,117.315 483.093,115.428L478.752,102.07C478.478,101.226 478.778,100.301 479.496,99.78L490.859,91.525C492.464,90.359 491.639,87.82 489.655,87.82Z" style="fill:url(#_Linear6);fill-rule:nonzero;"/>
                </g>
                <g transform="matrix(4.16667,0,0,4.16667,-65,520)">
                    <path d="M266.506,87.82L252.461,87.82C251.573,87.82 250.787,87.248 250.513,86.405L246.172,73.046C245.559,71.16 242.89,71.16 242.277,73.046L237.937,86.405C237.662,87.248 236.876,87.82 235.989,87.82L221.943,87.82C219.959,87.82 219.134,90.359 220.739,91.525L232.102,99.78C232.82,100.301 233.121,101.226 232.846,102.07L228.506,115.428C227.893,117.315 230.053,118.884 231.658,117.718L243.021,109.462C243.739,108.94 244.711,108.94 245.428,109.462L256.792,117.718C258.397,118.884 260.556,117.315 259.943,115.428L255.603,102.07C255.329,101.226 255.629,100.301 256.346,99.78L267.71,91.525C269.315,90.359 268.49,87.82 266.506,87.82Z" style="fill:url(#_Linear7);fill-rule:nonzero;"/>
                </g>
                <g transform="matrix(4.16667,0,0,4.16667,-65,520)">
                    <path d="M322.281,87.82L308.236,87.82C307.349,87.82 306.562,87.248 306.288,86.405L301.948,73.046C301.335,71.16 298.665,71.16 298.052,73.046L293.712,86.405C293.438,87.248 292.651,87.82 291.764,87.82L277.719,87.82C275.735,87.82 274.91,90.359 276.515,91.525L287.878,99.78C288.596,100.301 288.896,101.226 288.622,102.07L284.282,115.428C283.668,117.315 285.828,118.884 287.433,117.718L298.796,109.462C299.514,108.94 300.486,108.94 301.204,109.462L312.567,117.718C314.172,118.884 316.332,117.315 315.718,115.428L311.378,102.07C311.104,101.226 311.404,100.301 312.122,99.78L323.485,91.525C325.09,90.359 324.265,87.82 322.281,87.82Z" style="fill:url(#_Linear8);fill-rule:nonzero;"/>
                </g>
            </g>
        </g>
    </g>
    <defs>
        <linearGradient id="_Linear1" x1="0" y1="0" x2="1" y2="0" gradientUnits="userSpaceOnUse" gradientTransform="matrix(169.92,-187.92,187.92,169.92,243.12,195.84)"><stop offset="0" style="stop-color:rgb(123,176,0);stop-opacity:1"/><stop offset="0.24" style="stop-color:rgb(173,188,0);stop-opacity:1"/><stop offset="0.81" style="stop-color:rgb(227,183,0);stop-opacity:1"/><stop offset="1" style="stop-color:rgb(255,146,0);stop-opacity:1"/></linearGradient>
        <linearGradient id="_Linear2" x1="0" y1="0" x2="1" y2="0" gradientUnits="userSpaceOnUse" gradientTransform="matrix(169.92,-187.92,187.92,169.92,243.12,195.84)"><stop offset="0" style="stop-color:rgb(123,176,0);stop-opacity:1"/><stop offset="0.24" style="stop-color:rgb(173,188,0);stop-opacity:1"/><stop offset="0.81" style="stop-color:rgb(227,183,0);stop-opacity:1"/><stop offset="1" style="stop-color:rgb(255,146,0);stop-opacity:1"/></linearGradient>
        <linearGradient id="_Linear3" x1="0" y1="0" x2="1" y2="0" gradientUnits="userSpaceOnUse" gradientTransform="matrix(169.92,-187.92,187.92,169.92,243.12,195.84)"><stop offset="0" style="stop-color:rgb(123,176,0);stop-opacity:1"/><stop offset="0.24" style="stop-color:rgb(173,188,0);stop-opacity:1"/><stop offset="0.81" style="stop-color:rgb(227,183,0);stop-opacity:1"/><stop offset="1" style="stop-color:rgb(255,146,0);stop-opacity:1"/></linearGradient>
        <linearGradient id="_Linear4" x1="0" y1="0" x2="1" y2="0" gradientUnits="userSpaceOnUse" gradientTransform="matrix(100.56,-107.52,107.52,100.56,325.68,137.76)"><stop offset="0" style="stop-color:rgb(135,191,0);stop-opacity:1"/><stop offset="0.18" style="stop-color:rgb(191,223,79);stop-opacity:1"/><stop offset="0.54" style="stop-color:rgb(255,226,106);stop-opacity:1"/><stop offset="0.77" style="stop-color:rgb(255,166,27);stop-opacity:1"/><stop offset="1" style="stop-color:rgb(255,146,0);stop-opacity:1"/></linearGradient>
        <linearGradient id="_Linear5" x1="0" y1="0" x2="1" y2="0" gradientUnits="userSpaceOnUse" gradientTransform="matrix(100.56,-107.52,107.52,100.56,325.68,137.76)"><stop offset="0" style="stop-color:rgb(135,191,0);stop-opacity:1"/><stop offset="0.18" style="stop-color:rgb(191,223,79);stop-opacity:1"/><stop offset="0.54" style="stop-color:rgb(255,226,106);stop-opacity:1"/><stop offset="0.77" style="stop-color:rgb(255,166,27);stop-opacity:1"/><stop offset="1" style="stop-color:rgb(255,146,0);stop-opacity:1"/></linearGradient>
        <linearGradient id="_Linear6" x1="0" y1="0" x2="1" y2="0" gradientUnits="userSpaceOnUse" gradientTransform="matrix(100.56,-107.52,107.52,100.56,325.68,137.76)"><stop offset="0" style="stop-color:rgb(135,191,0);stop-opacity:1"/><stop offset="0.18" style="stop-color:rgb(191,223,79);stop-opacity:1"/><stop offset="0.54" style="stop-color:rgb(255,226,106);stop-opacity:1"/><stop offset="0.77" style="stop-color:rgb(255,166,27);stop-opacity:1"/><stop offset="1" style="stop-color:rgb(255,146,0);stop-opacity:1"/></linearGradient>
        <linearGradient id="_Linear7" x1="0" y1="0" x2="1" y2="0" gradientUnits="userSpaceOnUse" gradientTransform="matrix(100.56,-107.52,107.52,100.56,325.68,137.76)"><stop offset="0" style="stop-color:rgb(135,191,0);stop-opacity:1"/><stop offset="0.18" style="stop-color:rgb(191,223,79);stop-opacity:1"/><stop offset="0.54" style="stop-color:rgb(255,226,106);stop-opacity:1"/><stop offset="0.77" style="stop-color:rgb(255,166,27);stop-opacity:1"/><stop offset="1" style="stop-color:rgb(255,146,0);stop-opacity:1"/></linearGradient>
        <linearGradient id="_Linear8" x1="0" y1="0" x2="1" y2="0" gradientUnits="userSpaceOnUse" gradientTransform="matrix(100.56,-107.52,107.52,100.56,325.68,137.76)"><stop offset="0" style="stop-color:rgb(135,191,0);stop-opacity:1"/><stop offset="0.18" style="stop-color:rgb(191,223,79);stop-opacity:1"/><stop offset="0.54" style="stop-color:rgb(255,226,106);stop-opacity:1"/><stop offset="0.77" style="stop-color:rgb(255,166,27);stop-opacity:1"/><stop offset="1" style="stop-color:rgb(255,146,0);stop-opacity:1"/></linearGradient>
    </defs>
</svg>
