<?xml version="1.0" encoding="UTF-8" standalone="no"?>
<!DOCTYPE svg PUBLIC "-//W3C//DTD SVG 1.1//EN" "http://www.w3.org/Graphics/SVG/1.1/DTD/svg11.dtd">
<svg width="100%" height="100%" viewBox="0 0 141 47" version="1.1" xmlns="http://www.w3.org/2000/svg" xmlns:xlink="http://www.w3.org/1999/xlink" xml:space="preserve" xmlns:serif="http://www.serif.com/" style="fill-rule:evenodd;clip-rule:evenodd;stroke-linejoin:round;stroke-miterlimit:2;">
    <g transform="matrix(1,0,0,1,-4.68336,-1.77464)">
        <g transform="matrix(0.262464,0,0,0.262464,75,24.8873)">
            <g transform="matrix(1,0,0,1,-267.91,-88.0605)">
                <path d="M136.107,0.817L126.671,0.817C124.007,0.643 121.241,0.551 118.359,0.551L64.758,0.551C61.929,0.551 59.242,0.643 56.679,0.817L44.413,0.817C20.05,0.817 0.296,21.292 0.296,46.548L0.296,93.83C0.296,110.953 9.382,125.869 22.824,133.705C24.506,135.012 26.371,136.246 28.466,137.392C70.488,160.411 91.826,170.735 97.862,173.963C104.109,177.295 108.808,175.381 109.702,173.969C111.624,170.937 108.433,167.724 108.433,167.724C107.023,166.491 105.307,164.953 103.371,163.138L103.363,163.145C103.363,163.145 61.162,128.488 58.473,78.233C55.929,30.515 85.84,20.876 101.456,19.066C105.322,23.173 111.937,32.611 113.47,50.709C114.272,60.309 113.543,67.782 112.899,74.862C111.93,75.208 110.961,75.552 109.768,75.834C100.121,78.117 92.747,78.368 89.915,78.315C86.681,78.244 85.853,82.75 85.853,82.75C85.853,82.75 80.441,97.551 90.095,117.331C95.215,127.827 100.328,125.921 100.328,125.921C100.328,125.921 101.14,124.569 106.92,123.046C111.447,121.851 115.111,121.552 117.897,121.581C120.875,127.968 121.105,134.466 120.514,139.561L136.103,139.561C160.466,139.561 180.22,119.088 180.22,93.832L180.22,46.548C180.224,21.292 160.47,0.817 136.107,0.817Z" style="fill:rgb(0,173,238);fill-rule:nonzero;"/>
                <g>
                    <path d="M223.048,49.029L232.53,49.029L232.53,27.618L254.859,27.618L254.859,49.029L271.07,49.029L271.07,62.487L254.86,62.487L254.86,106.533C254.86,115.097 257.919,116.627 266.177,116.627L271.682,116.627L271.682,128.558C268.318,129.627 263.577,130.545 257.306,130.545C241.859,130.545 232.53,125.65 232.53,108.982L232.53,62.488L223.048,62.488L223.048,49.029Z" style="fill:rgb(52,56,67);fill-rule:nonzero;"/>
                    <path d="M274.284,89.559C274.284,63.712 293.096,47.806 316.496,47.806C339.896,47.806 358.707,63.712 358.707,89.559C358.707,115.253 339.895,130.393 316.496,130.393C293.097,130.393 274.284,115.251 274.284,89.559ZM336.072,89.71C336.072,71.51 327.66,62.487 316.496,62.487C305.331,62.487 296.92,71.51 296.92,89.71C296.92,107.757 305.331,116.323 316.496,116.323C327.66,116.324 336.072,107.757 336.072,89.71Z" style="fill:rgb(52,56,67);fill-rule:nonzero;"/>
                    <path d="M361.31,116.626L366.664,116.626C368.499,116.626 370.487,114.485 370.487,112.805L370.487,39.547C370.487,37.864 368.499,35.418 366.664,35.418L360.852,35.418L360.852,22.265L388.993,22.265C391.44,22.265 392.816,24.1 392.816,27.465L392.816,88.335L413.004,68.606C415.45,66.006 414.84,62.488 411.78,62.488L408.72,62.488L408.72,49.029L444.967,49.029L444.967,62.487L440.685,62.487C438.543,62.487 435.789,63.863 434.261,65.393L417.132,82.063L438.083,112.345C440.226,115.404 441.907,116.626 444.049,116.626L445.577,116.626L445.577,129.32L423.707,129.32L401.84,96.897L392.817,105.617L392.817,116.627L400.617,116.627L400.617,129.321L361.31,129.321L361.31,116.626Z" style="fill:rgb(52,56,67);fill-rule:nonzero;"/>
                    <path d="M460.11,154.099L460.11,142.324C468.675,139.721 476.322,135.135 481.828,128.254L455.37,66.771C454.3,64.171 452.769,62.488 450.63,62.488L447.724,62.488L447.724,49.029L486.571,49.029L486.571,62.487L476.018,62.487L493.3,103.933L506.147,72.581C508.441,66.769 509.206,62.487 502.476,62.487L500.029,62.487L500.029,49.029L535.358,49.029L535.358,62.487L531.994,62.487C529.852,62.487 527.713,64.322 526.488,67.228L500.182,126.416C493.911,140.181 485.957,149.203 478.312,154.099L460.11,154.099Z" style="fill:rgb(52,56,67);fill-rule:nonzero;"/>
                </g>
            </g>
        </g>
    </g>
</svg>
